<svg width="57" height="70" viewBox="0 0 57 70" fill="none" xmlns="http://www.w3.org/2000/svg">
  <path
    d="M37.331 46.3665C37.4916 47.239 37.5719 47.9437 37.5719 48.4806C37.6522 49.0175 37.6923 49.5544 37.6923 50.0913C37.6923 51.7691 37.4113 53.7489 36.8494 56.0307C36.3677 58.3126 35.4846 60.4937 34.2001 62.5742C32.9958 64.5876 31.35 66.3325 29.2627 67.809C27.2557 69.2184 24.6867 69.923 21.5557 69.923C18.6655 69.923 15.9359 69.2519 13.3669 67.9097C10.7979 66.5003 8.50987 64.7218 6.50283 62.5742C4.49578 60.3595 2.89015 57.9099 1.68592 55.2254C0.561973 52.4738 0 49.7557 0 47.0712C0 43.1787 0.280986 39.8566 0.842959 37.105C1.48521 34.2863 2.36831 31.8366 3.49226 29.7562C3.49226 29.5548 3.3317 29.3535 3.01057 29.1521C2.76972 28.9508 2.6493 28.6824 2.6493 28.3468C2.6493 28.0112 3.01057 27.575 3.7331 27.0381C4.53592 26.5012 5.45916 25.9979 6.50283 25.5281C7.62677 24.9912 8.71058 24.5549 9.75424 24.2194C10.8782 23.8167 11.7211 23.6154 12.2831 23.6154C12.6042 23.6154 13.1261 23.7496 13.8486 24.018C14.6514 24.2865 15.655 24.4207 16.8592 24.4207C17.2606 24.4207 17.662 24.3872 18.0634 24.32C18.4648 24.2529 18.9064 24.2194 19.3881 24.2194C21.074 24.2194 22.8803 24.8905 24.8071 26.2327C26.8141 27.5079 28.6606 29.1857 30.3465 31.2662C32.1127 33.3467 33.5979 35.7292 34.8022 38.4137C36.0867 41.0311 36.9296 43.682 37.331 46.3665ZM32.5141 50.2926C32.5141 49.0175 32.193 47.2054 31.5508 44.8565C30.9085 42.4404 29.9451 40.0915 28.6606 37.8097C27.3761 35.4607 25.8106 33.4138 23.9641 31.6689C22.1979 29.9239 20.1909 29.0515 17.943 29.0515C17.7824 29.0515 17.4613 29.0515 16.9796 29.0515C16.5782 28.9844 16.0965 28.9508 15.5345 28.9508C14.9726 28.8837 14.4507 28.8501 13.969 28.8501C13.4873 28.783 13.2064 28.7495 13.1261 28.7495C11.8416 28.7495 10.7176 29.2528 9.75424 30.2595C8.87114 31.2662 8.10846 32.5749 7.46621 34.1856C6.90424 35.7963 6.46269 37.6419 6.14156 39.7224C5.82043 41.8029 5.65987 43.8834 5.65987 45.9638C5.65987 46.7021 5.90071 48.145 6.3824 50.2926C6.8641 52.3731 7.70705 54.5543 8.91128 56.8361C10.1958 59.0508 11.8817 61.0306 13.969 62.7756C16.0564 64.5205 18.7057 65.3929 21.9169 65.3929C24.0845 65.3929 25.8507 64.856 27.2155 63.7822C28.5803 62.6413 29.624 61.2655 30.3465 59.6548C31.1493 58.0441 31.7113 56.3999 32.0324 54.722C32.3536 52.9771 32.5141 51.5006 32.5141 50.2926Z"
    fill="#555555" />
  <path
    d="M2.94721 30.3634L3.39356 30.142L2.94722 30.3634C3.30623 31.0872 3.97969 32.1905 4.95286 33.6599C5.92963 35.1347 7.0432 36.7286 8.29317 38.4414C9.47882 40.1153 10.7395 41.8736 12.0753 43.7163C13.413 45.5615 14.6498 47.2253 15.7855 48.7072C16.9162 50.1825 17.9051 51.4143 18.7515 52.401C19.1185 52.8975 19.4038 53.2777 19.6065 53.5399C19.7085 53.6718 19.7923 53.7775 19.8564 53.8543C19.8881 53.8922 19.9188 53.9277 19.9467 53.9574L19.9487 53.9596C19.963 53.9751 20.0228 54.0398 20.1013 54.0849C20.5164 54.3239 21.0182 54.305 21.5141 54.1725C22.0188 54.0377 22.6014 53.7636 23.2535 53.3739L23.2628 53.3683L23.2719 53.3623C24.5102 52.5473 25.9538 51.3613 27.6001 49.8148L27.6033 49.8117C29.2872 48.2013 31.0988 46.2956 33.038 44.0959L33.0395 44.0942C35.0121 41.8353 37.0249 39.435 39.0779 36.8934L39.078 36.8934L39.0846 36.8848C41.0766 34.3058 43.0241 31.66 44.9272 28.9475L44.9273 28.9475L44.9337 28.938C46.8116 26.1259 48.5249 23.383 50.0733 20.7094C52.3745 16.736 53.9977 13.5039 54.9307 11.0212L54.9309 11.0213L54.9353 11.0085C55.7956 8.51748 56.313 6.53413 56.4677 5.07596L56.4689 5.06463L56.4696 5.05326C56.5138 4.31901 56.5109 3.68815 56.4557 3.16728C56.4027 2.66683 56.2976 2.22746 56.1082 1.89192C55.9833 1.61873 55.8779 1.40048 55.7934 1.24199C55.7505 1.16161 55.7084 1.08771 55.6681 1.02688C55.6481 0.996698 55.6235 0.961954 55.5949 0.928413C55.5731 0.902843 55.5191 0.841568 55.4359 0.793653C54.7873 0.420367 54.0871 0.409254 53.3916 0.724671C52.7571 1.0124 52.2604 1.41923 51.946 1.96204C51.8392 2.14651 51.7581 2.38827 51.691 2.65553C51.6219 2.93047 51.5598 3.26554 51.5033 3.65651C51.3973 4.39 51.1809 5.39358 50.8495 6.67441C50.4583 7.91172 49.8893 9.45959 49.14 11.3208C48.3317 13.1393 47.2156 15.2798 45.7882 17.7444C44.5046 19.9607 43.0743 22.2173 41.4968 24.5144C39.8555 26.7781 38.1704 28.9752 36.4414 31.1057C34.7114 33.2376 33.0226 35.2274 31.375 37.0753C29.6657 38.8871 28.102 40.4494 26.6837 41.7632C25.2634 43.0788 24.061 44.0962 23.0742 44.8211C22.6063 45.1471 22.2401 45.3443 21.9676 45.4383C21.8325 45.4849 21.7367 45.5003 21.6738 45.5014C21.6532 45.5017 21.6375 45.5005 21.6259 45.4989C21.5863 45.4543 21.529 45.3863 21.4524 45.2918C21.2997 45.1036 21.0829 44.8264 20.8006 44.458C20.2326 43.717 19.5156 42.8086 18.6501 41.7334C17.811 40.5844 16.8619 39.4148 15.8035 38.2247C14.7176 36.9356 13.5953 35.7082 12.4367 34.5427C11.9172 33.9933 11.3068 33.3929 10.6067 32.7419C9.88041 31.9938 9.19721 31.3111 8.5572 30.6942C7.917 30.0772 7.35094 29.5436 6.85934 29.0941L6.85942 29.094L6.85142 29.087C6.57487 28.8447 6.34866 28.6512 6.1742 28.5081C6.01147 28.3745 5.86456 28.2601 5.7605 28.2002C5.2272 27.8932 4.69932 27.708 4.20544 27.7468C3.6709 27.7889 3.2624 28.0853 2.99517 28.5467C2.65705 29.1305 2.64609 29.7563 2.94721 30.3634ZM21.6626 45.5386C21.6624 45.5383 21.6621 45.5381 21.6619 45.5378C21.6686 45.5438 21.6693 45.5451 21.6626 45.5386Z"
    fill="#39D353" stroke="#39D353" />
</svg>