<svg width="216" height="51" viewBox="0 0 216 51" fill="none" xmlns="http://www.w3.org/2000/svg">
  <path
    d="M65.9 34.45C65.9 36.25 65.4833 37.4333 64.65 38C63.8167 38.6 62.4167 38.9 60.45 38.9C59.7833 38.9 58.9833 38.8 58.05 38.6C57.15 38.4333 56.2667 38.1667 55.4 37.8C54.5667 37.4333 53.85 36.9833 53.25 36.45C52.6833 35.9167 52.4 35.3 52.4 34.6C52.4 34.5667 52.4167 34.4 52.45 34.1C52.5167 33.7667 52.6 33.4333 52.7 33.1C52.8 32.7333 52.9167 32.4167 53.05 32.15C53.2167 31.85 53.3833 31.7 53.55 31.7C53.8833 31.7 54.0667 31.8 54.1 32C54.1667 32.1667 54.2 32.4667 54.2 32.9C54.2 33.5 54.4 34.0333 54.8 34.5C55.2333 34.9667 55.75 35.3667 56.35 35.7C56.95 36.0333 57.5833 36.2833 58.25 36.45C58.95 36.6167 59.5667 36.7 60.1 36.7C60.5333 36.7 60.9667 36.6833 61.4 36.65C61.8667 36.5833 62.2833 36.4667 62.65 36.3C63.0167 36.1333 63.3 35.9 63.5 35.6C63.7333 35.3 63.85 34.9 63.85 34.4C63.85 33.9667 63.8 33.5333 63.7 33.1C63.6333 32.6333 63.4667 32.0333 63.2 31.3C62.9667 30.5667 62.6167 29.6333 62.15 28.5C61.6833 27.3333 61.0833 25.8333 60.35 24C58.7833 20.1333 57.7667 17.25 57.3 15.35C56.8333 13.4167 56.5833 12.3833 56.55 12.25C56.2833 12.2833 55.9833 12.3667 55.65 12.5C55.3167 12.6333 54.9667 12.7833 54.6 12.95C54.2667 13.0833 53.9333 13.2167 53.6 13.35C53.2667 13.4833 52.9833 13.6 52.75 13.7C52.05 13.9667 51.4167 14.2833 50.85 14.65C50.2833 14.9833 49.7833 15.3167 49.35 15.65C48.9167 15.95 48.55 16.2167 48.25 16.45C47.95 16.65 47.7 16.75 47.5 16.75C47 16.75 46.7 16.5167 46.6 16.05C46.5 15.5833 46.45 15.1833 46.45 14.85C46.45 14.4833 46.8667 14.0667 47.7 13.6C48.5333 13.1 49.5833 12.6 50.85 12.1C52.1167 11.6 53.4833 11.1167 54.95 10.65C56.45 10.15 57.85 9.71667 59.15 9.35C60.45 8.98333 61.55 8.68333 62.45 8.45C63.35 8.21666 63.85 8.1 63.95 8.1C64.1833 8.1 64.3167 8.16666 64.35 8.3C64.4167 8.43333 64.45 8.55 64.45 8.65C64.45 8.85 64.2 9.08333 63.7 9.35C63.2333 9.61667 62.6667 9.9 62 10.2C61.3667 10.5 60.7 10.7833 60 11.05C59.3 11.3167 58.7333 11.5333 58.3 11.7L57.75 11.9C57.9167 12.1667 58.0667 12.4167 58.2 12.65C58.3333 12.8833 58.4667 13.1833 58.6 13.55C58.7667 13.9167 58.95 14.4 59.15 15C59.3833 15.5667 59.7 16.3167 60.1 17.25C60.8333 19.05 61.55 20.85 62.25 22.65C62.95 24.45 63.5667 26.1333 64.1 27.7C64.6667 29.2333 65.1 30.6 65.4 31.8C65.7333 32.9667 65.9 33.85 65.9 34.45ZM80.2605 27.2C80.2605 27.9333 80.1605 28.6333 79.9605 29.3C79.7605 29.9667 79.4939 30.55 79.1605 31.05C78.8272 31.55 78.4272 31.95 77.9605 32.25C77.5272 32.5167 77.0439 32.65 76.5105 32.65C75.5772 32.65 74.8439 32.3833 74.3105 31.85C73.7772 31.3167 73.3605 30.7 73.0605 30C72.7939 29.3 72.6105 28.6 72.5105 27.9C72.4439 27.1667 72.4105 26.6167 72.4105 26.25C72.4105 25.65 72.4939 24.9833 72.6605 24.25C72.8605 23.4833 73.1105 22.7833 73.4105 22.15C73.7439 21.5167 74.1105 20.9833 74.5105 20.55C74.9105 20.1167 75.3272 19.9 75.7605 19.9C75.8605 19.9 76.0105 19.9333 76.2105 20C76.4439 20.0667 76.6772 20.1667 76.9105 20.3C77.1439 20.4333 77.3439 20.6 77.5105 20.8C77.7105 21 77.8439 21.2333 77.9105 21.5C78.2772 21.5333 78.6439 21.6667 79.0105 21.9C79.3772 22.1333 79.5772 22.3167 79.6105 22.45C79.8772 23.3167 80.0439 24.1833 80.1105 25.05C80.2105 25.9167 80.2605 26.6333 80.2605 27.2ZM78.0105 26.3C78.0105 25.8 77.9605 25.2833 77.8605 24.75C77.7605 24.1833 77.5605 23.6167 77.2605 23.05C77.1939 23.0833 77.1105 23.1 77.0105 23.1C76.8772 23.1 76.7605 23.0833 76.6605 23.05C76.5939 23.0167 76.5272 23 76.4605 23C76.0605 23 75.7439 23.1167 75.5105 23.35C75.2772 23.55 75.0939 23.8333 74.9605 24.2C74.8605 24.5333 74.7939 24.9 74.7605 25.3C74.7272 25.7 74.7105 26.0833 74.7105 26.45C74.7105 26.8167 74.7272 27.2333 74.7605 27.7C74.7939 28.1333 74.8605 28.55 74.9605 28.95C75.0939 29.35 75.2605 29.7 75.4605 30C75.6605 30.2667 75.9272 30.4 76.2605 30.4C76.5939 30.4 76.8772 30.2333 77.1105 29.9C77.3439 29.5333 77.5272 29.1167 77.6605 28.65C77.7939 28.1833 77.8772 27.7333 77.9105 27.3C77.9772 26.8333 78.0105 26.5 78.0105 26.3ZM102.774 29.7C102.774 30 102.574 30.3167 102.174 30.65C101.774 30.9833 101.308 31.3 100.774 31.6C100.241 31.8667 99.6909 32.1 99.1242 32.3C98.5909 32.5 98.1909 32.6 97.9242 32.6C97.6242 32.6 97.2909 32.5167 96.9242 32.35C96.5909 32.1833 96.2576 31.9833 95.9242 31.75C95.6242 31.5167 95.3576 31.3 95.1242 31.1C94.8909 30.9 94.7409 30.7667 94.6742 30.7C94.5742 30.8 94.4242 31 94.2242 31.3C94.0242 31.6 93.7742 31.9333 93.4742 32.3C93.2076 32.6333 92.9076 32.9333 92.5742 33.2C92.2742 33.4667 91.9576 33.6 91.6242 33.6C90.7576 33.6 90.0076 33.1333 89.3742 32.2C88.7409 31.2667 88.2076 30.2 87.7742 29C87.3742 27.8 87.0576 26.65 86.8242 25.55C86.6242 24.4167 86.5242 23.65 86.5242 23.25C86.5242 23.0167 86.6409 22.8333 86.8742 22.7C87.1409 22.5333 87.3409 22.45 87.4742 22.45C87.9409 22.45 88.2576 22.6167 88.4242 22.95C88.5909 23.25 88.6742 23.5833 88.6742 23.95C88.6742 24.25 88.7576 24.7833 88.9242 25.55C89.1242 26.3167 89.3576 27.1 89.6242 27.9C89.8909 28.7 90.1742 29.4167 90.4742 30.05C90.7742 30.65 91.0409 30.95 91.2742 30.95C91.7076 30.95 92.0742 30.6833 92.3742 30.15C92.7076 29.5833 92.9742 28.95 93.1742 28.25C93.3742 27.5167 93.5242 26.8333 93.6242 26.2C93.7242 25.5333 93.7742 25.1 93.7742 24.9C93.7742 24.8667 93.7742 24.7667 93.7742 24.6C93.8076 24.4 93.8409 24.2 93.8742 24C93.9076 23.8 93.9242 23.6167 93.9242 23.45C93.9576 23.2833 93.9742 23.1667 93.9742 23.1C93.9742 22.8667 93.9242 22.7167 93.8242 22.65C93.7242 22.55 93.6742 22.3667 93.6742 22.1C93.6742 21.9 93.7742 21.7167 93.9742 21.55C94.1742 21.35 94.6076 21.25 95.2742 21.25C95.5409 21.25 95.7409 21.3333 95.8742 21.5C96.0409 21.6333 96.1576 21.8 96.2242 22C96.2909 22.2 96.3242 22.4 96.3242 22.6C96.3576 22.7667 96.3742 22.8833 96.3742 22.95C96.3742 22.9833 96.3576 23.2167 96.3242 23.65C96.2909 24.0833 96.2576 24.5667 96.2242 25.1C96.2242 25.6 96.2076 26.0833 96.1742 26.55C96.1409 27.0167 96.1242 27.3 96.1242 27.4C96.1242 27.5 96.1742 27.7 96.2742 28C96.3742 28.3 96.4909 28.6167 96.6242 28.95C96.7909 29.25 96.9742 29.5333 97.1742 29.8C97.3742 30.0333 97.5909 30.15 97.8242 30.15C98.2242 30.15 98.5909 30.1 98.9242 30C99.2909 29.8667 99.6242 29.7333 99.9242 29.6C100.258 29.4333 100.558 29.3 100.824 29.2C101.091 29.0667 101.341 29 101.574 29C101.874 29 102.141 29.0667 102.374 29.2C102.641 29.3333 102.774 29.5 102.774 29.7ZM117.581 22.75C117.581 22.9833 117.481 23.1833 117.281 23.35C117.081 23.4833 116.848 23.6 116.581 23.7C116.315 23.8 116.048 23.8833 115.781 23.95C115.515 23.9833 115.298 24 115.131 24C114.631 24 114.298 23.9667 114.131 23.9C113.965 23.8333 113.831 23.8 113.731 23.8C112.898 23.8 112.231 23.8667 111.731 24C111.231 24.1333 110.831 24.35 110.531 24.65C110.265 24.95 110.081 25.3333 109.981 25.8C109.915 26.2333 109.881 26.7667 109.881 27.4C109.881 28.4667 109.915 29.3167 109.981 29.95C110.081 30.5833 110.165 31.1 110.231 31.5C110.331 31.9 110.415 32.2167 110.481 32.45C110.581 32.65 110.631 32.85 110.631 33.05C110.631 33.3167 110.481 33.6 110.181 33.9C109.915 34.2 109.665 34.35 109.431 34.35C109.031 34.35 108.665 34 108.331 33.3C108.031 32.5667 107.765 31.7167 107.531 30.75C107.331 29.75 107.165 28.7667 107.031 27.8C106.898 26.8333 106.831 26.1 106.831 25.6C106.831 25.0333 106.881 24.5 106.981 24C107.081 23.4667 107.215 23.0167 107.381 22.65C107.548 22.25 107.731 21.9333 107.931 21.7C108.131 21.4667 108.331 21.35 108.531 21.35C108.698 21.35 108.831 21.4167 108.931 21.55C109.031 21.65 109.115 21.7833 109.181 21.95C109.248 22.0833 109.315 22.2167 109.381 22.35C109.481 22.45 109.598 22.5 109.731 22.5C110.031 22.5 110.515 22.35 111.181 22.05C111.848 21.75 112.665 21.6 113.631 21.6C114.531 21.6 115.198 21.6333 115.631 21.7C116.098 21.7333 116.548 21.8333 116.981 22C117.081 22.0333 117.198 22.1167 117.331 22.25C117.498 22.35 117.581 22.5167 117.581 22.75ZM137.602 31.85C137.602 32.05 137.535 32.25 137.402 32.45C137.268 32.65 137.102 32.8333 136.902 33C136.735 33.1667 136.535 33.3167 136.302 33.45C136.102 33.55 135.918 33.6 135.752 33.6C135.185 33.6 134.452 33.4833 133.552 33.25C132.685 32.9833 131.985 32.5833 131.452 32.05C130.885 31.4833 130.385 30.8167 129.952 30.05C129.518 29.25 129.035 28.0833 128.502 26.55C128.135 28.0167 127.702 29.4667 127.202 30.9C126.735 32.3333 125.968 33.65 124.902 34.85C124.835 34.9167 124.735 34.95 124.602 34.95C124.368 34.95 124.118 34.8333 123.852 34.6C123.585 34.3667 123.452 34.1333 123.452 33.9C123.452 33.6667 123.418 33.1333 123.352 32.3C123.318 31.4333 123.268 30.4833 123.202 29.45C123.135 28.3833 123.068 27.3167 123.002 26.25C122.968 25.15 122.952 24.25 122.952 23.55C122.952 23.2167 122.968 22.7833 123.002 22.25C123.035 21.6833 123.135 21.2 123.302 20.8C123.335 20.7333 123.452 20.6 123.652 20.4C123.885 20.2 124.135 20.1 124.402 20.1C124.635 20.1 124.768 20.25 124.802 20.55C124.835 20.85 124.852 21.1833 124.852 21.55V29.45C124.852 29.6167 124.868 29.85 124.902 30.15C124.968 30.45 125.052 30.6667 125.152 30.8C125.518 30 125.852 29.0667 126.152 28C126.485 26.9 126.802 25.8667 127.102 24.9C127.402 23.9 127.702 23.0667 128.002 22.4C128.302 21.7 128.602 21.35 128.902 21.35C129.235 21.35 129.502 21.4167 129.702 21.55C129.902 21.6833 130.068 21.95 130.202 22.35C130.368 23.3167 130.502 24.1833 130.602 24.95C130.702 25.6833 130.818 26.35 130.952 26.95C131.118 27.55 131.335 28.1167 131.602 28.65C131.902 29.15 132.302 29.6167 132.802 30.05C133.268 30.4833 133.785 30.8 134.352 31C134.952 31.2 135.468 31.3 135.902 31.3C136.102 31.3 136.318 31.2667 136.552 31.2C136.785 31.1 136.952 31.05 137.052 31.05C137.185 31.05 137.302 31.1667 137.402 31.4C137.535 31.6333 137.602 31.7833 137.602 31.85ZM155.08 32.75C155.113 32.8167 155.13 32.9167 155.13 33.05C155.13 33.25 154.98 33.55 154.68 33.95C154.58 34.0833 154.363 34.3 154.03 34.6C153.696 34.9 153.246 35.2 152.68 35.5C152.113 35.8 151.413 36.0667 150.58 36.3C149.78 36.5333 148.83 36.65 147.73 36.65C146.963 36.65 146.213 36.4833 145.48 36.15C144.746 35.7833 144.096 35.2667 143.53 34.6C142.963 33.9 142.496 33.05 142.13 32.05C141.763 31.0167 141.58 29.8167 141.58 28.45C141.58 27.15 141.746 25.9333 142.08 24.8C142.413 23.6667 142.83 22.6667 143.33 21.8C143.863 20.9333 144.446 20.25 145.08 19.75C145.713 19.25 146.33 19 146.93 19C147.463 19 147.996 19.1167 148.53 19.35C149.096 19.55 149.596 19.8167 150.03 20.15C150.496 20.4833 150.863 20.8667 151.13 21.3C151.396 21.7 151.53 22.1167 151.53 22.55C151.53 23.05 151.296 23.5667 150.83 24.1C150.396 24.6333 149.863 25.1333 149.23 25.6C148.596 26.0333 147.963 26.4 147.33 26.7C146.696 26.9667 146.196 27.1 145.83 27.1C145.63 27.1 145.446 27.0167 145.28 26.85C145.146 26.65 145.08 26.4167 145.08 26.15C145.08 25.6833 145.28 25.3167 145.68 25.05C146.113 24.7833 146.58 24.55 147.08 24.35C147.58 24.1167 148.03 23.85 148.43 23.55C148.863 23.25 149.08 22.8333 149.08 22.3C149.08 22.2333 148.996 22.0667 148.83 21.8C148.663 21.5333 148.213 21.4 147.48 21.4C147.146 21.4 146.763 21.6 146.33 22C145.896 22.3667 145.48 22.8833 145.08 23.55C144.68 24.1833 144.346 24.95 144.08 25.85C143.813 26.7167 143.68 27.6667 143.68 28.7C143.68 29.5667 143.83 30.35 144.13 31.05C144.463 31.75 144.88 32.35 145.38 32.85C145.88 33.3167 146.463 33.6833 147.13 33.95C147.796 34.2167 148.48 34.35 149.18 34.35C149.68 34.35 150.213 34.25 150.78 34.05C151.38 33.8167 151.93 33.5833 152.43 33.35C152.963 33.0833 153.413 32.85 153.78 32.65C154.18 32.4167 154.43 32.3 154.53 32.3C154.63 32.3 154.73 32.35 154.83 32.45C154.963 32.55 155.046 32.65 155.08 32.75ZM170.061 14.6C169.628 16.9 169.228 19.1167 168.861 21.25C168.695 22.15 168.528 23.1 168.361 24.1C168.195 25.0667 168.028 26.0333 167.861 27C167.728 27.9333 167.595 28.8333 167.461 29.7C167.361 30.5333 167.278 31.3 167.211 32C167.078 33.0667 166.978 34.2833 166.911 35.65C166.845 37.0167 166.778 38.3167 166.711 39.55C166.645 40.9833 166.611 42.4333 166.611 43.9C166.611 44.2 166.578 44.5333 166.511 44.9C166.445 45.2667 166.411 45.6333 166.411 46C166.411 46.3333 166.328 46.6167 166.161 46.85C166.028 47.0833 165.811 47.2 165.511 47.2C165.245 47.2 165.028 46.9833 164.861 46.55C164.728 46.15 164.611 45.6667 164.511 45.1C164.411 44.5667 164.345 44.0167 164.311 43.45C164.278 42.9167 164.261 42.5333 164.261 42.3C164.261 42.0333 164.261 41.7 164.261 41.3C164.261 40.9333 164.278 40.3667 164.311 39.6C164.378 38.8667 164.461 37.9 164.561 36.7C164.661 35.4667 164.811 33.8667 165.011 31.9C165.011 31.8667 164.778 31.7 164.311 31.4C163.878 31.1 163.328 30.7333 162.661 30.3C162.028 29.8333 161.361 29.3333 160.661 28.8C159.995 28.2667 159.428 27.75 158.961 27.25C158.895 27.1833 158.795 27.0333 158.661 26.8C158.528 26.5667 158.461 26.2833 158.461 25.95C158.461 25.7833 158.545 25.6167 158.711 25.45C158.878 25.25 159.061 25.15 159.261 25.15C159.395 25.15 159.528 25.2167 159.661 25.35C160.428 26.0167 161.311 26.7667 162.311 27.6C163.311 28.4 164.295 29.1333 165.261 29.8C165.328 29.2 165.461 28.2833 165.661 27.05C165.895 25.8167 166.128 24.5 166.361 23.1C166.595 21.6667 166.811 20.2833 167.011 18.95C167.245 17.6167 167.411 16.55 167.511 15.75C167.511 15.6167 167.545 15.4 167.611 15.1C167.678 14.8 167.778 14.5 167.911 14.2C168.045 13.9 168.195 13.65 168.361 13.45C168.528 13.2167 168.711 13.1 168.911 13.1C169.011 13.1 169.228 13.2 169.561 13.4C169.895 13.5667 170.061 13.9667 170.061 14.6ZM181.373 36.55C181.373 36.8167 181.273 37.0167 181.073 37.15C180.873 37.2833 180.639 37.35 180.373 37.35C180.073 37.35 179.756 37.0667 179.423 36.5C179.123 35.9333 178.823 35.2167 178.523 34.35C178.223 33.4833 177.939 32.55 177.673 31.55C177.406 30.5167 177.173 29.5667 176.973 28.7C176.773 27.8 176.606 27.05 176.473 26.45C176.373 25.85 176.323 25.5167 176.323 25.45C176.323 25.3167 176.256 24.9667 176.123 24.4C176.023 23.8333 175.873 22.95 175.673 21.75C175.506 20.55 175.306 19 175.073 17.1C174.873 15.1667 174.656 12.7833 174.423 9.95C174.423 9.65 174.473 9.26666 174.573 8.8C174.673 8.33333 174.906 8.1 175.273 8.1C175.739 8.1 176.089 8.41666 176.323 9.05C176.589 9.68333 176.789 10.4667 176.923 11.4C177.089 12.3333 177.206 13.3167 177.273 14.35C177.339 15.35 177.423 16.2333 177.523 17C177.656 18.0667 177.773 19.0333 177.873 19.9C178.006 20.7667 178.123 21.6333 178.223 22.5C178.356 23.3333 178.506 24.2167 178.673 25.15C178.873 26.0833 179.106 27.1167 179.373 28.25L181.373 36.55ZM195.22 27.2C195.22 27.9333 195.12 28.6333 194.92 29.3C194.72 29.9667 194.453 30.55 194.12 31.05C193.786 31.55 193.386 31.95 192.92 32.25C192.486 32.5167 192.003 32.65 191.47 32.65C190.536 32.65 189.803 32.3833 189.27 31.85C188.736 31.3167 188.32 30.7 188.02 30C187.753 29.3 187.57 28.6 187.47 27.9C187.403 27.1667 187.37 26.6167 187.37 26.25C187.37 25.65 187.453 24.9833 187.62 24.25C187.82 23.4833 188.07 22.7833 188.37 22.15C188.703 21.5167 189.07 20.9833 189.47 20.55C189.87 20.1167 190.286 19.9 190.72 19.9C190.82 19.9 190.97 19.9333 191.17 20C191.403 20.0667 191.636 20.1667 191.87 20.3C192.103 20.4333 192.303 20.6 192.47 20.8C192.67 21 192.803 21.2333 192.87 21.5C193.236 21.5333 193.603 21.6667 193.97 21.9C194.336 22.1333 194.536 22.3167 194.57 22.45C194.836 23.3167 195.003 24.1833 195.07 25.05C195.17 25.9167 195.22 26.6333 195.22 27.2ZM192.97 26.3C192.97 25.8 192.92 25.2833 192.82 24.75C192.72 24.1833 192.52 23.6167 192.22 23.05C192.153 23.0833 192.07 23.1 191.97 23.1C191.836 23.1 191.72 23.0833 191.62 23.05C191.553 23.0167 191.486 23 191.42 23C191.02 23 190.703 23.1167 190.47 23.35C190.236 23.55 190.053 23.8333 189.92 24.2C189.82 24.5333 189.753 24.9 189.72 25.3C189.686 25.7 189.67 26.0833 189.67 26.45C189.67 26.8167 189.686 27.2333 189.72 27.7C189.753 28.1333 189.82 28.55 189.92 28.95C190.053 29.35 190.22 29.7 190.42 30C190.62 30.2667 190.886 30.4 191.22 30.4C191.553 30.4 191.836 30.2333 192.07 29.9C192.303 29.5333 192.486 29.1167 192.62 28.65C192.753 28.1833 192.836 27.7333 192.87 27.3C192.936 26.8333 192.97 26.5 192.97 26.3ZM213.683 33.6C213.683 33.9667 213.55 34.2167 213.283 34.35C213.017 34.4833 212.883 34.6667 212.883 34.9C212.85 34.8667 212.917 35.05 213.083 35.45C213.25 35.85 213.4 36.2667 213.533 36.7C213.767 37.6 213.967 38.3833 214.133 39.05C214.333 39.7167 214.483 40.3333 214.583 40.9C214.717 41.4667 214.817 42.0333 214.883 42.6C214.95 43.1667 214.983 43.8 214.983 44.5C214.983 45.2 214.867 45.9167 214.633 46.65C214.4 47.3833 214.067 48.0333 213.633 48.6C213.2 49.1667 212.667 49.6333 212.033 50C211.4 50.3667 210.683 50.55 209.883 50.55C208.65 50.55 207.667 50.3 206.933 49.8C206.233 49.3 205.7 48.7333 205.333 48.1C204.967 47.4667 204.733 46.8333 204.633 46.2C204.533 45.6 204.483 45.2 204.483 45C204.483 43.7667 204.8 42.5333 205.433 41.3C206.067 40.0667 206.767 38.95 207.533 37.95C208.3 36.95 209 36.1167 209.633 35.45C210.267 34.7833 210.583 34.4 210.583 34.3L210.033 32.65C209.7 33.05 209.4 33.5 209.133 34C208.9 34.4667 208.633 34.9167 208.333 35.35C208.067 35.75 207.733 36.1 207.333 36.4C206.967 36.6667 206.5 36.8 205.933 36.8C205.333 36.8 204.733 36.6167 204.133 36.25C203.533 35.8833 203 35.3333 202.533 34.6C202.067 33.8667 201.683 32.9833 201.383 31.95C201.117 30.9167 200.983 29.7167 200.983 28.35C200.983 27.5833 201.1 26.6333 201.333 25.5C201.567 24.3333 201.933 23.2167 202.433 22.15C202.933 21.0833 203.55 20.1833 204.283 19.45C205.05 18.6833 205.933 18.3 206.933 18.3C207.5 18.3 208.017 18.4 208.483 18.6C208.983 18.8 209.233 19.05 209.233 19.35C209.233 19.6167 209.183 19.8333 209.083 20C208.983 20.1667 208.85 20.3333 208.683 20.5C208.583 20.4333 208.467 20.3667 208.333 20.3C208.233 20.2333 208.083 20.2 207.883 20.2C207.15 20.2 206.483 20.5333 205.883 21.2C205.317 21.8333 204.833 22.6333 204.433 23.6C204.033 24.5333 203.717 25.5167 203.483 26.55C203.283 27.5833 203.183 28.4833 203.183 29.25C203.183 30.95 203.467 32.25 204.033 33.15C204.6 34.0167 205.2 34.45 205.833 34.45C206.133 34.45 206.45 34.2333 206.783 33.8C207.15 33.3333 207.483 32.8333 207.783 32.3C208.117 31.7333 208.4 31.2 208.633 30.7C208.867 30.2 209 29.9 209.033 29.8C209.1 29.4667 209.133 29.0833 209.133 28.65C209.133 28.2833 209.117 27.8833 209.083 27.45C209.083 26.9833 209.083 26.5167 209.083 26.05C209.083 25.1833 209.15 24.4667 209.283 23.9C209.417 23.3 209.75 23 210.283 23C210.817 23 211.2 23.1667 211.433 23.5C211.667 23.8 211.783 24.1667 211.783 24.6C211.783 24.9 211.767 25.2667 211.733 25.7C211.733 26.1 211.733 26.5 211.733 26.9C211.733 27.2667 211.717 27.6 211.683 27.9C211.683 28.1667 211.683 28.3333 211.683 28.4C211.683 28.6 211.7 28.9 211.733 29.3C211.8 29.6667 211.85 30.05 211.883 30.45C211.95 30.8167 212 31.1667 212.033 31.5C212.1 31.8 212.15 32 212.183 32.1C212.217 32.2 212.267 32.35 212.333 32.55C212.4 32.75 212.467 32.9 212.533 33C212.567 32.9333 212.633 32.8667 212.733 32.8C212.833 32.7 212.917 32.6167 212.983 32.55C213.15 32.65 213.3 32.85 213.433 33.15C213.6 33.4167 213.683 33.5667 213.683 33.6ZM211.983 39.95C211.85 39.4167 211.7 38.8833 211.533 38.35C211.367 37.8167 211.2 37.2667 211.033 36.7C210.467 37.4 209.917 38.0667 209.383 38.7C208.883 39.3667 208.417 40.0167 207.983 40.65C207.583 41.2833 207.25 41.9333 206.983 42.6C206.75 43.3 206.633 44.0333 206.633 44.8C206.633 45.8333 206.917 46.6833 207.483 47.35C208.083 48.0167 208.733 48.35 209.433 48.35C210.2 48.35 210.917 48.0667 211.583 47.5C212.283 46.9333 212.633 46.1167 212.633 45.05C212.633 44.35 212.617 43.7667 212.583 43.3C212.55 42.8333 212.5 42.4167 212.433 42.05C212.4 41.7167 212.333 41.3833 212.233 41.05C212.167 40.75 212.083 40.3833 211.983 39.95Z"
    fill="white" />
  <path
    d="M20.7071 29.0124C20.7956 29.4934 20.8399 29.8819 20.8399 30.1779C20.8841 30.4739 20.9063 30.77 20.9063 31.066C20.9063 31.991 20.7513 33.0826 20.4415 34.3406C20.1759 35.5987 19.689 36.8012 18.9808 37.9483C18.3169 39.0584 17.4095 40.0204 16.2587 40.8344C15.1521 41.6115 13.7357 42 12.0095 42C10.416 42 8.91111 41.63 7.49471 40.8899C6.07831 40.1129 4.81683 39.1324 3.71026 37.9483C2.6037 36.7272 1.71845 35.3767 1.05451 33.8966C0.434838 32.3795 0.125 30.881 0.125 29.4009C0.125 27.2548 0.279919 25.4232 0.589757 23.9061C0.943857 22.352 1.43074 21.0015 2.05042 19.8544C2.05042 19.7434 1.96189 19.6324 1.78484 19.5214C1.65206 19.4104 1.58566 19.2624 1.58566 19.0774C1.58566 18.8924 1.78484 18.6519 2.18321 18.3558C2.62583 18.0598 3.13485 17.7823 3.71026 17.5233C4.32994 17.2273 4.92748 16.9868 5.5029 16.8018C6.12257 16.5798 6.58733 16.4688 6.89717 16.4688C7.07422 16.4688 7.36192 16.5428 7.76029 16.6908C8.20291 16.8388 8.75619 16.9128 9.42013 16.9128C9.64144 16.9128 9.86275 16.8943 10.0841 16.8573C10.3054 16.8203 10.5488 16.8018 10.8144 16.8018C11.7439 16.8018 12.7398 17.1718 13.8021 17.9118C14.9087 18.6149 15.9267 19.5399 16.8562 20.687C17.83 21.834 18.6489 23.1476 19.3128 24.6277C20.021 26.0707 20.4858 27.5323 20.7071 29.0124ZM18.0513 31.177C18.0513 30.4739 17.8743 29.4749 17.5202 28.1798C17.1661 26.8478 16.6349 25.5527 15.9267 24.2946C15.2185 22.9996 14.3554 21.871 13.3374 20.909C12.3636 19.9469 11.257 19.4659 10.0177 19.4659C9.92915 19.4659 9.7521 19.4659 9.48652 19.4659C9.26521 19.4289 8.99964 19.4104 8.6898 19.4104C8.37996 19.3734 8.09225 19.3549 7.82668 19.3549C7.5611 19.3179 7.40619 19.2994 7.36192 19.2994C6.65372 19.2994 6.03405 19.5769 5.5029 20.1319C5.01601 20.687 4.59551 21.4085 4.24141 22.2965C3.93158 23.1846 3.68813 24.2021 3.51108 25.3492C3.33403 26.4962 3.24551 27.6433 3.24551 28.7904C3.24551 29.1974 3.3783 29.9929 3.64387 31.177C3.90945 32.324 4.3742 33.5266 5.03814 34.7846C5.74634 36.0057 6.67585 37.0973 7.82668 38.0593C8.9775 39.0214 10.4382 39.5024 12.2087 39.5024C13.4038 39.5024 14.3775 39.2064 15.13 38.6143C15.8825 37.9853 16.4579 37.2268 16.8562 36.3387C17.2989 35.4507 17.6087 34.5441 17.7857 33.6191C17.9628 32.657 18.0513 31.843 18.0513 31.177Z"
    fill="#555555" />
  <path
    d="M1.54884 20.2889L1.9953 20.0674L1.54884 20.2889C1.75352 20.7015 2.13168 21.3199 2.66858 22.1306C3.20907 22.9466 3.82471 23.8278 4.51512 24.7739C5.16906 25.6971 5.86432 26.6668 6.60088 27.6828C7.33931 28.7015 8.0224 29.6204 8.65003 30.4393C9.27256 31.2516 9.81871 31.9321 10.2878 32.4792C10.4881 32.7502 10.6449 32.9592 10.7573 33.1045C10.8141 33.178 10.8623 33.2389 10.9003 33.2844C10.919 33.3067 10.939 33.33 10.9587 33.351L10.959 33.3513C10.9637 33.3566 11.0188 33.418 11.0956 33.4622C11.3993 33.637 11.7463 33.6124 12.0444 33.5328C12.3512 33.4508 12.6927 33.2882 13.0606 33.0683L13.0699 33.0628L13.0789 33.0568C13.7766 32.5976 14.583 31.9342 15.4955 31.077L15.4955 31.077L15.4987 31.0739C16.4327 30.1807 17.436 29.1252 18.5083 27.9088L18.5099 27.9071C19.5995 26.6593 20.711 25.3337 21.8446 23.9304L21.8447 23.9305L21.8513 23.9218C22.9517 22.4971 24.0275 21.0357 25.0787 19.5374L25.0788 19.5375L25.0852 19.5279C26.1229 17.9739 27.0701 16.4576 27.9264 14.979C29.1975 12.7843 30.0995 10.9899 30.6204 9.60402L30.6205 9.60408L30.6249 9.59133C31.1009 8.21309 31.3928 7.10045 31.4808 6.27091L31.482 6.25958L31.4827 6.24821C31.5075 5.83629 31.5064 5.47511 31.4742 5.17128C31.4441 4.88668 31.383 4.61263 31.2598 4.3902C31.1918 4.2418 31.1328 4.1195 31.0839 4.02787C31.0589 3.9809 31.0318 3.93307 31.0039 3.89095C30.9901 3.87012 30.971 3.8429 30.9473 3.81504C30.9303 3.79515 30.8806 3.73772 30.8008 3.69181L30.5517 4.12467L30.8008 3.69181C30.3752 3.44689 29.9126 3.4428 29.4691 3.6439C29.0867 3.81732 28.7724 4.06971 28.5707 4.41798C28.496 4.54687 28.4453 4.70418 28.4066 4.85812C28.366 5.01974 28.3304 5.21263 28.2987 5.43255C28.2421 5.82399 28.1256 6.3663 27.9445 7.06657C27.7315 7.73951 27.4211 8.58401 27.0111 9.60282C26.5699 10.5951 25.9591 11.7666 25.1756 13.1194C24.4715 14.3352 23.6865 15.5737 22.8204 16.835C21.9184 18.0791 20.9923 19.2864 20.0423 20.4571C19.0911 21.6292 18.163 22.7228 17.2578 23.7381C16.3188 24.7334 15.461 25.5902 14.6842 26.3098C13.9054 27.0311 13.2502 27.5853 12.7161 27.9779C12.4666 28.1514 12.285 28.2466 12.1634 28.2885C12.1553 28.2913 12.1478 28.2938 12.1408 28.2959C12.1363 28.2903 12.1315 28.2845 12.1267 28.2785C12.0444 28.1771 11.9264 28.0262 11.7711 27.8237C11.4573 27.4141 11.0618 26.9132 10.5855 26.3214C10.1194 25.6835 9.59326 25.0352 9.0076 24.3766C8.40625 23.6628 7.78467 22.983 7.14283 22.3372C6.85379 22.0317 6.51576 21.6993 6.12977 21.3402C5.72938 20.9279 5.35226 20.5511 4.9985 20.2101C4.64456 19.8689 4.33098 19.5734 4.0581 19.3238L4.05818 19.3238L4.05018 19.3167C3.89693 19.1825 3.77016 19.074 3.67129 18.9929C3.58414 18.9214 3.48897 18.8459 3.41279 18.8021C3.10251 18.6235 2.76404 18.4964 2.42594 18.5229C2.04717 18.5527 1.76083 18.7666 1.58213 19.0752C1.35668 19.4644 1.35061 19.8892 1.54884 20.2889ZM12.0707 28.3111C12.0708 28.311 12.0718 28.311 12.0738 28.3111C12.0717 28.3112 12.0707 28.3111 12.0707 28.3111Z"
    fill="#39D353" stroke="#39D353" />
</svg>