<svg width="666" height="792" viewBox="0 0 666 792" fill="none" xmlns="http://www.w3.org/2000/svg">
  <path
    d="M0.738046 777V727.65H33.008V734.79H9.69805V748.72H31.538V755.86H9.69805V777H0.738046ZM32.2966 777L54.6266 727.65H61.9766L84.3066 777H75.2066L70.3066 765.59H46.2266L41.3966 777H32.2966ZM58.1966 737.38L49.3066 758.45H67.2266L58.3366 737.38H58.1966ZM125.571 791.91L118.781 780.92C117.428 778.773 115.211 777.7 112.131 777.7C107.371 777.7 103.218 776.65 99.671 774.55C96.1244 772.45 93.371 769.51 91.411 765.73C89.451 761.903 88.471 757.423 88.471 752.29C88.471 747.11 89.451 742.63 91.411 738.85C93.371 735.07 96.1244 732.153 99.671 730.1C103.218 728 107.394 726.95 112.201 726.95C117.008 726.95 121.184 728 124.731 730.1C128.278 732.153 131.031 735.07 132.991 738.85C134.951 742.63 135.931 747.087 135.931 752.22C135.931 757.82 134.764 762.627 132.431 766.64C130.144 770.653 126.971 773.593 122.911 775.46C124.918 776.113 126.644 777.677 128.091 780.15L133.201 788.27L125.571 791.91ZM112.201 770C116.728 770 120.251 768.437 122.771 765.31C125.291 762.183 126.551 757.843 126.551 752.29C126.551 746.69 125.291 742.35 122.771 739.27C120.298 736.19 116.774 734.65 112.201 734.65C107.674 734.65 104.151 736.19 101.631 739.27C99.111 742.35 97.851 746.69 97.851 752.29C97.851 757.843 99.111 762.183 101.631 765.31C104.151 768.437 107.674 770 112.201 770Z"
    fill="white" />
  <rect x="108" width="558" height="695" rx="60" fill="#1B1B1B" />
  <path
    d="M160.088 79V62.08H162.056V77.272H170.672V79H160.088ZM176.527 79.216C175.727 79.216 175.007 79.064 174.367 78.76C173.743 78.44 173.247 78.008 172.879 77.464C172.511 76.92 172.327 76.312 172.327 75.64C172.327 74.776 172.543 74.096 172.975 73.6C173.423 73.104 174.151 72.752 175.159 72.544C176.183 72.336 177.575 72.232 179.335 72.232H180.415V73.504H179.359C178.383 73.504 177.567 73.536 176.911 73.6C176.255 73.664 175.735 73.776 175.351 73.936C174.967 74.096 174.695 74.304 174.535 74.56C174.375 74.816 174.295 75.136 174.295 75.52C174.295 76.176 174.519 76.712 174.967 77.128C175.431 77.544 176.055 77.752 176.839 77.752C177.479 77.752 178.039 77.6 178.519 77.296C179.015 76.992 179.399 76.576 179.671 76.048C179.959 75.52 180.103 74.912 180.103 74.224V71.488C180.103 70.496 179.903 69.784 179.503 69.352C179.103 68.904 178.447 68.68 177.535 68.68C176.831 68.68 176.151 68.784 175.495 68.992C174.839 69.184 174.167 69.504 173.479 69.952L172.807 68.536C173.223 68.248 173.695 68 174.223 67.792C174.751 67.568 175.303 67.4 175.879 67.288C176.455 67.176 177.007 67.12 177.535 67.12C178.543 67.12 179.375 67.288 180.031 67.624C180.687 67.944 181.175 68.44 181.495 69.112C181.815 69.768 181.975 70.616 181.975 71.656V79H180.151V76.288H180.367C180.239 76.896 179.991 77.416 179.623 77.848C179.271 78.28 178.831 78.616 178.303 78.856C177.775 79.096 177.183 79.216 176.527 79.216ZM189.518 79.216C188.91 79.216 188.318 79.152 187.742 79.024C187.182 78.912 186.654 78.752 186.158 78.544C185.678 78.32 185.262 78.056 184.91 77.752L185.534 76.384C185.918 76.688 186.334 76.944 186.782 77.152C187.23 77.344 187.686 77.488 188.15 77.584C188.614 77.68 189.086 77.728 189.566 77.728C190.478 77.728 191.166 77.56 191.63 77.224C192.094 76.888 192.326 76.432 192.326 75.856C192.326 75.408 192.174 75.056 191.87 74.8C191.566 74.528 191.086 74.32 190.43 74.176L188.246 73.696C187.238 73.488 186.486 73.128 185.99 72.616C185.51 72.104 185.27 71.44 185.27 70.624C185.27 69.904 185.454 69.288 185.822 68.776C186.206 68.248 186.742 67.84 187.43 67.552C188.118 67.264 188.918 67.12 189.83 67.12C190.374 67.12 190.894 67.176 191.39 67.288C191.886 67.4 192.35 67.568 192.782 67.792C193.23 68 193.614 68.264 193.934 68.584L193.286 69.952C192.982 69.664 192.638 69.424 192.254 69.232C191.87 69.024 191.47 68.872 191.054 68.776C190.654 68.664 190.246 68.608 189.83 68.608C188.934 68.608 188.254 68.784 187.79 69.136C187.326 69.488 187.094 69.952 187.094 70.528C187.094 70.976 187.238 71.344 187.526 71.632C187.814 71.92 188.262 72.128 188.87 72.256L191.054 72.712C192.094 72.936 192.87 73.296 193.382 73.792C193.91 74.272 194.174 74.928 194.174 75.76C194.174 76.464 193.982 77.08 193.598 77.608C193.214 78.12 192.67 78.52 191.966 78.808C191.278 79.08 190.462 79.216 189.518 79.216ZM201.699 79.216C200.323 79.216 199.291 78.848 198.603 78.112C197.915 77.376 197.571 76.328 197.571 74.968V68.848H195.291V67.336H197.571V63.76H199.515V67.336H203.211V68.848H199.515V74.776C199.515 75.688 199.707 76.384 200.091 76.864C200.475 77.328 201.099 77.56 201.963 77.56C202.219 77.56 202.475 77.528 202.731 77.464C202.987 77.4 203.219 77.336 203.427 77.272L203.763 78.76C203.555 78.872 203.251 78.976 202.851 79.072C202.451 79.168 202.067 79.216 201.699 79.216ZM212.438 79L220.742 62.92V63.784H211.358V62.08H222.542V63.568L214.622 79H212.438ZM236.569 79.216C235.529 79.216 234.617 78.968 233.833 78.472C233.065 77.976 232.465 77.28 232.033 76.384C231.617 75.472 231.409 74.4 231.409 73.168C231.409 71.92 231.617 70.848 232.033 69.952C232.465 69.04 233.065 68.344 233.833 67.864C234.617 67.368 235.529 67.12 236.569 67.12C237.625 67.12 238.529 67.384 239.281 67.912C240.033 68.44 240.537 69.152 240.793 70.048H240.529V62.08H242.473V79H240.577V76.216H240.817C240.561 77.128 240.049 77.856 239.281 78.4C238.529 78.944 237.625 79.216 236.569 79.216ZM236.977 77.656C238.081 77.656 238.953 77.272 239.593 76.504C240.249 75.72 240.577 74.608 240.577 73.168C240.577 71.712 240.249 70.6 239.593 69.832C238.953 69.064 238.081 68.68 236.977 68.68C235.889 68.68 235.017 69.064 234.361 69.832C233.705 70.6 233.377 71.712 233.377 73.168C233.377 74.608 233.705 75.72 234.361 76.504C235.017 77.272 235.889 77.656 236.977 77.656ZM249.793 79.216C248.993 79.216 248.273 79.064 247.633 78.76C247.009 78.44 246.513 78.008 246.145 77.464C245.777 76.92 245.593 76.312 245.593 75.64C245.593 74.776 245.809 74.096 246.241 73.6C246.689 73.104 247.417 72.752 248.425 72.544C249.449 72.336 250.841 72.232 252.601 72.232H253.681V73.504H252.625C251.649 73.504 250.833 73.536 250.177 73.6C249.521 73.664 249.001 73.776 248.617 73.936C248.233 74.096 247.961 74.304 247.801 74.56C247.641 74.816 247.561 75.136 247.561 75.52C247.561 76.176 247.785 76.712 248.233 77.128C248.697 77.544 249.321 77.752 250.105 77.752C250.745 77.752 251.305 77.6 251.785 77.296C252.281 76.992 252.665 76.576 252.937 76.048C253.225 75.52 253.369 74.912 253.369 74.224V71.488C253.369 70.496 253.169 69.784 252.769 69.352C252.369 68.904 251.713 68.68 250.801 68.68C250.097 68.68 249.417 68.784 248.761 68.992C248.105 69.184 247.433 69.504 246.745 69.952L246.073 68.536C246.489 68.248 246.961 68 247.489 67.792C248.017 67.568 248.569 67.4 249.145 67.288C249.721 67.176 250.273 67.12 250.801 67.12C251.809 67.12 252.641 67.288 253.297 67.624C253.953 67.944 254.441 68.44 254.761 69.112C255.081 69.768 255.241 70.616 255.241 71.656V79H253.417V76.288H253.633C253.505 76.896 253.257 77.416 252.889 77.848C252.537 78.28 252.097 78.616 251.569 78.856C251.041 79.096 250.449 79.216 249.793 79.216ZM260.074 83.32L262.258 78.4V79.24L257.146 67.336H259.258L263.434 77.56H262.786L267.01 67.336H269.05L262.114 83.32H260.074ZM274.76 79.216C274.152 79.216 273.56 79.152 272.984 79.024C272.424 78.912 271.896 78.752 271.4 78.544C270.92 78.32 270.504 78.056 270.152 77.752L270.776 76.384C271.16 76.688 271.576 76.944 272.024 77.152C272.472 77.344 272.928 77.488 273.392 77.584C273.856 77.68 274.328 77.728 274.808 77.728C275.72 77.728 276.408 77.56 276.872 77.224C277.336 76.888 277.568 76.432 277.568 75.856C277.568 75.408 277.416 75.056 277.112 74.8C276.808 74.528 276.328 74.32 275.672 74.176L273.488 73.696C272.48 73.488 271.728 73.128 271.232 72.616C270.752 72.104 270.512 71.44 270.512 70.624C270.512 69.904 270.696 69.288 271.064 68.776C271.448 68.248 271.984 67.84 272.672 67.552C273.36 67.264 274.16 67.12 275.072 67.12C275.616 67.12 276.136 67.176 276.632 67.288C277.128 67.4 277.592 67.568 278.024 67.792C278.472 68 278.856 68.264 279.176 68.584L278.528 69.952C278.224 69.664 277.88 69.424 277.496 69.232C277.112 69.024 276.712 68.872 276.296 68.776C275.896 68.664 275.488 68.608 275.072 68.608C274.176 68.608 273.496 68.784 273.032 69.136C272.568 69.488 272.336 69.952 272.336 70.528C272.336 70.976 272.48 71.344 272.768 71.632C273.056 71.92 273.504 72.128 274.112 72.256L276.296 72.712C277.336 72.936 278.112 73.296 278.624 73.792C279.152 74.272 279.416 74.928 279.416 75.76C279.416 76.464 279.224 77.08 278.84 77.608C278.456 78.12 277.912 78.52 277.208 78.808C276.52 79.08 275.704 79.216 274.76 79.216Z"
    fill="#767676" />
  <rect x="584" y="118" width="63" height="362.431" rx="8" transform="rotate(90 584 118)"
    fill="#2C2C2C" />
  <rect x="584" y="193" width="64" height="362.431" rx="8" transform="rotate(90 584 193)"
    fill="#2C2C2C" />
  <rect x="584" y="268" width="64" height="362.431" rx="8" transform="rotate(90 584 268)"
    fill="#2C2C2C" />
  <rect x="375.047" y="268" width="64" height="153.478" rx="8" transform="rotate(90 375.047 268)"
    fill="#3A7549" />
  <rect x="584" y="568" width="63" height="362.431" rx="8" transform="rotate(90 584 568)"
    fill="#2C2C2C" />
  <rect x="339.914" y="568" width="63" height="118.345" rx="8" transform="rotate(90 339.914 568)"
    fill="#3D6D49" />
  <rect x="584" y="345" width="61" height="362.431" rx="8" transform="rotate(90 584 345)"
    fill="#2C2C2C" />
  <rect x="274" y="345" width="61" height="52" rx="8" transform="rotate(90 274 345)" fill="#59665C" />
  <rect x="584" y="417" width="64" height="362.431" rx="8" transform="rotate(90 584 417)"
    fill="#2C2C2C" />
  <rect x="430.521" y="417" width="64" height="208.953" rx="8" transform="rotate(90 430.521 417)"
    fill="#5FDB7D" />
  <rect x="584" y="494" width="65" height="362.431" rx="8" transform="rotate(90 584 494)"
    fill="#2C2C2C" />
  <rect x="469.354" y="494" width="65" height="247.784" rx="8" transform="rotate(90 469.354 494)"
    fill="#27DE54" />
  <path
    d="M160.628 157V140.08H162.284L169.148 152.968H168.428L175.244 140.08H176.9V157H175.076V142.72H175.652L169.436 154.384H168.14L161.852 142.696H162.428V157H160.628ZM185.695 157.216C184.559 157.216 183.575 156.968 182.743 156.472C181.911 155.976 181.263 155.28 180.799 154.384C180.351 153.472 180.127 152.4 180.127 151.168C180.127 149.936 180.351 148.872 180.799 147.976C181.263 147.064 181.911 146.36 182.743 145.864C183.575 145.368 184.559 145.12 185.695 145.12C186.831 145.12 187.815 145.368 188.647 145.864C189.479 146.36 190.119 147.064 190.567 147.976C191.031 148.872 191.263 149.936 191.263 151.168C191.263 152.4 191.031 153.472 190.567 154.384C190.119 155.28 189.479 155.976 188.647 156.472C187.815 156.968 186.831 157.216 185.695 157.216ZM185.695 155.656C186.799 155.656 187.671 155.272 188.311 154.504C188.967 153.72 189.295 152.6 189.295 151.144C189.295 149.704 188.967 148.6 188.311 147.832C187.671 147.064 186.799 146.68 185.695 146.68C184.607 146.68 183.735 147.064 183.079 147.832C182.423 148.6 182.095 149.704 182.095 151.144C182.095 152.6 182.423 153.72 183.079 154.504C183.735 155.272 184.607 155.656 185.695 155.656ZM194.183 157V145.336H196.079V147.928H195.815C196.151 147 196.695 146.304 197.447 145.84C198.215 145.36 199.095 145.12 200.087 145.12C201.015 145.12 201.783 145.288 202.391 145.624C203.015 145.944 203.479 146.448 203.783 147.136C204.087 147.824 204.239 148.688 204.239 149.728V157H202.295V149.848C202.295 149.128 202.199 148.536 202.007 148.072C201.831 147.608 201.543 147.264 201.143 147.04C200.759 146.816 200.255 146.704 199.631 146.704C198.927 146.704 198.311 146.856 197.783 147.16C197.255 147.464 196.847 147.888 196.559 148.432C196.271 148.976 196.127 149.616 196.127 150.352V157H194.183Z"
    fill="#888888" />
  <path opacity="0.4"
    d="M442.548 154V142.72H443.572L450.756 152.304H450.372V142.72H451.588V154H450.596L443.412 144.416H443.78V154H442.548ZM457.448 154.144C456.691 154.144 456.035 153.979 455.48 153.648C454.925 153.317 454.493 152.853 454.184 152.256C453.885 151.648 453.736 150.933 453.736 150.112C453.736 149.291 453.885 148.581 454.184 147.984C454.493 147.376 454.925 146.907 455.48 146.576C456.035 146.245 456.691 146.08 457.448 146.08C458.205 146.08 458.861 146.245 459.416 146.576C459.971 146.907 460.397 147.376 460.696 147.984C461.005 148.581 461.16 149.291 461.16 150.112C461.16 150.933 461.005 151.648 460.696 152.256C460.397 152.853 459.971 153.317 459.416 153.648C458.861 153.979 458.205 154.144 457.448 154.144ZM457.448 153.104C458.184 153.104 458.765 152.848 459.192 152.336C459.629 151.813 459.848 151.067 459.848 150.096C459.848 149.136 459.629 148.4 459.192 147.888C458.765 147.376 458.184 147.12 457.448 147.12C456.723 147.12 456.141 147.376 455.704 147.888C455.267 148.4 455.048 149.136 455.048 150.096C455.048 151.067 455.267 151.813 455.704 152.336C456.141 152.848 456.723 153.104 457.448 153.104ZM470.336 154.144C469.419 154.144 468.731 153.899 468.272 153.408C467.813 152.917 467.584 152.219 467.584 151.312V147.232H466.064V146.224H467.584V143.84H468.88V146.224H471.344V147.232H468.88V151.184C468.88 151.792 469.008 152.256 469.264 152.576C469.52 152.885 469.936 153.04 470.512 153.04C470.683 153.04 470.853 153.019 471.024 152.976C471.195 152.933 471.349 152.891 471.488 152.848L471.712 153.84C471.573 153.915 471.371 153.984 471.104 154.048C470.837 154.112 470.581 154.144 470.336 154.144ZM472.65 144.288V142.832H474.25V144.288H472.65ZM472.81 154V146.224H474.106V154H472.81ZM476.561 154V146.224H477.825V147.952H477.649C477.777 147.557 477.963 147.221 478.209 146.944C478.465 146.656 478.763 146.443 479.105 146.304C479.457 146.155 479.841 146.08 480.257 146.08C480.918 146.08 481.451 146.24 481.857 146.56C482.273 146.869 482.55 147.355 482.689 148.016H482.449C482.641 147.419 482.982 146.949 483.473 146.608C483.974 146.256 484.555 146.08 485.217 146.08C485.803 146.08 486.283 146.192 486.657 146.416C487.041 146.64 487.329 146.981 487.521 147.44C487.713 147.888 487.809 148.459 487.809 149.152V154H486.513V149.216C486.513 148.501 486.39 147.979 486.145 147.648C485.899 147.307 485.483 147.136 484.897 147.136C484.481 147.136 484.113 147.237 483.793 147.44C483.483 147.643 483.243 147.931 483.073 148.304C482.913 148.667 482.833 149.099 482.833 149.6V154H481.537V149.216C481.537 148.501 481.409 147.979 481.153 147.648C480.907 147.307 480.497 147.136 479.921 147.136C479.494 147.136 479.126 147.237 478.817 147.44C478.507 147.643 478.267 147.931 478.097 148.304C477.937 148.667 477.857 149.099 477.857 149.6V154H476.561ZM493.736 154.144C492.914 154.144 492.205 153.984 491.608 153.664C491.021 153.333 490.562 152.869 490.232 152.272C489.912 151.675 489.752 150.96 489.752 150.128C489.752 149.317 489.912 148.613 490.232 148.016C490.552 147.408 490.989 146.933 491.544 146.592C492.109 146.251 492.76 146.08 493.496 146.08C494.2 146.08 494.802 146.235 495.304 146.544C495.805 146.853 496.189 147.291 496.456 147.856C496.733 148.421 496.872 149.099 496.872 149.888V150.384H490.744V149.536H496.008L495.752 149.744C495.752 148.891 495.56 148.229 495.176 147.76C494.802 147.28 494.253 147.04 493.528 147.04C492.984 147.04 492.52 147.168 492.136 147.424C491.762 147.669 491.48 148.016 491.288 148.464C491.096 148.901 491 149.413 491 150V150.096C491 150.747 491.101 151.296 491.304 151.744C491.517 152.192 491.832 152.533 492.248 152.768C492.664 152.992 493.16 153.104 493.736 153.104C494.194 153.104 494.637 153.035 495.064 152.896C495.501 152.747 495.912 152.507 496.296 152.176L496.744 153.088C496.392 153.408 495.944 153.664 495.4 153.856C494.856 154.048 494.301 154.144 493.736 154.144ZM502.697 144.288V142.832H504.297V144.288H502.697ZM502.857 154V146.224H504.153V154H502.857ZM506.575 154V146.224H507.839V147.952H507.663C507.887 147.333 508.25 146.869 508.751 146.56C509.263 146.24 509.85 146.08 510.511 146.08C511.13 146.08 511.642 146.192 512.047 146.416C512.463 146.629 512.773 146.965 512.975 147.424C513.178 147.883 513.279 148.459 513.279 149.152V154H511.983V149.232C511.983 148.752 511.919 148.357 511.791 148.048C511.674 147.739 511.482 147.509 511.215 147.36C510.959 147.211 510.623 147.136 510.207 147.136C509.738 147.136 509.327 147.237 508.975 147.44C508.623 147.643 508.351 147.925 508.159 148.288C507.967 148.651 507.871 149.077 507.871 149.568V154H506.575ZM517.879 154L514.535 146.224H515.943L518.727 153.04H518.295L521.127 146.224H522.455L519.095 154H517.879ZM527.22 154.144C526.399 154.144 525.689 153.984 525.092 153.664C524.505 153.333 524.047 152.869 523.716 152.272C523.396 151.675 523.236 150.96 523.236 150.128C523.236 149.317 523.396 148.613 523.716 148.016C524.036 147.408 524.473 146.933 525.028 146.592C525.593 146.251 526.244 146.08 526.98 146.08C527.684 146.08 528.287 146.235 528.788 146.544C529.289 146.853 529.673 147.291 529.94 147.856C530.217 148.421 530.356 149.099 530.356 149.888V150.384H524.228V149.536H529.492L529.236 149.744C529.236 148.891 529.044 148.229 528.66 147.76C528.287 147.28 527.737 147.04 527.012 147.04C526.468 147.04 526.004 147.168 525.62 147.424C525.247 147.669 524.964 148.016 524.772 148.464C524.58 148.901 524.484 149.413 524.484 150V150.096C524.484 150.747 524.585 151.296 524.788 151.744C525.001 152.192 525.316 152.533 525.732 152.768C526.148 152.992 526.644 153.104 527.22 153.104C527.679 153.104 528.121 153.035 528.548 152.896C528.985 152.747 529.396 152.507 529.78 152.176L530.228 153.088C529.876 153.408 529.428 153.664 528.884 153.856C528.34 154.048 527.785 154.144 527.22 154.144ZM534.856 154.144C534.45 154.144 534.056 154.101 533.672 154.016C533.298 153.941 532.946 153.835 532.616 153.696C532.296 153.547 532.018 153.371 531.784 153.168L532.2 152.256C532.456 152.459 532.733 152.629 533.032 152.768C533.33 152.896 533.634 152.992 533.944 153.056C534.253 153.12 534.568 153.152 534.888 153.152C535.496 153.152 535.954 153.04 536.264 152.816C536.573 152.592 536.728 152.288 536.728 151.904C536.728 151.605 536.626 151.371 536.424 151.2C536.221 151.019 535.901 150.88 535.464 150.784L534.008 150.464C533.336 150.325 532.834 150.085 532.504 149.744C532.184 149.403 532.024 148.96 532.024 148.416C532.024 147.936 532.146 147.525 532.392 147.184C532.648 146.832 533.005 146.56 533.464 146.368C533.922 146.176 534.456 146.08 535.064 146.08C535.426 146.08 535.773 146.117 536.104 146.192C536.434 146.267 536.744 146.379 537.032 146.528C537.33 146.667 537.586 146.843 537.8 147.056L537.368 147.968C537.165 147.776 536.936 147.616 536.68 147.488C536.424 147.349 536.157 147.248 535.88 147.184C535.613 147.109 535.341 147.072 535.064 147.072C534.466 147.072 534.013 147.189 533.704 147.424C533.394 147.659 533.24 147.968 533.24 148.352C533.24 148.651 533.336 148.896 533.528 149.088C533.72 149.28 534.018 149.419 534.424 149.504L535.88 149.808C536.573 149.957 537.09 150.197 537.432 150.528C537.784 150.848 537.96 151.285 537.96 151.84C537.96 152.309 537.832 152.72 537.576 153.072C537.32 153.413 536.957 153.68 536.488 153.872C536.029 154.053 535.485 154.144 534.856 154.144ZM542.977 154.144C542.059 154.144 541.371 153.899 540.913 153.408C540.454 152.917 540.225 152.219 540.225 151.312V147.232H538.705V146.224H540.225V143.84H541.521V146.224H543.985V147.232H541.521V151.184C541.521 151.792 541.649 152.256 541.905 152.576C542.161 152.885 542.577 153.04 543.153 153.04C543.323 153.04 543.494 153.019 543.665 152.976C543.835 152.933 543.99 152.891 544.129 152.848L544.353 153.84C544.214 153.915 544.011 153.984 543.745 154.048C543.478 154.112 543.222 154.144 542.977 154.144ZM548.876 154.144C548.055 154.144 547.346 153.984 546.748 153.664C546.162 153.333 545.703 152.869 545.372 152.272C545.052 151.675 544.892 150.96 544.892 150.128C544.892 149.317 545.052 148.613 545.372 148.016C545.692 147.408 546.13 146.933 546.684 146.592C547.25 146.251 547.9 146.08 548.636 146.08C549.34 146.08 549.943 146.235 550.444 146.544C550.946 146.853 551.33 147.291 551.596 147.856C551.874 148.421 552.012 149.099 552.012 149.888V150.384H545.884V149.536H551.148L550.892 149.744C550.892 148.891 550.7 148.229 550.316 147.76C549.943 147.28 549.394 147.04 548.668 147.04C548.124 147.04 547.66 147.168 547.276 147.424C546.903 147.669 546.62 148.016 546.428 148.464C546.236 148.901 546.14 149.413 546.14 150V150.096C546.14 150.747 546.242 151.296 546.444 151.744C546.658 152.192 546.972 152.533 547.388 152.768C547.804 152.992 548.3 153.104 548.876 153.104C549.335 153.104 549.778 153.035 550.204 152.896C550.642 152.747 551.052 152.507 551.436 152.176L551.884 153.088C551.532 153.408 551.084 153.664 550.54 153.856C549.996 154.048 549.442 154.144 548.876 154.144ZM556.848 154.144C556.155 154.144 555.547 153.979 555.024 153.648C554.512 153.317 554.112 152.853 553.824 152.256C553.547 151.648 553.408 150.933 553.408 150.112C553.408 149.28 553.547 148.565 553.824 147.968C554.112 147.36 554.512 146.896 555.024 146.576C555.547 146.245 556.155 146.08 556.848 146.08C557.552 146.08 558.155 146.256 558.656 146.608C559.157 146.96 559.493 147.435 559.664 148.032H559.488V142.72H560.784V154H559.52V152.144H559.68C559.509 152.752 559.168 153.237 558.656 153.6C558.155 153.963 557.552 154.144 556.848 154.144ZM557.12 153.104C557.856 153.104 558.437 152.848 558.864 152.336C559.301 151.813 559.52 151.072 559.52 150.112C559.52 149.141 559.301 148.4 558.864 147.888C558.437 147.376 557.856 147.12 557.12 147.12C556.395 147.12 555.813 147.376 555.376 147.888C554.939 148.4 554.72 149.141 554.72 150.112C554.72 151.072 554.939 151.813 555.376 152.336C555.813 152.848 556.395 153.104 557.12 153.104Z"
    fill="#A8A8A8" />
  <path opacity="0.4"
    d="M442.548 230V218.72H443.572L450.756 228.304H450.372V218.72H451.588V230H450.596L443.412 220.416H443.78V230H442.548ZM457.448 230.144C456.691 230.144 456.035 229.979 455.48 229.648C454.925 229.317 454.493 228.853 454.184 228.256C453.885 227.648 453.736 226.933 453.736 226.112C453.736 225.291 453.885 224.581 454.184 223.984C454.493 223.376 454.925 222.907 455.48 222.576C456.035 222.245 456.691 222.08 457.448 222.08C458.205 222.08 458.861 222.245 459.416 222.576C459.971 222.907 460.397 223.376 460.696 223.984C461.005 224.581 461.16 225.291 461.16 226.112C461.16 226.933 461.005 227.648 460.696 228.256C460.397 228.853 459.971 229.317 459.416 229.648C458.861 229.979 458.205 230.144 457.448 230.144ZM457.448 229.104C458.184 229.104 458.765 228.848 459.192 228.336C459.629 227.813 459.848 227.067 459.848 226.096C459.848 225.136 459.629 224.4 459.192 223.888C458.765 223.376 458.184 223.12 457.448 223.12C456.723 223.12 456.141 223.376 455.704 223.888C455.267 224.4 455.048 225.136 455.048 226.096C455.048 227.067 455.267 227.813 455.704 228.336C456.141 228.848 456.723 229.104 457.448 229.104ZM470.336 230.144C469.419 230.144 468.731 229.899 468.272 229.408C467.813 228.917 467.584 228.219 467.584 227.312V223.232H466.064V222.224H467.584V219.84H468.88V222.224H471.344V223.232H468.88V227.184C468.88 227.792 469.008 228.256 469.264 228.576C469.52 228.885 469.936 229.04 470.512 229.04C470.683 229.04 470.853 229.019 471.024 228.976C471.195 228.933 471.349 228.891 471.488 228.848L471.712 229.84C471.573 229.915 471.371 229.984 471.104 230.048C470.837 230.112 470.581 230.144 470.336 230.144ZM472.65 220.288V218.832H474.25V220.288H472.65ZM472.81 230V222.224H474.106V230H472.81ZM476.561 230V222.224H477.825V223.952H477.649C477.777 223.557 477.963 223.221 478.209 222.944C478.465 222.656 478.763 222.443 479.105 222.304C479.457 222.155 479.841 222.08 480.257 222.08C480.918 222.08 481.451 222.24 481.857 222.56C482.273 222.869 482.55 223.355 482.689 224.016H482.449C482.641 223.419 482.982 222.949 483.473 222.608C483.974 222.256 484.555 222.08 485.217 222.08C485.803 222.08 486.283 222.192 486.657 222.416C487.041 222.64 487.329 222.981 487.521 223.44C487.713 223.888 487.809 224.459 487.809 225.152V230H486.513V225.216C486.513 224.501 486.39 223.979 486.145 223.648C485.899 223.307 485.483 223.136 484.897 223.136C484.481 223.136 484.113 223.237 483.793 223.44C483.483 223.643 483.243 223.931 483.073 224.304C482.913 224.667 482.833 225.099 482.833 225.6V230H481.537V225.216C481.537 224.501 481.409 223.979 481.153 223.648C480.907 223.307 480.497 223.136 479.921 223.136C479.494 223.136 479.126 223.237 478.817 223.44C478.507 223.643 478.267 223.931 478.097 224.304C477.937 224.667 477.857 225.099 477.857 225.6V230H476.561ZM493.736 230.144C492.914 230.144 492.205 229.984 491.608 229.664C491.021 229.333 490.562 228.869 490.232 228.272C489.912 227.675 489.752 226.96 489.752 226.128C489.752 225.317 489.912 224.613 490.232 224.016C490.552 223.408 490.989 222.933 491.544 222.592C492.109 222.251 492.76 222.08 493.496 222.08C494.2 222.08 494.802 222.235 495.304 222.544C495.805 222.853 496.189 223.291 496.456 223.856C496.733 224.421 496.872 225.099 496.872 225.888V226.384H490.744V225.536H496.008L495.752 225.744C495.752 224.891 495.56 224.229 495.176 223.76C494.802 223.28 494.253 223.04 493.528 223.04C492.984 223.04 492.52 223.168 492.136 223.424C491.762 223.669 491.48 224.016 491.288 224.464C491.096 224.901 491 225.413 491 226V226.096C491 226.747 491.101 227.296 491.304 227.744C491.517 228.192 491.832 228.533 492.248 228.768C492.664 228.992 493.16 229.104 493.736 229.104C494.194 229.104 494.637 229.035 495.064 228.896C495.501 228.747 495.912 228.507 496.296 228.176L496.744 229.088C496.392 229.408 495.944 229.664 495.4 229.856C494.856 230.048 494.301 230.144 493.736 230.144ZM502.697 220.288V218.832H504.297V220.288H502.697ZM502.857 230V222.224H504.153V230H502.857ZM506.575 230V222.224H507.839V223.952H507.663C507.887 223.333 508.25 222.869 508.751 222.56C509.263 222.24 509.85 222.08 510.511 222.08C511.13 222.08 511.642 222.192 512.047 222.416C512.463 222.629 512.773 222.965 512.975 223.424C513.178 223.883 513.279 224.459 513.279 225.152V230H511.983V225.232C511.983 224.752 511.919 224.357 511.791 224.048C511.674 223.739 511.482 223.509 511.215 223.36C510.959 223.211 510.623 223.136 510.207 223.136C509.738 223.136 509.327 223.237 508.975 223.44C508.623 223.643 508.351 223.925 508.159 224.288C507.967 224.651 507.871 225.077 507.871 225.568V230H506.575ZM517.879 230L514.535 222.224H515.943L518.727 229.04H518.295L521.127 222.224H522.455L519.095 230H517.879ZM527.22 230.144C526.399 230.144 525.689 229.984 525.092 229.664C524.505 229.333 524.047 228.869 523.716 228.272C523.396 227.675 523.236 226.96 523.236 226.128C523.236 225.317 523.396 224.613 523.716 224.016C524.036 223.408 524.473 222.933 525.028 222.592C525.593 222.251 526.244 222.08 526.98 222.08C527.684 222.08 528.287 222.235 528.788 222.544C529.289 222.853 529.673 223.291 529.94 223.856C530.217 224.421 530.356 225.099 530.356 225.888V226.384H524.228V225.536H529.492L529.236 225.744C529.236 224.891 529.044 224.229 528.66 223.76C528.287 223.28 527.737 223.04 527.012 223.04C526.468 223.04 526.004 223.168 525.62 223.424C525.247 223.669 524.964 224.016 524.772 224.464C524.58 224.901 524.484 225.413 524.484 226V226.096C524.484 226.747 524.585 227.296 524.788 227.744C525.001 228.192 525.316 228.533 525.732 228.768C526.148 228.992 526.644 229.104 527.22 229.104C527.679 229.104 528.121 229.035 528.548 228.896C528.985 228.747 529.396 228.507 529.78 228.176L530.228 229.088C529.876 229.408 529.428 229.664 528.884 229.856C528.34 230.048 527.785 230.144 527.22 230.144ZM534.856 230.144C534.45 230.144 534.056 230.101 533.672 230.016C533.298 229.941 532.946 229.835 532.616 229.696C532.296 229.547 532.018 229.371 531.784 229.168L532.2 228.256C532.456 228.459 532.733 228.629 533.032 228.768C533.33 228.896 533.634 228.992 533.944 229.056C534.253 229.12 534.568 229.152 534.888 229.152C535.496 229.152 535.954 229.04 536.264 228.816C536.573 228.592 536.728 228.288 536.728 227.904C536.728 227.605 536.626 227.371 536.424 227.2C536.221 227.019 535.901 226.88 535.464 226.784L534.008 226.464C533.336 226.325 532.834 226.085 532.504 225.744C532.184 225.403 532.024 224.96 532.024 224.416C532.024 223.936 532.146 223.525 532.392 223.184C532.648 222.832 533.005 222.56 533.464 222.368C533.922 222.176 534.456 222.08 535.064 222.08C535.426 222.08 535.773 222.117 536.104 222.192C536.434 222.267 536.744 222.379 537.032 222.528C537.33 222.667 537.586 222.843 537.8 223.056L537.368 223.968C537.165 223.776 536.936 223.616 536.68 223.488C536.424 223.349 536.157 223.248 535.88 223.184C535.613 223.109 535.341 223.072 535.064 223.072C534.466 223.072 534.013 223.189 533.704 223.424C533.394 223.659 533.24 223.968 533.24 224.352C533.24 224.651 533.336 224.896 533.528 225.088C533.72 225.28 534.018 225.419 534.424 225.504L535.88 225.808C536.573 225.957 537.09 226.197 537.432 226.528C537.784 226.848 537.96 227.285 537.96 227.84C537.96 228.309 537.832 228.72 537.576 229.072C537.32 229.413 536.957 229.68 536.488 229.872C536.029 230.053 535.485 230.144 534.856 230.144ZM542.977 230.144C542.059 230.144 541.371 229.899 540.913 229.408C540.454 228.917 540.225 228.219 540.225 227.312V223.232H538.705V222.224H540.225V219.84H541.521V222.224H543.985V223.232H541.521V227.184C541.521 227.792 541.649 228.256 541.905 228.576C542.161 228.885 542.577 229.04 543.153 229.04C543.323 229.04 543.494 229.019 543.665 228.976C543.835 228.933 543.99 228.891 544.129 228.848L544.353 229.84C544.214 229.915 544.011 229.984 543.745 230.048C543.478 230.112 543.222 230.144 542.977 230.144ZM548.876 230.144C548.055 230.144 547.346 229.984 546.748 229.664C546.162 229.333 545.703 228.869 545.372 228.272C545.052 227.675 544.892 226.96 544.892 226.128C544.892 225.317 545.052 224.613 545.372 224.016C545.692 223.408 546.13 222.933 546.684 222.592C547.25 222.251 547.9 222.08 548.636 222.08C549.34 222.08 549.943 222.235 550.444 222.544C550.946 222.853 551.33 223.291 551.596 223.856C551.874 224.421 552.012 225.099 552.012 225.888V226.384H545.884V225.536H551.148L550.892 225.744C550.892 224.891 550.7 224.229 550.316 223.76C549.943 223.28 549.394 223.04 548.668 223.04C548.124 223.04 547.66 223.168 547.276 223.424C546.903 223.669 546.62 224.016 546.428 224.464C546.236 224.901 546.14 225.413 546.14 226V226.096C546.14 226.747 546.242 227.296 546.444 227.744C546.658 228.192 546.972 228.533 547.388 228.768C547.804 228.992 548.3 229.104 548.876 229.104C549.335 229.104 549.778 229.035 550.204 228.896C550.642 228.747 551.052 228.507 551.436 228.176L551.884 229.088C551.532 229.408 551.084 229.664 550.54 229.856C549.996 230.048 549.442 230.144 548.876 230.144ZM556.848 230.144C556.155 230.144 555.547 229.979 555.024 229.648C554.512 229.317 554.112 228.853 553.824 228.256C553.547 227.648 553.408 226.933 553.408 226.112C553.408 225.28 553.547 224.565 553.824 223.968C554.112 223.36 554.512 222.896 555.024 222.576C555.547 222.245 556.155 222.08 556.848 222.08C557.552 222.08 558.155 222.256 558.656 222.608C559.157 222.96 559.493 223.435 559.664 224.032H559.488V218.72H560.784V230H559.52V228.144H559.68C559.509 228.752 559.168 229.237 558.656 229.6C558.155 229.963 557.552 230.144 556.848 230.144ZM557.12 229.104C557.856 229.104 558.437 228.848 558.864 228.336C559.301 227.813 559.52 227.072 559.52 226.112C559.52 225.141 559.301 224.4 558.864 223.888C558.437 223.376 557.856 223.12 557.12 223.12C556.395 223.12 555.813 223.376 555.376 223.888C554.939 224.4 554.72 225.141 554.72 226.112C554.72 227.072 554.939 227.813 555.376 228.336C555.813 228.848 556.395 229.104 557.12 229.104Z"
    fill="#A8A8A8" />
  <path
    d="M481.047 306.16C479.799 306.16 478.743 305.925 477.879 305.456C477.025 304.987 476.375 304.32 475.927 303.456C475.479 302.592 475.255 301.568 475.255 300.384C475.255 299.189 475.484 298.16 475.943 297.296C476.401 296.421 477.063 295.749 477.927 295.28C478.791 294.8 479.825 294.56 481.031 294.56C481.564 294.56 482.071 294.613 482.551 294.72C483.041 294.816 483.495 294.96 483.911 295.152C484.327 295.344 484.684 295.579 484.983 295.856L484.295 297.456C483.793 297.061 483.281 296.779 482.759 296.608C482.236 296.437 481.66 296.352 481.031 296.352C479.836 296.352 478.929 296.699 478.311 297.392C477.703 298.085 477.399 299.083 477.399 300.384C477.399 301.696 477.713 302.693 478.343 303.376C478.972 304.059 479.905 304.4 481.143 304.4C481.569 304.4 482.001 304.357 482.439 304.272C482.876 304.187 483.303 304.069 483.719 303.92L483.319 304.832V301.424H480.727V299.904H485.031V305.328C484.689 305.499 484.295 305.648 483.847 305.776C483.409 305.893 482.951 305.984 482.471 306.048C481.991 306.123 481.516 306.16 481.047 306.16ZM487.212 306V298.176H489.164V300.064H489.004C489.153 299.424 489.447 298.939 489.884 298.608C490.321 298.267 490.903 298.069 491.628 298.016L492.236 297.968L492.364 299.664L491.212 299.776C490.561 299.84 490.071 300.043 489.74 300.384C489.409 300.715 489.244 301.184 489.244 301.792V306H487.212ZM497.209 306.16C496.323 306.16 495.561 305.995 494.921 305.664C494.281 305.333 493.785 304.864 493.433 304.256C493.091 303.648 492.921 302.928 492.921 302.096C492.921 301.285 493.086 300.576 493.417 299.968C493.758 299.36 494.222 298.885 494.809 298.544C495.406 298.192 496.083 298.016 496.841 298.016C497.587 298.016 498.227 298.176 498.761 298.496C499.294 298.816 499.705 299.269 499.993 299.856C500.291 300.443 500.441 301.141 500.441 301.952V302.544H494.537V301.392H499.033L498.777 301.632C498.777 300.907 498.617 300.352 498.297 299.968C497.977 299.573 497.518 299.376 496.921 299.376C496.473 299.376 496.089 299.483 495.769 299.696C495.459 299.899 495.219 300.192 495.049 300.576C494.889 300.949 494.809 301.397 494.809 301.92V302.032C494.809 302.619 494.899 303.104 495.081 303.488C495.262 303.872 495.534 304.16 495.897 304.352C496.259 304.544 496.707 304.64 497.241 304.64C497.678 304.64 498.115 304.576 498.553 304.448C498.99 304.309 499.39 304.096 499.753 303.808L500.312 305.152C499.939 305.461 499.47 305.707 498.905 305.888C498.339 306.069 497.774 306.16 497.209 306.16ZM504.6 306.16C504.035 306.16 503.528 306.053 503.08 305.84C502.643 305.616 502.296 305.317 502.04 304.944C501.795 304.571 501.672 304.149 501.672 303.68C501.672 303.104 501.822 302.651 502.12 302.32C502.419 301.979 502.904 301.733 503.576 301.584C504.248 301.435 505.15 301.36 506.28 301.36H507.08V302.512H506.296C505.795 302.512 505.374 302.533 505.032 302.576C504.691 302.608 504.414 302.667 504.2 302.752C503.998 302.827 503.848 302.933 503.752 303.072C503.667 303.211 503.624 303.381 503.624 303.584C503.624 303.936 503.747 304.224 503.992 304.448C504.238 304.672 504.579 304.784 505.016 304.784C505.368 304.784 505.678 304.704 505.944 304.544C506.222 304.373 506.44 304.144 506.6 303.856C506.76 303.568 506.84 303.237 506.84 302.864V301.024C506.84 300.491 506.723 300.107 506.488 299.872C506.254 299.637 505.859 299.52 505.304 299.52C504.867 299.52 504.419 299.589 503.96 299.728C503.502 299.856 503.038 300.059 502.568 300.336L501.992 298.976C502.27 298.784 502.595 298.619 502.968 298.48C503.352 298.331 503.752 298.219 504.168 298.144C504.595 298.059 504.995 298.016 505.368 298.016C506.136 298.016 506.766 298.133 507.256 298.368C507.758 298.603 508.131 298.96 508.376 299.44C508.622 299.909 508.744 300.517 508.744 301.264V306H506.872V304.336H507C506.926 304.709 506.776 305.035 506.552 305.312C506.339 305.579 506.067 305.787 505.736 305.936C505.406 306.085 505.027 306.16 504.6 306.16ZM514.358 306.16C513.313 306.16 512.534 305.899 512.022 305.376C511.51 304.853 511.254 304.091 511.254 303.088V299.68H509.75V298.176H511.254V295.84H513.254V298.176H515.622V299.68H513.254V302.976C513.254 303.488 513.366 303.872 513.59 304.128C513.814 304.384 514.177 304.512 514.678 304.512C514.828 304.512 514.982 304.496 515.142 304.464C515.302 304.421 515.468 304.379 515.638 304.336L515.942 305.808C515.75 305.915 515.505 306 515.206 306.064C514.918 306.128 514.636 306.16 514.358 306.16ZM525.084 306.16C524.198 306.16 523.436 305.995 522.796 305.664C522.156 305.333 521.66 304.864 521.308 304.256C520.966 303.648 520.796 302.928 520.796 302.096C520.796 301.285 520.961 300.576 521.292 299.968C521.633 299.36 522.097 298.885 522.684 298.544C523.281 298.192 523.958 298.016 524.716 298.016C525.462 298.016 526.102 298.176 526.636 298.496C527.169 298.816 527.58 299.269 527.868 299.856C528.166 300.443 528.316 301.141 528.316 301.952V302.544H522.412V301.392H526.908L526.652 301.632C526.652 300.907 526.492 300.352 526.172 299.968C525.852 299.573 525.393 299.376 524.796 299.376C524.348 299.376 523.964 299.483 523.644 299.696C523.334 299.899 523.094 300.192 522.924 300.576C522.764 300.949 522.684 301.397 522.684 301.92V302.032C522.684 302.619 522.774 303.104 522.956 303.488C523.137 303.872 523.409 304.16 523.772 304.352C524.134 304.544 524.582 304.64 525.116 304.64C525.553 304.64 525.99 304.576 526.428 304.448C526.865 304.309 527.265 304.096 527.628 303.808L528.188 305.152C527.814 305.461 527.345 305.707 526.78 305.888C526.214 306.069 525.649 306.16 525.084 306.16ZM530.396 306V299.68H528.892V298.176H530.972L530.396 298.704V298.16C530.396 297.051 530.684 296.213 531.26 295.648C531.847 295.083 532.753 294.763 533.98 294.688L534.764 294.64L534.892 296.112L534.156 296.16C533.729 296.181 533.388 296.261 533.132 296.4C532.876 296.528 532.689 296.709 532.572 296.944C532.455 297.179 532.396 297.477 532.396 297.84V298.432L532.14 298.176H534.524V299.68H532.396V306H530.396ZM535.865 306V299.68H534.361V298.176H536.441L535.865 298.704V298.16C535.865 297.051 536.153 296.213 536.729 295.648C537.316 295.083 538.222 294.763 539.449 294.688L540.233 294.64L540.361 296.112L539.625 296.16C539.198 296.181 538.857 296.261 538.601 296.4C538.345 296.528 538.158 296.709 538.041 296.944C537.924 297.179 537.865 297.477 537.865 297.84V298.432L537.609 298.176H539.993V299.68H537.865V306H535.865ZM544.53 306.16C543.719 306.16 543.015 305.995 542.418 305.664C541.821 305.333 541.357 304.864 541.026 304.256C540.695 303.637 540.53 302.912 540.53 302.08C540.53 301.248 540.695 300.528 541.026 299.92C541.357 299.312 541.821 298.843 542.418 298.512C543.015 298.181 543.719 298.016 544.53 298.016C545.341 298.016 546.045 298.181 546.642 298.512C547.239 298.843 547.703 299.312 548.034 299.92C548.365 300.528 548.53 301.248 548.53 302.08C548.53 302.912 548.365 303.637 548.034 304.256C547.703 304.864 547.239 305.333 546.642 305.664C546.045 305.995 545.341 306.16 544.53 306.16ZM544.53 304.64C545.127 304.64 545.607 304.427 545.97 304C546.333 303.563 546.514 302.923 546.514 302.08C546.514 301.227 546.333 300.592 545.97 300.176C545.607 299.749 545.127 299.536 544.53 299.536C543.933 299.536 543.453 299.749 543.09 300.176C542.727 300.592 542.546 301.227 542.546 302.08C542.546 302.923 542.727 303.563 543.09 304C543.453 304.427 543.933 304.64 544.53 304.64ZM550.181 306V298.176H552.133V300.064H551.973C552.122 299.424 552.415 298.939 552.853 298.608C553.29 298.267 553.871 298.069 554.597 298.016L555.205 297.968L555.333 299.664L554.181 299.776C553.53 299.84 553.039 300.043 552.709 300.384C552.378 300.715 552.213 301.184 552.213 301.792V306H550.181ZM560.483 306.16C559.438 306.16 558.659 305.899 558.147 305.376C557.635 304.853 557.379 304.091 557.379 303.088V299.68H555.875V298.176H557.379V295.84H559.379V298.176H561.747V299.68H559.379V302.976C559.379 303.488 559.491 303.872 559.715 304.128C559.939 304.384 560.302 304.512 560.803 304.512C560.953 304.512 561.107 304.496 561.267 304.464C561.427 304.421 561.593 304.379 561.763 304.336L562.067 305.808C561.875 305.915 561.63 306 561.331 306.064C561.043 306.128 560.761 306.16 560.483 306.16Z"
    fill="#848484" />
  <path
    d="M528.844 382.16C527.596 382.16 526.54 381.925 525.676 381.456C524.822 380.987 524.172 380.32 523.724 379.456C523.276 378.592 523.052 377.568 523.052 376.384C523.052 375.189 523.281 374.16 523.74 373.296C524.198 372.421 524.86 371.749 525.724 371.28C526.588 370.8 527.622 370.56 528.828 370.56C529.361 370.56 529.868 370.613 530.348 370.72C530.838 370.816 531.292 370.96 531.708 371.152C532.124 371.344 532.481 371.579 532.78 371.856L532.092 373.456C531.59 373.061 531.078 372.779 530.556 372.608C530.033 372.437 529.457 372.352 528.828 372.352C527.633 372.352 526.726 372.699 526.108 373.392C525.5 374.085 525.196 375.083 525.196 376.384C525.196 377.696 525.51 378.693 526.14 379.376C526.769 380.059 527.702 380.4 528.94 380.4C529.366 380.4 529.798 380.357 530.236 380.272C530.673 380.187 531.1 380.069 531.516 379.92L531.116 380.832V377.424H528.524V375.904H532.828V381.328C532.486 381.499 532.092 381.648 531.644 381.776C531.206 381.893 530.748 381.984 530.267 382.048C529.788 382.123 529.313 382.16 528.844 382.16ZM538.577 382.16C537.766 382.16 537.062 381.995 536.465 381.664C535.867 381.333 535.403 380.864 535.073 380.256C534.742 379.637 534.577 378.912 534.577 378.08C534.577 377.248 534.742 376.528 535.073 375.92C535.403 375.312 535.867 374.843 536.465 374.512C537.062 374.181 537.766 374.016 538.577 374.016C539.387 374.016 540.091 374.181 540.689 374.512C541.286 374.843 541.75 375.312 542.081 375.92C542.411 376.528 542.577 377.248 542.577 378.08C542.577 378.912 542.411 379.637 542.081 380.256C541.75 380.864 541.286 381.333 540.689 381.664C540.091 381.995 539.387 382.16 538.577 382.16ZM538.577 380.64C539.174 380.64 539.654 380.427 540.017 380C540.379 379.563 540.561 378.923 540.561 378.08C540.561 377.227 540.379 376.592 540.017 376.176C539.654 375.749 539.174 375.536 538.577 375.536C537.979 375.536 537.499 375.749 537.137 376.176C536.774 376.592 536.593 377.227 536.593 378.08C536.593 378.923 536.774 379.563 537.137 380C537.499 380.427 537.979 380.64 538.577 380.64ZM547.796 382.16C546.985 382.16 546.281 381.995 545.684 381.664C545.086 381.333 544.622 380.864 544.292 380.256C543.961 379.637 543.796 378.912 543.796 378.08C543.796 377.248 543.961 376.528 544.292 375.92C544.622 375.312 545.086 374.843 545.684 374.512C546.281 374.181 546.985 374.016 547.796 374.016C548.606 374.016 549.31 374.181 549.908 374.512C550.505 374.843 550.969 375.312 551.3 375.92C551.63 376.528 551.796 377.248 551.796 378.08C551.796 378.912 551.63 379.637 551.3 380.256C550.969 380.864 550.505 381.333 549.908 381.664C549.31 381.995 548.606 382.16 547.796 382.16ZM547.796 380.64C548.393 380.64 548.873 380.427 549.236 380C549.598 379.563 549.78 378.923 549.78 378.08C549.78 377.227 549.598 376.592 549.236 376.176C548.873 375.749 548.393 375.536 547.796 375.536C547.198 375.536 546.718 375.749 546.356 376.176C545.993 376.592 545.812 377.227 545.812 378.08C545.812 378.923 545.993 379.563 546.356 380C546.718 380.427 547.198 380.64 547.796 380.64ZM556.454 382.16C555.772 382.16 555.169 381.995 554.646 381.664C554.134 381.333 553.734 380.864 553.446 380.256C553.158 379.637 553.014 378.912 553.014 378.08C553.014 377.237 553.158 376.517 553.446 375.92C553.734 375.312 554.134 374.843 554.646 374.512C555.169 374.181 555.772 374.016 556.454 374.016C557.105 374.016 557.67 374.176 558.15 374.496C558.641 374.816 558.972 375.237 559.142 375.76H558.966V370.72H560.966V382H559.014V380.336H559.158C558.998 380.891 558.673 381.333 558.182 381.664C557.692 381.995 557.116 382.16 556.454 382.16ZM557.014 380.64C557.612 380.64 558.092 380.427 558.454 380C558.817 379.563 558.998 378.923 558.998 378.08C558.998 377.227 558.817 376.592 558.454 376.176C558.092 375.749 557.612 375.536 557.014 375.536C556.417 375.536 555.937 375.749 555.574 376.176C555.212 376.592 555.03 377.227 555.03 378.08C555.03 378.923 555.212 379.563 555.574 380C555.937 380.427 556.417 380.64 557.014 380.64Z"
    fill="#848484" />
  <path
    d="M505.905 604V594.432H502.033V592.72H511.825V594.432H507.953V604H505.905ZM512.931 604V592.72H514.931V597.744H514.707C514.941 597.179 515.304 596.752 515.795 596.464C516.296 596.165 516.861 596.016 517.491 596.016C518.12 596.016 518.637 596.133 519.043 596.368C519.448 596.603 519.752 596.96 519.955 597.44C520.157 597.909 520.259 598.507 520.259 599.232V604H518.259V599.328C518.259 598.923 518.205 598.592 518.099 598.336C518.003 598.08 517.848 597.893 517.635 597.776C517.432 597.648 517.171 597.584 516.851 597.584C516.467 597.584 516.131 597.669 515.843 597.84C515.555 598 515.331 598.235 515.171 598.544C515.011 598.843 514.931 599.195 514.931 599.6V604H512.931ZM524.866 604.16C524.301 604.16 523.794 604.053 523.346 603.84C522.909 603.616 522.562 603.317 522.306 602.944C522.061 602.571 521.938 602.149 521.938 601.68C521.938 601.104 522.087 600.651 522.386 600.32C522.685 599.979 523.17 599.733 523.842 599.584C524.514 599.435 525.415 599.36 526.546 599.36H527.346V600.512H526.562C526.061 600.512 525.639 600.533 525.298 600.576C524.957 600.608 524.679 600.667 524.466 600.752C524.263 600.827 524.114 600.933 524.018 601.072C523.933 601.211 523.89 601.381 523.89 601.584C523.89 601.936 524.013 602.224 524.258 602.448C524.503 602.672 524.845 602.784 525.282 602.784C525.634 602.784 525.943 602.704 526.21 602.544C526.487 602.373 526.706 602.144 526.866 601.856C527.026 601.568 527.106 601.237 527.106 600.864V599.024C527.106 598.491 526.989 598.107 526.754 597.872C526.519 597.637 526.125 597.52 525.57 597.52C525.133 597.52 524.685 597.589 524.226 597.728C523.767 597.856 523.303 598.059 522.834 598.336L522.258 596.976C522.535 596.784 522.861 596.619 523.234 596.48C523.618 596.331 524.018 596.219 524.434 596.144C524.861 596.059 525.261 596.016 525.634 596.016C526.402 596.016 527.031 596.133 527.522 596.368C528.023 596.603 528.397 596.96 528.642 597.44C528.887 597.909 529.01 598.517 529.01 599.264V604H527.138V602.336H527.266C527.191 602.709 527.042 603.035 526.818 603.312C526.605 603.579 526.333 603.787 526.002 603.936C525.671 604.085 525.293 604.16 524.866 604.16ZM534.624 604.16C533.579 604.16 532.8 603.899 532.288 603.376C531.776 602.853 531.52 602.091 531.52 601.088V597.68H530.016V596.176H531.52V593.84H533.52V596.176H535.888V597.68H533.52V600.976C533.52 601.488 533.632 601.872 533.856 602.128C534.08 602.384 534.443 602.512 534.944 602.512C535.093 602.512 535.248 602.496 535.408 602.464C535.568 602.421 535.733 602.379 535.904 602.336L536.208 603.808C536.016 603.915 535.771 604 535.472 604.064C535.184 604.128 534.901 604.16 534.624 604.16ZM537.981 597.072L537.165 596.432C537.389 596.197 537.565 595.979 537.693 595.776C537.831 595.563 537.927 595.355 537.981 595.152C538.045 594.939 538.077 594.72 538.077 594.496L538.573 594.944H537.005V592.72H539.245V594.176C539.245 594.539 539.202 594.885 539.117 595.216C539.042 595.536 538.914 595.851 538.733 596.16C538.551 596.459 538.301 596.763 537.981 597.072ZM543.56 604.16C543.123 604.16 542.696 604.123 542.28 604.048C541.875 603.973 541.502 603.872 541.16 603.744C540.819 603.605 540.52 603.435 540.264 603.232L540.776 601.92C541.043 602.091 541.331 602.24 541.64 602.368C541.95 602.496 542.27 602.592 542.6 602.656C542.931 602.72 543.256 602.752 543.576 602.752C544.088 602.752 544.467 602.667 544.712 602.496C544.968 602.315 545.096 602.08 545.096 601.792C545.096 601.547 545.011 601.36 544.84 601.232C544.68 601.093 544.435 600.992 544.104 600.928L542.504 600.624C541.843 600.496 541.336 600.256 540.984 599.904C540.643 599.541 540.472 599.077 540.472 598.512C540.472 598 540.611 597.557 540.888 597.184C541.176 596.811 541.571 596.523 542.072 596.32C542.574 596.117 543.15 596.016 543.8 596.016C544.174 596.016 544.536 596.053 544.888 596.128C545.24 596.192 545.571 596.293 545.88 596.432C546.2 596.56 546.478 596.731 546.712 596.944L546.168 598.256C545.966 598.085 545.731 597.941 545.464 597.824C545.198 597.696 544.92 597.6 544.632 597.536C544.355 597.461 544.083 597.424 543.816 597.424C543.294 597.424 542.904 597.515 542.648 597.696C542.403 597.877 542.28 598.117 542.28 598.416C542.28 598.64 542.355 598.827 542.504 598.976C542.654 599.125 542.883 599.227 543.192 599.28L544.792 599.584C545.486 599.712 546.008 599.947 546.36 600.288C546.723 600.629 546.904 601.088 546.904 601.664C546.904 602.187 546.766 602.635 546.488 603.008C546.211 603.381 545.822 603.669 545.32 603.872C544.819 604.064 544.232 604.16 543.56 604.16ZM552.693 594.496V592.544H554.933V594.496H552.693ZM552.821 604V596.176H554.821V604H552.821ZM560.483 604.16C559.438 604.16 558.659 603.899 558.147 603.376C557.635 602.853 557.379 602.091 557.379 601.088V597.68H555.875V596.176H557.379V593.84H559.379V596.176H561.747V597.68H559.379V600.976C559.379 601.488 559.491 601.872 559.715 602.128C559.939 602.384 560.302 602.512 560.803 602.512C560.953 602.512 561.107 602.496 561.267 602.464C561.427 602.421 561.593 602.379 561.763 602.336L562.067 603.808C561.875 603.915 561.63 604 561.331 604.064C561.043 604.128 560.761 604.16 560.483 604.16Z"
    fill="#848484" />
  <path
    d="M485.508 454L481.524 442.72H483.636L486.756 451.968H486.116L489.38 442.72H490.9L494.052 451.968H493.492L496.66 442.72H498.66L494.644 454H492.948L489.908 445.328H490.276L487.204 454H485.508ZM502.88 454.16C501.995 454.16 501.232 453.995 500.592 453.664C499.952 453.333 499.456 452.864 499.104 452.256C498.763 451.648 498.592 450.928 498.592 450.096C498.592 449.285 498.758 448.576 499.088 447.968C499.43 447.36 499.894 446.885 500.48 446.544C501.078 446.192 501.755 446.016 502.512 446.016C503.259 446.016 503.899 446.176 504.432 446.496C504.966 446.816 505.376 447.269 505.664 447.856C505.963 448.443 506.112 449.141 506.112 449.952V450.544H500.208V449.392H504.704L504.448 449.632C504.448 448.907 504.288 448.352 503.968 447.968C503.648 447.573 503.19 447.376 502.592 447.376C502.144 447.376 501.76 447.483 501.44 447.696C501.131 447.899 500.891 448.192 500.72 448.576C500.56 448.949 500.48 449.397 500.48 449.92V450.032C500.48 450.619 500.571 451.104 500.752 451.488C500.934 451.872 501.206 452.16 501.568 452.352C501.931 452.544 502.379 452.64 502.912 452.64C503.35 452.64 503.787 452.576 504.224 452.448C504.662 452.309 505.062 452.096 505.424 451.808L505.984 453.152C505.611 453.461 505.142 453.707 504.576 453.888C504.011 454.069 503.446 454.16 502.88 454.16ZM510.416 454.16C509.488 454.16 508.8 453.909 508.352 453.408C507.915 452.896 507.696 452.149 507.696 451.168V442.72H509.696V451.072C509.696 451.381 509.739 451.648 509.824 451.872C509.92 452.085 510.059 452.245 510.24 452.352C510.422 452.459 510.646 452.512 510.912 452.512C511.03 452.512 511.147 452.507 511.264 452.496C511.382 452.485 511.494 452.464 511.6 452.432L511.568 454.016C511.376 454.059 511.184 454.091 510.992 454.112C510.811 454.144 510.619 454.16 510.416 454.16ZM515.526 454.16C514.598 454.16 513.91 453.909 513.462 453.408C513.024 452.896 512.806 452.149 512.806 451.168V442.72H514.806V451.072C514.806 451.381 514.848 451.648 514.934 451.872C515.03 452.085 515.168 452.245 515.35 452.352C515.531 452.459 515.755 452.512 516.022 452.512C516.139 452.512 516.256 452.507 516.374 452.496C516.491 452.485 516.603 452.464 516.71 452.432L516.678 454.016C516.486 454.059 516.294 454.091 516.102 454.112C515.92 454.144 515.728 454.16 515.526 454.16ZM525.236 454.16C524.553 454.16 523.95 453.995 523.428 453.664C522.916 453.333 522.516 452.864 522.228 452.256C521.94 451.637 521.796 450.912 521.796 450.08C521.796 449.237 521.94 448.517 522.228 447.92C522.516 447.312 522.916 446.843 523.428 446.512C523.95 446.181 524.553 446.016 525.236 446.016C525.886 446.016 526.452 446.176 526.932 446.496C527.422 446.816 527.753 447.237 527.924 447.76H527.748V442.72H529.748V454H527.796V452.336H527.94C527.78 452.891 527.454 453.333 526.964 453.664C526.473 453.995 525.897 454.16 525.236 454.16ZM525.796 452.64C526.393 452.64 526.873 452.427 527.236 452C527.598 451.563 527.78 450.923 527.78 450.08C527.78 449.227 527.598 448.592 527.236 448.176C526.873 447.749 526.393 447.536 525.796 447.536C525.198 447.536 524.718 447.749 524.356 448.176C523.993 448.592 523.812 449.227 523.812 450.08C523.812 450.923 523.993 451.563 524.356 452C524.718 452.427 525.198 452.64 525.796 452.64ZM535.389 454.16C534.579 454.16 533.875 453.995 533.277 453.664C532.68 453.333 532.216 452.864 531.885 452.256C531.555 451.637 531.389 450.912 531.389 450.08C531.389 449.248 531.555 448.528 531.885 447.92C532.216 447.312 532.68 446.843 533.277 446.512C533.875 446.181 534.579 446.016 535.389 446.016C536.2 446.016 536.904 446.181 537.501 446.512C538.099 446.843 538.563 447.312 538.893 447.92C539.224 448.528 539.389 449.248 539.389 450.08C539.389 450.912 539.224 451.637 538.893 452.256C538.563 452.864 538.099 453.333 537.501 453.664C536.904 453.995 536.2 454.16 535.389 454.16ZM535.389 452.64C535.987 452.64 536.467 452.427 536.829 452C537.192 451.563 537.373 450.923 537.373 450.08C537.373 449.227 537.192 448.592 536.829 448.176C536.467 447.749 535.987 447.536 535.389 447.536C534.792 447.536 534.312 447.749 533.949 448.176C533.587 448.592 533.405 449.227 533.405 450.08C533.405 450.923 533.587 451.563 533.949 452C534.312 452.427 534.792 452.64 535.389 452.64ZM541.04 454V446.176H542.992V447.744H542.816C543.051 447.179 543.413 446.752 543.904 446.464C544.405 446.165 544.971 446.016 545.6 446.016C546.229 446.016 546.747 446.133 547.152 446.368C547.557 446.603 547.861 446.96 548.064 447.44C548.267 447.909 548.368 448.507 548.368 449.232V454H546.368V449.328C546.368 448.923 546.315 448.592 546.208 448.336C546.112 448.08 545.957 447.893 545.744 447.776C545.541 447.648 545.28 447.584 544.96 447.584C544.576 447.584 544.24 447.669 543.952 447.84C543.664 448 543.44 448.235 543.28 448.544C543.12 448.843 543.04 449.195 543.04 449.6V454H541.04ZM554.255 454.16C553.37 454.16 552.607 453.995 551.967 453.664C551.327 453.333 550.831 452.864 550.479 452.256C550.138 451.648 549.967 450.928 549.967 450.096C549.967 449.285 550.133 448.576 550.463 447.968C550.805 447.36 551.269 446.885 551.855 446.544C552.453 446.192 553.13 446.016 553.887 446.016C554.634 446.016 555.274 446.176 555.807 446.496C556.341 446.816 556.751 447.269 557.039 447.856C557.338 448.443 557.487 449.141 557.487 449.952V450.544H551.583V449.392H556.079L555.823 449.632C555.823 448.907 555.663 448.352 555.343 447.968C555.023 447.573 554.565 447.376 553.967 447.376C553.519 447.376 553.135 447.483 552.815 447.696C552.506 447.899 552.266 448.192 552.095 448.576C551.935 448.949 551.855 449.397 551.855 449.92V450.032C551.855 450.619 551.946 451.104 552.127 451.488C552.309 451.872 552.581 452.16 552.943 452.352C553.306 452.544 553.754 452.64 554.287 452.64C554.725 452.64 555.162 452.576 555.599 452.448C556.037 452.309 556.437 452.096 556.799 451.808L557.359 453.152C556.986 453.461 556.517 453.707 555.951 453.888C555.386 454.069 554.821 454.16 554.255 454.16ZM559.407 450.656L558.783 442.72H561.247L560.623 450.656H559.407ZM558.895 454V451.776H561.135V454H558.895Z"
    fill="#5FDB7D" />
  <path
    d="M510.686 531V521.432H506.814V519.72H516.606V521.432H512.734V531H510.686ZM520.318 531.16C519.433 531.16 518.67 530.995 518.03 530.664C517.39 530.333 516.894 529.864 516.542 529.256C516.201 528.648 516.03 527.928 516.03 527.096C516.03 526.285 516.195 525.576 516.526 524.968C516.867 524.36 517.331 523.885 517.918 523.544C518.515 523.192 519.193 523.016 519.95 523.016C520.697 523.016 521.337 523.176 521.87 523.496C522.403 523.816 522.814 524.269 523.102 524.856C523.401 525.443 523.55 526.141 523.55 526.952V527.544H517.646V526.392H522.142L521.886 526.632C521.886 525.907 521.726 525.352 521.406 524.968C521.086 524.573 520.627 524.376 520.03 524.376C519.582 524.376 519.198 524.483 518.878 524.696C518.569 524.899 518.329 525.192 518.158 525.576C517.998 525.949 517.918 526.397 517.918 526.92V527.032C517.918 527.619 518.009 528.104 518.19 528.488C518.371 528.872 518.643 529.16 519.006 529.352C519.369 529.544 519.817 529.64 520.35 529.64C520.787 529.64 521.225 529.576 521.662 529.448C522.099 529.309 522.499 529.096 522.862 528.808L523.422 530.152C523.049 530.461 522.579 530.707 522.014 530.888C521.449 531.069 520.883 531.16 520.318 531.16ZM525.134 531V523.176H527.086V525.064H526.926C527.075 524.424 527.368 523.939 527.806 523.608C528.243 523.267 528.824 523.069 529.55 523.016L530.158 522.968L530.286 524.664L529.134 524.776C528.483 524.84 527.992 525.043 527.662 525.384C527.331 525.715 527.166 526.184 527.166 526.792V531H525.134ZM531.399 531V523.176H533.351V525.064H533.191C533.341 524.424 533.634 523.939 534.071 523.608C534.509 523.267 535.09 523.069 535.815 523.016L536.423 522.968L536.551 524.664L535.399 524.776C534.749 524.84 534.258 525.043 533.927 525.384C533.597 525.715 533.431 526.184 533.431 526.792V531H531.399ZM537.537 521.496V519.544H539.777V521.496H537.537ZM537.665 531V523.176H539.665V531H537.665ZM542.271 531V524.68H540.767V523.176H542.847L542.271 523.704V523.16C542.271 522.051 542.559 521.213 543.135 520.648C543.722 520.083 544.628 519.763 545.855 519.688L546.559 519.656L546.655 521.128L546.031 521.16C545.604 521.181 545.263 521.261 545.007 521.4C544.751 521.528 544.564 521.709 544.447 521.944C544.33 522.179 544.271 522.477 544.271 522.84V523.368V523.176H549.439V531H547.439V524.68H544.271V531H542.271ZM547.327 521.496V519.544H549.551V521.496H547.327ZM555.14 531.16C554.319 531.16 553.604 530.995 552.996 530.664C552.388 530.323 551.919 529.843 551.588 529.224C551.258 528.605 551.092 527.88 551.092 527.048C551.092 526.216 551.258 525.501 551.588 524.904C551.919 524.296 552.388 523.832 552.996 523.512C553.604 523.181 554.319 523.016 555.14 523.016C555.642 523.016 556.138 523.096 556.628 523.256C557.119 523.416 557.524 523.64 557.844 523.928L557.252 525.32C556.975 525.075 556.66 524.888 556.308 524.76C555.967 524.632 555.636 524.568 555.316 524.568C554.623 524.568 554.084 524.787 553.7 525.224C553.327 525.651 553.14 526.264 553.14 527.064C553.14 527.853 553.327 528.477 553.7 528.936C554.084 529.384 554.623 529.608 555.316 529.608C555.626 529.608 555.956 529.544 556.308 529.416C556.66 529.288 556.975 529.096 557.252 528.84L557.844 530.248C557.524 530.525 557.114 530.749 556.612 530.92C556.122 531.08 555.631 531.16 555.14 531.16ZM559.407 527.656L558.783 519.72H561.247L560.623 527.656H559.407ZM558.895 531V528.776H561.135V531H558.895Z"
    fill="#27DE54" />
  <path
    d="M173.31 233V217.784H167.166V216.08H181.446V217.784H175.302V233H173.31ZM185.725 233.216C184.781 233.216 183.997 233.048 183.373 232.712C182.765 232.36 182.301 231.84 181.981 231.152C181.677 230.464 181.525 229.608 181.525 228.584V221.336H183.469V228.56C183.469 229.248 183.557 229.824 183.733 230.288C183.925 230.736 184.221 231.072 184.621 231.296C185.021 231.504 185.517 231.608 186.109 231.608C186.781 231.608 187.365 231.456 187.861 231.152C188.357 230.848 188.749 230.424 189.037 229.88C189.325 229.336 189.469 228.696 189.469 227.96V221.336H191.413V233H189.517V230.312H189.829C189.509 231.256 188.981 231.976 188.245 232.472C187.525 232.968 186.685 233.216 185.725 233.216ZM200.307 233.216C199.075 233.216 198.011 232.976 197.115 232.496C196.235 232 195.547 231.304 195.051 230.408C194.571 229.512 194.331 228.44 194.331 227.192C194.331 225.976 194.571 224.92 195.051 224.024C195.531 223.112 196.187 222.4 197.019 221.888C197.867 221.376 198.843 221.12 199.947 221.12C201.003 221.12 201.907 221.352 202.659 221.816C203.411 222.28 203.987 222.936 204.387 223.784C204.803 224.632 205.011 225.648 205.011 226.832V227.576H195.819V226.304H203.715L203.331 226.616C203.331 225.336 203.043 224.344 202.467 223.64C201.907 222.92 201.083 222.56 199.995 222.56C199.179 222.56 198.483 222.752 197.907 223.136C197.347 223.504 196.923 224.024 196.635 224.696C196.347 225.352 196.203 226.12 196.203 227V227.144C196.203 228.12 196.355 228.944 196.659 229.616C196.979 230.288 197.451 230.8 198.075 231.152C198.699 231.488 199.443 231.656 200.307 231.656C200.995 231.656 201.659 231.552 202.299 231.344C202.955 231.12 203.571 230.76 204.147 230.264L204.819 231.632C204.291 232.112 203.619 232.496 202.803 232.784C201.987 233.072 201.155 233.216 200.307 233.216Z"
    fill="#888888" />
  <path
    d="M160.875 309L154.947 292.08H157.011L162.219 307.32H161.379L166.683 292.08H168.267L173.499 307.32H172.755L177.987 292.08H179.955L174.027 309H172.275L167.187 294.36H167.715L162.579 309H160.875ZM186.314 309.216C185.082 309.216 184.018 308.976 183.122 308.496C182.242 308 181.554 307.304 181.058 306.408C180.578 305.512 180.338 304.44 180.338 303.192C180.338 301.976 180.578 300.92 181.058 300.024C181.538 299.112 182.194 298.4 183.026 297.888C183.874 297.376 184.85 297.12 185.954 297.12C187.01 297.12 187.914 297.352 188.666 297.816C189.418 298.28 189.994 298.936 190.394 299.784C190.81 300.632 191.018 301.648 191.018 302.832V303.576H181.826V302.304H189.722L189.338 302.616C189.338 301.336 189.05 300.344 188.474 299.64C187.914 298.92 187.09 298.56 186.002 298.56C185.186 298.56 184.49 298.752 183.914 299.136C183.354 299.504 182.93 300.024 182.642 300.696C182.354 301.352 182.21 302.12 182.21 303V303.144C182.21 304.12 182.362 304.944 182.666 305.616C182.986 306.288 183.458 306.8 184.082 307.152C184.706 307.488 185.45 307.656 186.314 307.656C187.002 307.656 187.666 307.552 188.306 307.344C188.962 307.12 189.578 306.76 190.154 306.264L190.826 307.632C190.298 308.112 189.626 308.496 188.81 308.784C187.994 309.072 187.162 309.216 186.314 309.216ZM198.272 309.216C197.232 309.216 196.32 308.968 195.536 308.472C194.768 307.976 194.168 307.28 193.736 306.384C193.32 305.472 193.112 304.4 193.112 303.168C193.112 301.92 193.32 300.848 193.736 299.952C194.168 299.04 194.768 298.344 195.536 297.864C196.32 297.368 197.232 297.12 198.272 297.12C199.328 297.12 200.232 297.384 200.984 297.912C201.736 298.44 202.24 299.152 202.496 300.048H202.232V292.08H204.176V309H202.28V306.216H202.52C202.264 307.128 201.752 307.856 200.984 308.4C200.232 308.944 199.328 309.216 198.272 309.216ZM198.68 307.656C199.784 307.656 200.656 307.272 201.296 306.504C201.952 305.72 202.28 304.608 202.28 303.168C202.28 301.712 201.952 300.6 201.296 299.832C200.656 299.064 199.784 298.68 198.68 298.68C197.592 298.68 196.72 299.064 196.064 299.832C195.408 300.6 195.08 301.712 195.08 303.168C195.08 304.608 195.408 305.72 196.064 306.504C196.72 307.272 197.592 307.656 198.68 307.656Z"
    fill="#888888" />
  <path
    d="M170.709 385V369.784H164.565V368.08H178.845V369.784H172.701V385H170.709ZM180.73 385V368.08H182.674V375.928H182.362C182.698 375 183.242 374.304 183.994 373.84C184.762 373.36 185.642 373.12 186.634 373.12C187.562 373.12 188.33 373.288 188.938 373.624C189.562 373.96 190.026 374.472 190.33 375.16C190.634 375.832 190.786 376.688 190.786 377.728V385H188.842V377.848C188.842 377.128 188.746 376.536 188.554 376.072C188.378 375.608 188.09 375.264 187.69 375.04C187.306 374.816 186.802 374.704 186.178 374.704C185.474 374.704 184.858 374.856 184.33 375.16C183.802 375.464 183.394 375.888 183.106 376.432C182.818 376.976 182.674 377.616 182.674 378.352V385H180.73ZM198.499 385.216C197.555 385.216 196.771 385.048 196.147 384.712C195.539 384.36 195.075 383.84 194.755 383.152C194.451 382.464 194.299 381.608 194.299 380.584V373.336H196.243V380.56C196.243 381.248 196.331 381.824 196.507 382.288C196.699 382.736 196.995 383.072 197.395 383.296C197.795 383.504 198.291 383.608 198.883 383.608C199.555 383.608 200.139 383.456 200.635 383.152C201.131 382.848 201.523 382.424 201.811 381.88C202.099 381.336 202.243 380.696 202.243 379.96V373.336H204.187V385H202.291V382.312H202.603C202.283 383.256 201.755 383.976 201.019 384.472C200.299 384.968 199.459 385.216 198.499 385.216Z"
    fill="#888888" />
  <path
    d="M180.994 461V444.08H191.458V445.736H182.962V451.64H190.978V453.296H182.962V461H180.994ZM193.644 461V449.336H195.54V452.096H195.3C195.572 451.152 196.044 450.44 196.716 449.96C197.388 449.464 198.276 449.176 199.38 449.096L200.076 449.024L200.22 450.704L198.996 450.848C197.908 450.944 197.068 451.296 196.476 451.904C195.9 452.496 195.612 453.312 195.612 454.352V461H193.644ZM202.006 446.432V444.248H204.406V446.432H202.006ZM202.246 461V449.336H204.19V461H202.246Z"
    fill="#888888" />
  <path
    d="M177.677 537.216C176.797 537.216 175.965 537.136 175.181 536.976C174.413 536.816 173.701 536.592 173.045 536.304C172.405 536 171.821 535.632 171.293 535.2L171.989 533.616C172.533 534.016 173.085 534.36 173.645 534.648C174.221 534.92 174.837 535.128 175.493 535.272C176.165 535.4 176.893 535.464 177.677 535.464C179.117 535.464 180.181 535.2 180.869 534.672C181.573 534.128 181.925 533.416 181.925 532.536C181.925 532.072 181.813 531.672 181.589 531.336C181.381 531 181.029 530.712 180.533 530.472C180.053 530.232 179.421 530.032 178.637 529.872L176.141 529.368C174.637 529.048 173.509 528.528 172.757 527.808C172.021 527.072 171.653 526.096 171.653 524.88C171.653 523.872 171.909 522.992 172.421 522.24C172.949 521.488 173.677 520.904 174.605 520.488C175.549 520.072 176.621 519.864 177.821 519.864C178.589 519.864 179.317 519.944 180.005 520.104C180.693 520.264 181.325 520.504 181.901 520.824C182.493 521.128 183.013 521.504 183.461 521.952L182.765 523.488C182.045 522.832 181.285 522.36 180.485 522.072C179.685 521.768 178.789 521.616 177.797 521.616C176.949 521.616 176.213 521.744 175.589 522C174.981 522.256 174.501 522.632 174.149 523.128C173.813 523.608 173.645 524.168 173.645 524.808C173.645 525.576 173.877 526.184 174.341 526.632C174.821 527.08 175.597 527.408 176.669 527.616L179.165 528.144C180.781 528.48 181.973 528.992 182.741 529.68C183.525 530.352 183.917 531.272 183.917 532.44C183.917 533.368 183.661 534.2 183.149 534.936C182.653 535.656 181.933 536.216 180.989 536.616C180.061 537.016 178.957 537.216 177.677 537.216ZM190.379 537.216C189.579 537.216 188.859 537.064 188.219 536.76C187.595 536.44 187.099 536.008 186.731 535.464C186.363 534.92 186.179 534.312 186.179 533.64C186.179 532.776 186.395 532.096 186.827 531.6C187.275 531.104 188.003 530.752 189.011 530.544C190.035 530.336 191.427 530.232 193.187 530.232H194.267V531.504H193.211C192.235 531.504 191.419 531.536 190.763 531.6C190.107 531.664 189.587 531.776 189.203 531.936C188.819 532.096 188.547 532.304 188.387 532.56C188.227 532.816 188.147 533.136 188.147 533.52C188.147 534.176 188.371 534.712 188.819 535.128C189.283 535.544 189.907 535.752 190.691 535.752C191.331 535.752 191.891 535.6 192.371 535.296C192.867 534.992 193.251 534.576 193.523 534.048C193.811 533.52 193.955 532.912 193.955 532.224V529.488C193.955 528.496 193.755 527.784 193.355 527.352C192.955 526.904 192.299 526.68 191.387 526.68C190.683 526.68 190.003 526.784 189.347 526.992C188.691 527.184 188.019 527.504 187.331 527.952L186.659 526.536C187.075 526.248 187.547 526 188.075 525.792C188.603 525.568 189.155 525.4 189.731 525.288C190.307 525.176 190.859 525.12 191.387 525.12C192.395 525.12 193.227 525.288 193.883 525.624C194.539 525.944 195.027 526.44 195.347 527.112C195.667 527.768 195.827 528.616 195.827 529.656V537H194.003V534.288H194.219C194.091 534.896 193.843 535.416 193.475 535.848C193.123 536.28 192.683 536.616 192.155 536.856C191.627 537.096 191.035 537.216 190.379 537.216ZM204.113 537.216C202.737 537.216 201.705 536.848 201.017 536.112C200.329 535.376 199.985 534.328 199.985 532.968V526.848H197.705V525.336H199.985V521.76H201.929V525.336H205.625V526.848H201.929V532.776C201.929 533.688 202.121 534.384 202.505 534.864C202.889 535.328 203.513 535.56 204.377 535.56C204.633 535.56 204.889 535.528 205.145 535.464C205.401 535.4 205.633 535.336 205.841 535.272L206.177 536.76C205.969 536.872 205.665 536.976 205.265 537.072C204.865 537.168 204.481 537.216 204.113 537.216Z"
    fill="#888888" />
  <path
    d="M171.701 613.216C170.821 613.216 169.989 613.136 169.205 612.976C168.437 612.816 167.725 612.592 167.069 612.304C166.429 612 165.845 611.632 165.317 611.2L166.013 609.616C166.557 610.016 167.109 610.36 167.669 610.648C168.245 610.92 168.861 611.128 169.517 611.272C170.189 611.4 170.917 611.464 171.701 611.464C173.141 611.464 174.205 611.2 174.893 610.672C175.597 610.128 175.949 609.416 175.949 608.536C175.949 608.072 175.837 607.672 175.613 607.336C175.405 607 175.053 606.712 174.557 606.472C174.077 606.232 173.445 606.032 172.661 605.872L170.165 605.368C168.661 605.048 167.533 604.528 166.781 603.808C166.045 603.072 165.677 602.096 165.677 600.88C165.677 599.872 165.933 598.992 166.445 598.24C166.973 597.488 167.701 596.904 168.629 596.488C169.573 596.072 170.645 595.864 171.845 595.864C172.613 595.864 173.341 595.944 174.029 596.104C174.717 596.264 175.349 596.504 175.925 596.824C176.517 597.128 177.037 597.504 177.485 597.952L176.789 599.488C176.069 598.832 175.309 598.36 174.509 598.072C173.709 597.768 172.813 597.616 171.821 597.616C170.973 597.616 170.237 597.744 169.613 598C169.005 598.256 168.525 598.632 168.173 599.128C167.837 599.608 167.669 600.168 167.669 600.808C167.669 601.576 167.901 602.184 168.365 602.632C168.845 603.08 169.621 603.408 170.693 603.616L173.189 604.144C174.805 604.48 175.997 604.992 176.765 605.68C177.549 606.352 177.941 607.272 177.941 608.44C177.941 609.368 177.685 610.2 177.173 610.936C176.677 611.656 175.957 612.216 175.013 612.616C174.085 613.016 172.981 613.216 171.701 613.216ZM184.858 613.216C183.914 613.216 183.13 613.048 182.506 612.712C181.898 612.36 181.434 611.84 181.114 611.152C180.81 610.464 180.658 609.608 180.658 608.584V601.336H182.602V608.56C182.602 609.248 182.69 609.824 182.866 610.288C183.058 610.736 183.354 611.072 183.754 611.296C184.154 611.504 184.65 611.608 185.242 611.608C185.914 611.608 186.498 611.456 186.994 611.152C187.49 610.848 187.882 610.424 188.17 609.88C188.458 609.336 188.602 608.696 188.602 607.96V601.336H190.546V613H188.65V610.312H188.962C188.642 611.256 188.114 611.976 187.378 612.472C186.658 612.968 185.818 613.216 184.858 613.216ZM194.183 613V601.336H196.079V603.928H195.815C196.151 603 196.695 602.304 197.447 601.84C198.215 601.36 199.095 601.12 200.087 601.12C201.015 601.12 201.783 601.288 202.391 601.624C203.015 601.944 203.479 602.448 203.783 603.136C204.087 603.824 204.239 604.688 204.239 605.728V613H202.295V605.848C202.295 605.128 202.199 604.536 202.007 604.072C201.831 603.608 201.543 603.264 201.143 603.04C200.759 602.816 200.255 602.704 199.631 602.704C198.927 602.704 198.311 602.856 197.783 603.16C197.255 603.464 196.847 603.888 196.559 604.432C196.271 604.976 196.127 605.616 196.127 606.352V613H194.183Z"
    fill="#888888" />
</svg>
  