<svg width="558" height="695" viewBox="0 0 558 695" fill="none" xmlns="http://www.w3.org/2000/svg">
  <rect width="558" height="695" rx="60" fill="#1B1B1B"/>
  <path d="M52.088 79V62.08H54.056V77.272H62.672V79H52.088ZM68.5273 79.216C67.7273 79.216 67.0073 79.064 66.3673 78.76C65.7433 78.44 65.2473 78.008 64.8793 77.464C64.5113 76.92 64.3273 76.312 64.3273 75.64C64.3273 74.776 64.5433 74.096 64.9753 73.6C65.4233 73.104 66.1513 72.752 67.1593 72.544C68.1833 72.336 69.5753 72.232 71.3353 72.232H72.4153V73.504H71.3593C70.3833 73.504 69.5673 73.536 68.9113 73.6C68.2553 73.664 67.7353 73.776 67.3513 73.936C66.9673 74.096 66.6953 74.304 66.5353 74.56C66.3753 74.816 66.2953 75.136 66.2953 75.52C66.2953 76.176 66.5193 76.712 66.9673 77.128C67.4313 77.544 68.0553 77.752 68.8393 77.752C69.4793 77.752 70.0393 77.6 70.5193 77.296C71.0153 76.992 71.3993 76.576 71.6713 76.048C71.9593 75.52 72.1033 74.912 72.1033 74.224V71.488C72.1033 70.496 71.9033 69.784 71.5033 69.352C71.1033 68.904 70.4473 68.68 69.5353 68.68C68.8313 68.68 68.1513 68.784 67.4953 68.992C66.8393 69.184 66.1673 69.504 65.4793 69.952L64.8073 68.536C65.2233 68.248 65.6953 68 66.2233 67.792C66.7513 67.568 67.3033 67.4 67.8793 67.288C68.4553 67.176 69.0073 67.12 69.5353 67.12C70.5433 67.12 71.3753 67.288 72.0313 67.624C72.6873 67.944 73.1753 68.44 73.4953 69.112C73.8153 69.768 73.9753 70.616 73.9753 71.656V79H72.1513V76.288H72.3673C72.2393 76.896 71.9913 77.416 71.6233 77.848C71.2713 78.28 70.8313 78.616 70.3033 78.856C69.7753 79.096 69.1833 79.216 68.5273 79.216ZM81.5178 79.216C80.9098 79.216 80.3178 79.152 79.7418 79.024C79.1818 78.912 78.6538 78.752 78.1578 78.544C77.6778 78.32 77.2618 78.056 76.9098 77.752L77.5338 76.384C77.9178 76.688 78.3338 76.944 78.7818 77.152C79.2298 77.344 79.6858 77.488 80.1498 77.584C80.6138 77.68 81.0858 77.728 81.5658 77.728C82.4778 77.728 83.1658 77.56 83.6298 77.224C84.0938 76.888 84.3258 76.432 84.3258 75.856C84.3258 75.408 84.1738 75.056 83.8698 74.8C83.5658 74.528 83.0858 74.32 82.4298 74.176L80.2458 73.696C79.2378 73.488 78.4858 73.128 77.9898 72.616C77.5098 72.104 77.2698 71.44 77.2698 70.624C77.2698 69.904 77.4538 69.288 77.8218 68.776C78.2058 68.248 78.7418 67.84 79.4298 67.552C80.1178 67.264 80.9178 67.12 81.8298 67.12C82.3738 67.12 82.8938 67.176 83.3898 67.288C83.8858 67.4 84.3498 67.568 84.7818 67.792C85.2298 68 85.6138 68.264 85.9338 68.584L85.2858 69.952C84.9818 69.664 84.6378 69.424 84.2538 69.232C83.8698 69.024 83.4698 68.872 83.0538 68.776C82.6538 68.664 82.2458 68.608 81.8298 68.608C80.9338 68.608 80.2538 68.784 79.7898 69.136C79.3258 69.488 79.0938 69.952 79.0938 70.528C79.0938 70.976 79.2378 71.344 79.5258 71.632C79.8138 71.92 80.2618 72.128 80.8698 72.256L83.0538 72.712C84.0938 72.936 84.8698 73.296 85.3818 73.792C85.9098 74.272 86.1738 74.928 86.1738 75.76C86.1738 76.464 85.9818 77.08 85.5978 77.608C85.2138 78.12 84.6698 78.52 83.9658 78.808C83.2778 79.08 82.4618 79.216 81.5178 79.216ZM93.6993 79.216C92.3233 79.216 91.2913 78.848 90.6033 78.112C89.9153 77.376 89.5713 76.328 89.5713 74.968V68.848H87.2913V67.336H89.5713V63.76H91.5153V67.336H95.2113V68.848H91.5153V74.776C91.5153 75.688 91.7073 76.384 92.0913 76.864C92.4753 77.328 93.0993 77.56 93.9633 77.56C94.2193 77.56 94.4753 77.528 94.7313 77.464C94.9873 77.4 95.2193 77.336 95.4273 77.272L95.7633 78.76C95.5553 78.872 95.2513 78.976 94.8513 79.072C94.4513 79.168 94.0673 79.216 93.6993 79.216ZM104.438 79L112.742 62.92V63.784H103.358V62.08H114.542V63.568L106.622 79H104.438ZM128.569 79.216C127.529 79.216 126.617 78.968 125.833 78.472C125.065 77.976 124.465 77.28 124.033 76.384C123.617 75.472 123.409 74.4 123.409 73.168C123.409 71.92 123.617 70.848 124.033 69.952C124.465 69.04 125.065 68.344 125.833 67.864C126.617 67.368 127.529 67.12 128.569 67.12C129.625 67.12 130.529 67.384 131.281 67.912C132.033 68.44 132.537 69.152 132.793 70.048H132.529V62.08H134.473V79H132.577V76.216H132.817C132.561 77.128 132.049 77.856 131.281 78.4C130.529 78.944 129.625 79.216 128.569 79.216ZM128.977 77.656C130.081 77.656 130.953 77.272 131.593 76.504C132.249 75.72 132.577 74.608 132.577 73.168C132.577 71.712 132.249 70.6 131.593 69.832C130.953 69.064 130.081 68.68 128.977 68.68C127.889 68.68 127.017 69.064 126.361 69.832C125.705 70.6 125.377 71.712 125.377 73.168C125.377 74.608 125.705 75.72 126.361 76.504C127.017 77.272 127.889 77.656 128.977 77.656ZM141.793 79.216C140.993 79.216 140.273 79.064 139.633 78.76C139.009 78.44 138.513 78.008 138.145 77.464C137.777 76.92 137.593 76.312 137.593 75.64C137.593 74.776 137.809 74.096 138.241 73.6C138.689 73.104 139.417 72.752 140.425 72.544C141.449 72.336 142.841 72.232 144.601 72.232H145.681V73.504H144.625C143.649 73.504 142.833 73.536 142.177 73.6C141.521 73.664 141.001 73.776 140.617 73.936C140.233 74.096 139.961 74.304 139.801 74.56C139.641 74.816 139.561 75.136 139.561 75.52C139.561 76.176 139.785 76.712 140.233 77.128C140.697 77.544 141.321 77.752 142.105 77.752C142.745 77.752 143.305 77.6 143.785 77.296C144.281 76.992 144.665 76.576 144.937 76.048C145.225 75.52 145.369 74.912 145.369 74.224V71.488C145.369 70.496 145.169 69.784 144.769 69.352C144.369 68.904 143.713 68.68 142.801 68.68C142.097 68.68 141.417 68.784 140.761 68.992C140.105 69.184 139.433 69.504 138.745 69.952L138.073 68.536C138.489 68.248 138.961 68 139.489 67.792C140.017 67.568 140.569 67.4 141.145 67.288C141.721 67.176 142.273 67.12 142.801 67.12C143.809 67.12 144.641 67.288 145.297 67.624C145.953 67.944 146.441 68.44 146.761 69.112C147.081 69.768 147.241 70.616 147.241 71.656V79H145.417V76.288H145.633C145.505 76.896 145.257 77.416 144.889 77.848C144.537 78.28 144.097 78.616 143.569 78.856C143.041 79.096 142.449 79.216 141.793 79.216ZM152.074 83.32L154.258 78.4V79.24L149.146 67.336H151.258L155.434 77.56H154.786L159.01 67.336H161.05L154.114 83.32H152.074ZM166.76 79.216C166.152 79.216 165.56 79.152 164.984 79.024C164.424 78.912 163.896 78.752 163.4 78.544C162.92 78.32 162.504 78.056 162.152 77.752L162.776 76.384C163.16 76.688 163.576 76.944 164.024 77.152C164.472 77.344 164.928 77.488 165.392 77.584C165.856 77.68 166.328 77.728 166.808 77.728C167.72 77.728 168.408 77.56 168.872 77.224C169.336 76.888 169.568 76.432 169.568 75.856C169.568 75.408 169.416 75.056 169.112 74.8C168.808 74.528 168.328 74.32 167.672 74.176L165.488 73.696C164.48 73.488 163.728 73.128 163.232 72.616C162.752 72.104 162.512 71.44 162.512 70.624C162.512 69.904 162.696 69.288 163.064 68.776C163.448 68.248 163.984 67.84 164.672 67.552C165.36 67.264 166.16 67.12 167.072 67.12C167.616 67.12 168.136 67.176 168.632 67.288C169.128 67.4 169.592 67.568 170.024 67.792C170.472 68 170.856 68.264 171.176 68.584L170.528 69.952C170.224 69.664 169.88 69.424 169.496 69.232C169.112 69.024 168.712 68.872 168.296 68.776C167.896 68.664 167.488 68.608 167.072 68.608C166.176 68.608 165.496 68.784 165.032 69.136C164.568 69.488 164.336 69.952 164.336 70.528C164.336 70.976 164.48 71.344 164.768 71.632C165.056 71.92 165.504 72.128 166.112 72.256L168.296 72.712C169.336 72.936 170.112 73.296 170.624 73.792C171.152 74.272 171.416 74.928 171.416 75.76C171.416 76.464 171.224 77.08 170.84 77.608C170.456 78.12 169.912 78.52 169.208 78.808C168.52 79.08 167.704 79.216 166.76 79.216Z" fill="#767676"/>
  <rect x="476" y="118" width="63" height="362.431" rx="8" transform="rotate(90 476 118)" fill="#2C2C2C"/>
  <rect x="476" y="193" width="64" height="362.431" rx="8" transform="rotate(90 476 193)" fill="#2C2C2C"/>
  <rect x="476" y="268" width="64" height="362.431" rx="8" transform="rotate(90 476 268)" fill="#2C2C2C"/>
  <rect x="267.047" y="268" width="64" height="153.478" rx="8" transform="rotate(90 267.047 268)" fill="#3A7549"/>
  <rect x="476" y="568" width="63" height="362.431" rx="8" transform="rotate(90 476 568)" fill="#2C2C2C"/>
  <rect x="231.914" y="568" width="63" height="118.345" rx="8" transform="rotate(90 231.914 568)" fill="#3D6D49"/>
  <rect x="476" y="345" width="61" height="362.431" rx="8" transform="rotate(90 476 345)" fill="#2C2C2C"/>
  <rect x="166" y="345" width="61" height="52" rx="8" transform="rotate(90 166 345)" fill="#59665C"/>
  <rect x="476" y="417" width="64" height="362.431" rx="8" transform="rotate(90 476 417)" fill="#2C2C2C"/>
  <rect x="322.521" y="417" width="64" height="208.953" rx="8" transform="rotate(90 322.521 417)" fill="#5FDB7D"/>
  <rect x="476" y="494" width="65" height="362.431" rx="8" transform="rotate(90 476 494)" fill="#2C2C2C"/>
  <rect x="361.354" y="494" width="65" height="247.784" rx="8" transform="rotate(90 361.354 494)" fill="#27DE54"/>
  <path d="M52.6282 157V140.08H54.2842L61.1482 152.968H60.4282L67.2442 140.08H68.9002V157H67.0762V142.72H67.6522L61.4362 154.384H60.1402L53.8522 142.696H54.4282V157H52.6282ZM77.6954 157.216C76.5594 157.216 75.5754 156.968 74.7434 156.472C73.9114 155.976 73.2634 155.28 72.7994 154.384C72.3514 153.472 72.1274 152.4 72.1274 151.168C72.1274 149.936 72.3514 148.872 72.7994 147.976C73.2634 147.064 73.9114 146.36 74.7434 145.864C75.5754 145.368 76.5594 145.12 77.6954 145.12C78.8314 145.12 79.8154 145.368 80.6474 145.864C81.4794 146.36 82.1194 147.064 82.5674 147.976C83.0314 148.872 83.2634 149.936 83.2634 151.168C83.2634 152.4 83.0314 153.472 82.5674 154.384C82.1194 155.28 81.4794 155.976 80.6474 156.472C79.8154 156.968 78.8314 157.216 77.6954 157.216ZM77.6954 155.656C78.7994 155.656 79.6714 155.272 80.3114 154.504C80.9674 153.72 81.2954 152.6 81.2954 151.144C81.2954 149.704 80.9674 148.6 80.3114 147.832C79.6714 147.064 78.7994 146.68 77.6954 146.68C76.6074 146.68 75.7354 147.064 75.0794 147.832C74.4234 148.6 74.0954 149.704 74.0954 151.144C74.0954 152.6 74.4234 153.72 75.0794 154.504C75.7354 155.272 76.6074 155.656 77.6954 155.656ZM86.1834 157V145.336H88.0794V147.928H87.8154C88.1514 147 88.6954 146.304 89.4474 145.84C90.2154 145.36 91.0954 145.12 92.0874 145.12C93.0154 145.12 93.7834 145.288 94.3914 145.624C95.0154 145.944 95.4794 146.448 95.7834 147.136C96.0874 147.824 96.2394 148.688 96.2394 149.728V157H94.2954V149.848C94.2954 149.128 94.1994 148.536 94.0074 148.072C93.8314 147.608 93.5434 147.264 93.1434 147.04C92.7594 146.816 92.2554 146.704 91.6314 146.704C90.9274 146.704 90.3114 146.856 89.7834 147.16C89.2554 147.464 88.8474 147.888 88.5594 148.432C88.2714 148.976 88.1274 149.616 88.1274 150.352V157H86.1834Z" fill="#888888"/>
  <path opacity="0.4" d="M334.548 154V142.72H335.572L342.756 152.304H342.372V142.72H343.588V154H342.596L335.412 144.416H335.78V154H334.548ZM349.448 154.144C348.691 154.144 348.035 153.979 347.48 153.648C346.925 153.317 346.493 152.853 346.184 152.256C345.885 151.648 345.736 150.933 345.736 150.112C345.736 149.291 345.885 148.581 346.184 147.984C346.493 147.376 346.925 146.907 347.48 146.576C348.035 146.245 348.691 146.08 349.448 146.08C350.205 146.08 350.861 146.245 351.416 146.576C351.971 146.907 352.397 147.376 352.696 147.984C353.005 148.581 353.16 149.291 353.16 150.112C353.16 150.933 353.005 151.648 352.696 152.256C352.397 152.853 351.971 153.317 351.416 153.648C350.861 153.979 350.205 154.144 349.448 154.144ZM349.448 153.104C350.184 153.104 350.765 152.848 351.192 152.336C351.629 151.813 351.848 151.067 351.848 150.096C351.848 149.136 351.629 148.4 351.192 147.888C350.765 147.376 350.184 147.12 349.448 147.12C348.723 147.12 348.141 147.376 347.704 147.888C347.267 148.4 347.048 149.136 347.048 150.096C347.048 151.067 347.267 151.813 347.704 152.336C348.141 152.848 348.723 153.104 349.448 153.104ZM362.336 154.144C361.419 154.144 360.731 153.899 360.272 153.408C359.813 152.917 359.584 152.219 359.584 151.312V147.232H358.064V146.224H359.584V143.84H360.88V146.224H363.344V147.232H360.88V151.184C360.88 151.792 361.008 152.256 361.264 152.576C361.52 152.885 361.936 153.04 362.512 153.04C362.683 153.04 362.853 153.019 363.024 152.976C363.195 152.933 363.349 152.891 363.488 152.848L363.712 153.84C363.573 153.915 363.371 153.984 363.104 154.048C362.837 154.112 362.581 154.144 362.336 154.144ZM364.65 144.288V142.832H366.25V144.288H364.65ZM364.81 154V146.224H366.106V154H364.81ZM368.561 154V146.224H369.825V147.952H369.649C369.777 147.557 369.963 147.221 370.209 146.944C370.465 146.656 370.763 146.443 371.105 146.304C371.457 146.155 371.841 146.08 372.257 146.08C372.918 146.08 373.451 146.24 373.857 146.56C374.273 146.869 374.55 147.355 374.689 148.016H374.449C374.641 147.419 374.982 146.949 375.473 146.608C375.974 146.256 376.555 146.08 377.217 146.08C377.803 146.08 378.283 146.192 378.657 146.416C379.041 146.64 379.329 146.981 379.521 147.44C379.713 147.888 379.809 148.459 379.809 149.152V154H378.513V149.216C378.513 148.501 378.39 147.979 378.145 147.648C377.899 147.307 377.483 147.136 376.897 147.136C376.481 147.136 376.113 147.237 375.793 147.44C375.483 147.643 375.243 147.931 375.073 148.304C374.913 148.667 374.833 149.099 374.833 149.6V154H373.537V149.216C373.537 148.501 373.409 147.979 373.153 147.648C372.907 147.307 372.497 147.136 371.921 147.136C371.494 147.136 371.126 147.237 370.817 147.44C370.507 147.643 370.267 147.931 370.097 148.304C369.937 148.667 369.857 149.099 369.857 149.6V154H368.561ZM385.736 154.144C384.914 154.144 384.205 153.984 383.608 153.664C383.021 153.333 382.562 152.869 382.232 152.272C381.912 151.675 381.752 150.96 381.752 150.128C381.752 149.317 381.912 148.613 382.232 148.016C382.552 147.408 382.989 146.933 383.544 146.592C384.109 146.251 384.76 146.08 385.496 146.08C386.2 146.08 386.802 146.235 387.304 146.544C387.805 146.853 388.189 147.291 388.456 147.856C388.733 148.421 388.872 149.099 388.872 149.888V150.384H382.744V149.536H388.008L387.752 149.744C387.752 148.891 387.56 148.229 387.176 147.76C386.802 147.28 386.253 147.04 385.528 147.04C384.984 147.04 384.52 147.168 384.136 147.424C383.762 147.669 383.48 148.016 383.288 148.464C383.096 148.901 383 149.413 383 150V150.096C383 150.747 383.101 151.296 383.304 151.744C383.517 152.192 383.832 152.533 384.248 152.768C384.664 152.992 385.16 153.104 385.736 153.104C386.194 153.104 386.637 153.035 387.064 152.896C387.501 152.747 387.912 152.507 388.296 152.176L388.744 153.088C388.392 153.408 387.944 153.664 387.4 153.856C386.856 154.048 386.301 154.144 385.736 154.144ZM394.697 144.288V142.832H396.297V144.288H394.697ZM394.857 154V146.224H396.153V154H394.857ZM398.575 154V146.224H399.839V147.952H399.663C399.887 147.333 400.25 146.869 400.751 146.56C401.263 146.24 401.85 146.08 402.511 146.08C403.13 146.08 403.642 146.192 404.047 146.416C404.463 146.629 404.773 146.965 404.975 147.424C405.178 147.883 405.279 148.459 405.279 149.152V154H403.983V149.232C403.983 148.752 403.919 148.357 403.791 148.048C403.674 147.739 403.482 147.509 403.215 147.36C402.959 147.211 402.623 147.136 402.207 147.136C401.738 147.136 401.327 147.237 400.975 147.44C400.623 147.643 400.351 147.925 400.159 148.288C399.967 148.651 399.871 149.077 399.871 149.568V154H398.575ZM409.879 154L406.535 146.224H407.943L410.727 153.04H410.295L413.127 146.224H414.455L411.095 154H409.879ZM419.22 154.144C418.399 154.144 417.689 153.984 417.092 153.664C416.505 153.333 416.047 152.869 415.716 152.272C415.396 151.675 415.236 150.96 415.236 150.128C415.236 149.317 415.396 148.613 415.716 148.016C416.036 147.408 416.473 146.933 417.028 146.592C417.593 146.251 418.244 146.08 418.98 146.08C419.684 146.08 420.287 146.235 420.788 146.544C421.289 146.853 421.673 147.291 421.94 147.856C422.217 148.421 422.356 149.099 422.356 149.888V150.384H416.228V149.536H421.492L421.236 149.744C421.236 148.891 421.044 148.229 420.66 147.76C420.287 147.28 419.737 147.04 419.012 147.04C418.468 147.04 418.004 147.168 417.62 147.424C417.247 147.669 416.964 148.016 416.772 148.464C416.58 148.901 416.484 149.413 416.484 150V150.096C416.484 150.747 416.585 151.296 416.788 151.744C417.001 152.192 417.316 152.533 417.732 152.768C418.148 152.992 418.644 153.104 419.22 153.104C419.679 153.104 420.121 153.035 420.548 152.896C420.985 152.747 421.396 152.507 421.78 152.176L422.228 153.088C421.876 153.408 421.428 153.664 420.884 153.856C420.34 154.048 419.785 154.144 419.22 154.144ZM426.856 154.144C426.45 154.144 426.056 154.101 425.672 154.016C425.298 153.941 424.946 153.835 424.616 153.696C424.296 153.547 424.018 153.371 423.784 153.168L424.2 152.256C424.456 152.459 424.733 152.629 425.032 152.768C425.33 152.896 425.634 152.992 425.944 153.056C426.253 153.12 426.568 153.152 426.888 153.152C427.496 153.152 427.954 153.04 428.264 152.816C428.573 152.592 428.728 152.288 428.728 151.904C428.728 151.605 428.626 151.371 428.424 151.2C428.221 151.019 427.901 150.88 427.464 150.784L426.008 150.464C425.336 150.325 424.834 150.085 424.504 149.744C424.184 149.403 424.024 148.96 424.024 148.416C424.024 147.936 424.146 147.525 424.392 147.184C424.648 146.832 425.005 146.56 425.464 146.368C425.922 146.176 426.456 146.08 427.064 146.08C427.426 146.08 427.773 146.117 428.104 146.192C428.434 146.267 428.744 146.379 429.032 146.528C429.33 146.667 429.586 146.843 429.8 147.056L429.368 147.968C429.165 147.776 428.936 147.616 428.68 147.488C428.424 147.349 428.157 147.248 427.88 147.184C427.613 147.109 427.341 147.072 427.064 147.072C426.466 147.072 426.013 147.189 425.704 147.424C425.394 147.659 425.24 147.968 425.24 148.352C425.24 148.651 425.336 148.896 425.528 149.088C425.72 149.28 426.018 149.419 426.424 149.504L427.88 149.808C428.573 149.957 429.09 150.197 429.432 150.528C429.784 150.848 429.96 151.285 429.96 151.84C429.96 152.309 429.832 152.72 429.576 153.072C429.32 153.413 428.957 153.68 428.488 153.872C428.029 154.053 427.485 154.144 426.856 154.144ZM434.977 154.144C434.059 154.144 433.371 153.899 432.913 153.408C432.454 152.917 432.225 152.219 432.225 151.312V147.232H430.705V146.224H432.225V143.84H433.521V146.224H435.985V147.232H433.521V151.184C433.521 151.792 433.649 152.256 433.905 152.576C434.161 152.885 434.577 153.04 435.153 153.04C435.323 153.04 435.494 153.019 435.665 152.976C435.835 152.933 435.99 152.891 436.129 152.848L436.353 153.84C436.214 153.915 436.011 153.984 435.745 154.048C435.478 154.112 435.222 154.144 434.977 154.144ZM440.876 154.144C440.055 154.144 439.346 153.984 438.748 153.664C438.162 153.333 437.703 152.869 437.372 152.272C437.052 151.675 436.892 150.96 436.892 150.128C436.892 149.317 437.052 148.613 437.372 148.016C437.692 147.408 438.13 146.933 438.684 146.592C439.25 146.251 439.9 146.08 440.636 146.08C441.34 146.08 441.943 146.235 442.444 146.544C442.946 146.853 443.33 147.291 443.596 147.856C443.874 148.421 444.012 149.099 444.012 149.888V150.384H437.884V149.536H443.148L442.892 149.744C442.892 148.891 442.7 148.229 442.316 147.76C441.943 147.28 441.394 147.04 440.668 147.04C440.124 147.04 439.66 147.168 439.276 147.424C438.903 147.669 438.62 148.016 438.428 148.464C438.236 148.901 438.14 149.413 438.14 150V150.096C438.14 150.747 438.242 151.296 438.444 151.744C438.658 152.192 438.972 152.533 439.388 152.768C439.804 152.992 440.3 153.104 440.876 153.104C441.335 153.104 441.778 153.035 442.204 152.896C442.642 152.747 443.052 152.507 443.436 152.176L443.884 153.088C443.532 153.408 443.084 153.664 442.54 153.856C441.996 154.048 441.442 154.144 440.876 154.144ZM448.848 154.144C448.155 154.144 447.547 153.979 447.024 153.648C446.512 153.317 446.112 152.853 445.824 152.256C445.547 151.648 445.408 150.933 445.408 150.112C445.408 149.28 445.547 148.565 445.824 147.968C446.112 147.36 446.512 146.896 447.024 146.576C447.547 146.245 448.155 146.08 448.848 146.08C449.552 146.08 450.155 146.256 450.656 146.608C451.157 146.96 451.493 147.435 451.664 148.032H451.488V142.72H452.784V154H451.52V152.144H451.68C451.509 152.752 451.168 153.237 450.656 153.6C450.155 153.963 449.552 154.144 448.848 154.144ZM449.12 153.104C449.856 153.104 450.437 152.848 450.864 152.336C451.301 151.813 451.52 151.072 451.52 150.112C451.52 149.141 451.301 148.4 450.864 147.888C450.437 147.376 449.856 147.12 449.12 147.12C448.395 147.12 447.813 147.376 447.376 147.888C446.939 148.4 446.72 149.141 446.72 150.112C446.72 151.072 446.939 151.813 447.376 152.336C447.813 152.848 448.395 153.104 449.12 153.104Z" fill="#A8A8A8"/>
  <path opacity="0.4" d="M334.548 230V218.72H335.572L342.756 228.304H342.372V218.72H343.588V230H342.596L335.412 220.416H335.78V230H334.548ZM349.448 230.144C348.691 230.144 348.035 229.979 347.48 229.648C346.925 229.317 346.493 228.853 346.184 228.256C345.885 227.648 345.736 226.933 345.736 226.112C345.736 225.291 345.885 224.581 346.184 223.984C346.493 223.376 346.925 222.907 347.48 222.576C348.035 222.245 348.691 222.08 349.448 222.08C350.205 222.08 350.861 222.245 351.416 222.576C351.971 222.907 352.397 223.376 352.696 223.984C353.005 224.581 353.16 225.291 353.16 226.112C353.16 226.933 353.005 227.648 352.696 228.256C352.397 228.853 351.971 229.317 351.416 229.648C350.861 229.979 350.205 230.144 349.448 230.144ZM349.448 229.104C350.184 229.104 350.765 228.848 351.192 228.336C351.629 227.813 351.848 227.067 351.848 226.096C351.848 225.136 351.629 224.4 351.192 223.888C350.765 223.376 350.184 223.12 349.448 223.12C348.723 223.12 348.141 223.376 347.704 223.888C347.267 224.4 347.048 225.136 347.048 226.096C347.048 227.067 347.267 227.813 347.704 228.336C348.141 228.848 348.723 229.104 349.448 229.104ZM362.336 230.144C361.419 230.144 360.731 229.899 360.272 229.408C359.813 228.917 359.584 228.219 359.584 227.312V223.232H358.064V222.224H359.584V219.84H360.88V222.224H363.344V223.232H360.88V227.184C360.88 227.792 361.008 228.256 361.264 228.576C361.52 228.885 361.936 229.04 362.512 229.04C362.683 229.04 362.853 229.019 363.024 228.976C363.195 228.933 363.349 228.891 363.488 228.848L363.712 229.84C363.573 229.915 363.371 229.984 363.104 230.048C362.837 230.112 362.581 230.144 362.336 230.144ZM364.65 220.288V218.832H366.25V220.288H364.65ZM364.81 230V222.224H366.106V230H364.81ZM368.561 230V222.224H369.825V223.952H369.649C369.777 223.557 369.963 223.221 370.209 222.944C370.465 222.656 370.763 222.443 371.105 222.304C371.457 222.155 371.841 222.08 372.257 222.08C372.918 222.08 373.451 222.24 373.857 222.56C374.273 222.869 374.55 223.355 374.689 224.016H374.449C374.641 223.419 374.982 222.949 375.473 222.608C375.974 222.256 376.555 222.08 377.217 222.08C377.803 222.08 378.283 222.192 378.657 222.416C379.041 222.64 379.329 222.981 379.521 223.44C379.713 223.888 379.809 224.459 379.809 225.152V230H378.513V225.216C378.513 224.501 378.39 223.979 378.145 223.648C377.899 223.307 377.483 223.136 376.897 223.136C376.481 223.136 376.113 223.237 375.793 223.44C375.483 223.643 375.243 223.931 375.073 224.304C374.913 224.667 374.833 225.099 374.833 225.6V230H373.537V225.216C373.537 224.501 373.409 223.979 373.153 223.648C372.907 223.307 372.497 223.136 371.921 223.136C371.494 223.136 371.126 223.237 370.817 223.44C370.507 223.643 370.267 223.931 370.097 224.304C369.937 224.667 369.857 225.099 369.857 225.6V230H368.561ZM385.736 230.144C384.914 230.144 384.205 229.984 383.608 229.664C383.021 229.333 382.562 228.869 382.232 228.272C381.912 227.675 381.752 226.96 381.752 226.128C381.752 225.317 381.912 224.613 382.232 224.016C382.552 223.408 382.989 222.933 383.544 222.592C384.109 222.251 384.76 222.08 385.496 222.08C386.2 222.08 386.802 222.235 387.304 222.544C387.805 222.853 388.189 223.291 388.456 223.856C388.733 224.421 388.872 225.099 388.872 225.888V226.384H382.744V225.536H388.008L387.752 225.744C387.752 224.891 387.56 224.229 387.176 223.76C386.802 223.28 386.253 223.04 385.528 223.04C384.984 223.04 384.52 223.168 384.136 223.424C383.762 223.669 383.48 224.016 383.288 224.464C383.096 224.901 383 225.413 383 226V226.096C383 226.747 383.101 227.296 383.304 227.744C383.517 228.192 383.832 228.533 384.248 228.768C384.664 228.992 385.16 229.104 385.736 229.104C386.194 229.104 386.637 229.035 387.064 228.896C387.501 228.747 387.912 228.507 388.296 228.176L388.744 229.088C388.392 229.408 387.944 229.664 387.4 229.856C386.856 230.048 386.301 230.144 385.736 230.144ZM394.697 220.288V218.832H396.297V220.288H394.697ZM394.857 230V222.224H396.153V230H394.857ZM398.575 230V222.224H399.839V223.952H399.663C399.887 223.333 400.25 222.869 400.751 222.56C401.263 222.24 401.85 222.08 402.511 222.08C403.13 222.08 403.642 222.192 404.047 222.416C404.463 222.629 404.773 222.965 404.975 223.424C405.178 223.883 405.279 224.459 405.279 225.152V230H403.983V225.232C403.983 224.752 403.919 224.357 403.791 224.048C403.674 223.739 403.482 223.509 403.215 223.36C402.959 223.211 402.623 223.136 402.207 223.136C401.738 223.136 401.327 223.237 400.975 223.44C400.623 223.643 400.351 223.925 400.159 224.288C399.967 224.651 399.871 225.077 399.871 225.568V230H398.575ZM409.879 230L406.535 222.224H407.943L410.727 229.04H410.295L413.127 222.224H414.455L411.095 230H409.879ZM419.22 230.144C418.399 230.144 417.689 229.984 417.092 229.664C416.505 229.333 416.047 228.869 415.716 228.272C415.396 227.675 415.236 226.96 415.236 226.128C415.236 225.317 415.396 224.613 415.716 224.016C416.036 223.408 416.473 222.933 417.028 222.592C417.593 222.251 418.244 222.08 418.98 222.08C419.684 222.08 420.287 222.235 420.788 222.544C421.289 222.853 421.673 223.291 421.94 223.856C422.217 224.421 422.356 225.099 422.356 225.888V226.384H416.228V225.536H421.492L421.236 225.744C421.236 224.891 421.044 224.229 420.66 223.76C420.287 223.28 419.737 223.04 419.012 223.04C418.468 223.04 418.004 223.168 417.62 223.424C417.247 223.669 416.964 224.016 416.772 224.464C416.58 224.901 416.484 225.413 416.484 226V226.096C416.484 226.747 416.585 227.296 416.788 227.744C417.001 228.192 417.316 228.533 417.732 228.768C418.148 228.992 418.644 229.104 419.22 229.104C419.679 229.104 420.121 229.035 420.548 228.896C420.985 228.747 421.396 228.507 421.78 228.176L422.228 229.088C421.876 229.408 421.428 229.664 420.884 229.856C420.34 230.048 419.785 230.144 419.22 230.144ZM426.856 230.144C426.45 230.144 426.056 230.101 425.672 230.016C425.298 229.941 424.946 229.835 424.616 229.696C424.296 229.547 424.018 229.371 423.784 229.168L424.2 228.256C424.456 228.459 424.733 228.629 425.032 228.768C425.33 228.896 425.634 228.992 425.944 229.056C426.253 229.12 426.568 229.152 426.888 229.152C427.496 229.152 427.954 229.04 428.264 228.816C428.573 228.592 428.728 228.288 428.728 227.904C428.728 227.605 428.626 227.371 428.424 227.2C428.221 227.019 427.901 226.88 427.464 226.784L426.008 226.464C425.336 226.325 424.834 226.085 424.504 225.744C424.184 225.403 424.024 224.96 424.024 224.416C424.024 223.936 424.146 223.525 424.392 223.184C424.648 222.832 425.005 222.56 425.464 222.368C425.922 222.176 426.456 222.08 427.064 222.08C427.426 222.08 427.773 222.117 428.104 222.192C428.434 222.267 428.744 222.379 429.032 222.528C429.33 222.667 429.586 222.843 429.8 223.056L429.368 223.968C429.165 223.776 428.936 223.616 428.68 223.488C428.424 223.349 428.157 223.248 427.88 223.184C427.613 223.109 427.341 223.072 427.064 223.072C426.466 223.072 426.013 223.189 425.704 223.424C425.394 223.659 425.24 223.968 425.24 224.352C425.24 224.651 425.336 224.896 425.528 225.088C425.72 225.28 426.018 225.419 426.424 225.504L427.88 225.808C428.573 225.957 429.09 226.197 429.432 226.528C429.784 226.848 429.96 227.285 429.96 227.84C429.96 228.309 429.832 228.72 429.576 229.072C429.32 229.413 428.957 229.68 428.488 229.872C428.029 230.053 427.485 230.144 426.856 230.144ZM434.977 230.144C434.059 230.144 433.371 229.899 432.913 229.408C432.454 228.917 432.225 228.219 432.225 227.312V223.232H430.705V222.224H432.225V219.84H433.521V222.224H435.985V223.232H433.521V227.184C433.521 227.792 433.649 228.256 433.905 228.576C434.161 228.885 434.577 229.04 435.153 229.04C435.323 229.04 435.494 229.019 435.665 228.976C435.835 228.933 435.99 228.891 436.129 228.848L436.353 229.84C436.214 229.915 436.011 229.984 435.745 230.048C435.478 230.112 435.222 230.144 434.977 230.144ZM440.876 230.144C440.055 230.144 439.346 229.984 438.748 229.664C438.162 229.333 437.703 228.869 437.372 228.272C437.052 227.675 436.892 226.96 436.892 226.128C436.892 225.317 437.052 224.613 437.372 224.016C437.692 223.408 438.13 222.933 438.684 222.592C439.25 222.251 439.9 222.08 440.636 222.08C441.34 222.08 441.943 222.235 442.444 222.544C442.946 222.853 443.33 223.291 443.596 223.856C443.874 224.421 444.012 225.099 444.012 225.888V226.384H437.884V225.536H443.148L442.892 225.744C442.892 224.891 442.7 224.229 442.316 223.76C441.943 223.28 441.394 223.04 440.668 223.04C440.124 223.04 439.66 223.168 439.276 223.424C438.903 223.669 438.62 224.016 438.428 224.464C438.236 224.901 438.14 225.413 438.14 226V226.096C438.14 226.747 438.242 227.296 438.444 227.744C438.658 228.192 438.972 228.533 439.388 228.768C439.804 228.992 440.3 229.104 440.876 229.104C441.335 229.104 441.778 229.035 442.204 228.896C442.642 228.747 443.052 228.507 443.436 228.176L443.884 229.088C443.532 229.408 443.084 229.664 442.54 229.856C441.996 230.048 441.442 230.144 440.876 230.144ZM448.848 230.144C448.155 230.144 447.547 229.979 447.024 229.648C446.512 229.317 446.112 228.853 445.824 228.256C445.547 227.648 445.408 226.933 445.408 226.112C445.408 225.28 445.547 224.565 445.824 223.968C446.112 223.36 446.512 222.896 447.024 222.576C447.547 222.245 448.155 222.08 448.848 222.08C449.552 222.08 450.155 222.256 450.656 222.608C451.157 222.96 451.493 223.435 451.664 224.032H451.488V218.72H452.784V230H451.52V228.144H451.68C451.509 228.752 451.168 229.237 450.656 229.6C450.155 229.963 449.552 230.144 448.848 230.144ZM449.12 229.104C449.856 229.104 450.437 228.848 450.864 228.336C451.301 227.813 451.52 227.072 451.52 226.112C451.52 225.141 451.301 224.4 450.864 223.888C450.437 223.376 449.856 223.12 449.12 223.12C448.395 223.12 447.813 223.376 447.376 223.888C446.939 224.4 446.72 225.141 446.72 226.112C446.72 227.072 446.939 227.813 447.376 228.336C447.813 228.848 448.395 229.104 449.12 229.104Z" fill="#A8A8A8"/>
  <path d="M373.047 306.16C371.799 306.16 370.743 305.925 369.879 305.456C369.025 304.987 368.375 304.32 367.927 303.456C367.479 302.592 367.255 301.568 367.255 300.384C367.255 299.189 367.484 298.16 367.943 297.296C368.401 296.421 369.063 295.749 369.927 295.28C370.791 294.8 371.825 294.56 373.031 294.56C373.564 294.56 374.071 294.613 374.551 294.72C375.041 294.816 375.495 294.96 375.911 295.152C376.327 295.344 376.684 295.579 376.983 295.856L376.295 297.456C375.793 297.061 375.281 296.779 374.759 296.608C374.236 296.437 373.66 296.352 373.031 296.352C371.836 296.352 370.929 296.699 370.311 297.392C369.703 298.085 369.399 299.083 369.399 300.384C369.399 301.696 369.713 302.693 370.343 303.376C370.972 304.059 371.905 304.4 373.143 304.4C373.569 304.4 374.001 304.357 374.439 304.272C374.876 304.187 375.303 304.069 375.719 303.92L375.319 304.832V301.424H372.727V299.904H377.031V305.328C376.689 305.499 376.295 305.648 375.847 305.776C375.409 305.893 374.951 305.984 374.471 306.048C373.991 306.123 373.516 306.16 373.047 306.16ZM379.212 306V298.176H381.164V300.064H381.004C381.153 299.424 381.447 298.939 381.884 298.608C382.321 298.267 382.903 298.069 383.628 298.016L384.236 297.968L384.364 299.664L383.212 299.776C382.561 299.84 382.071 300.043 381.74 300.384C381.409 300.715 381.244 301.184 381.244 301.792V306H379.212ZM389.209 306.16C388.323 306.16 387.561 305.995 386.921 305.664C386.281 305.333 385.785 304.864 385.433 304.256C385.091 303.648 384.921 302.928 384.921 302.096C384.921 301.285 385.086 300.576 385.417 299.968C385.758 299.36 386.222 298.885 386.809 298.544C387.406 298.192 388.083 298.016 388.841 298.016C389.587 298.016 390.227 298.176 390.761 298.496C391.294 298.816 391.705 299.269 391.993 299.856C392.291 300.443 392.441 301.141 392.441 301.952V302.544H386.537V301.392H391.033L390.777 301.632C390.777 300.907 390.617 300.352 390.297 299.968C389.977 299.573 389.518 299.376 388.921 299.376C388.473 299.376 388.089 299.483 387.769 299.696C387.459 299.899 387.219 300.192 387.049 300.576C386.889 300.949 386.809 301.397 386.809 301.92V302.032C386.809 302.619 386.899 303.104 387.081 303.488C387.262 303.872 387.534 304.16 387.897 304.352C388.259 304.544 388.707 304.64 389.241 304.64C389.678 304.64 390.115 304.576 390.553 304.448C390.99 304.309 391.39 304.096 391.753 303.808L392.312 305.152C391.939 305.461 391.47 305.707 390.905 305.888C390.339 306.069 389.774 306.16 389.209 306.16ZM396.6 306.16C396.035 306.16 395.528 306.053 395.08 305.84C394.643 305.616 394.296 305.317 394.04 304.944C393.795 304.571 393.672 304.149 393.672 303.68C393.672 303.104 393.822 302.651 394.12 302.32C394.419 301.979 394.904 301.733 395.576 301.584C396.248 301.435 397.15 301.36 398.28 301.36H399.08V302.512H398.296C397.795 302.512 397.374 302.533 397.032 302.576C396.691 302.608 396.414 302.667 396.2 302.752C395.998 302.827 395.848 302.933 395.752 303.072C395.667 303.211 395.624 303.381 395.624 303.584C395.624 303.936 395.747 304.224 395.992 304.448C396.238 304.672 396.579 304.784 397.016 304.784C397.368 304.784 397.678 304.704 397.944 304.544C398.222 304.373 398.44 304.144 398.6 303.856C398.76 303.568 398.84 303.237 398.84 302.864V301.024C398.84 300.491 398.723 300.107 398.488 299.872C398.254 299.637 397.859 299.52 397.304 299.52C396.867 299.52 396.419 299.589 395.96 299.728C395.502 299.856 395.038 300.059 394.568 300.336L393.992 298.976C394.27 298.784 394.595 298.619 394.968 298.48C395.352 298.331 395.752 298.219 396.168 298.144C396.595 298.059 396.995 298.016 397.368 298.016C398.136 298.016 398.766 298.133 399.256 298.368C399.758 298.603 400.131 298.96 400.376 299.44C400.622 299.909 400.744 300.517 400.744 301.264V306H398.872V304.336H399C398.926 304.709 398.776 305.035 398.552 305.312C398.339 305.579 398.067 305.787 397.736 305.936C397.406 306.085 397.027 306.16 396.6 306.16ZM406.358 306.16C405.313 306.16 404.534 305.899 404.022 305.376C403.51 304.853 403.254 304.091 403.254 303.088V299.68H401.75V298.176H403.254V295.84H405.254V298.176H407.622V299.68H405.254V302.976C405.254 303.488 405.366 303.872 405.59 304.128C405.814 304.384 406.177 304.512 406.678 304.512C406.828 304.512 406.982 304.496 407.142 304.464C407.302 304.421 407.468 304.379 407.638 304.336L407.942 305.808C407.75 305.915 407.505 306 407.206 306.064C406.918 306.128 406.636 306.16 406.358 306.16ZM417.084 306.16C416.198 306.16 415.436 305.995 414.796 305.664C414.156 305.333 413.66 304.864 413.308 304.256C412.966 303.648 412.796 302.928 412.796 302.096C412.796 301.285 412.961 300.576 413.292 299.968C413.633 299.36 414.097 298.885 414.684 298.544C415.281 298.192 415.958 298.016 416.716 298.016C417.462 298.016 418.102 298.176 418.636 298.496C419.169 298.816 419.58 299.269 419.868 299.856C420.166 300.443 420.316 301.141 420.316 301.952V302.544H414.412V301.392H418.908L418.652 301.632C418.652 300.907 418.492 300.352 418.172 299.968C417.852 299.573 417.393 299.376 416.796 299.376C416.348 299.376 415.964 299.483 415.644 299.696C415.334 299.899 415.094 300.192 414.924 300.576C414.764 300.949 414.684 301.397 414.684 301.92V302.032C414.684 302.619 414.774 303.104 414.956 303.488C415.137 303.872 415.409 304.16 415.772 304.352C416.134 304.544 416.582 304.64 417.116 304.64C417.553 304.64 417.99 304.576 418.428 304.448C418.865 304.309 419.265 304.096 419.628 303.808L420.188 305.152C419.814 305.461 419.345 305.707 418.78 305.888C418.214 306.069 417.649 306.16 417.084 306.16ZM422.396 306V299.68H420.892V298.176H422.972L422.396 298.704V298.16C422.396 297.051 422.684 296.213 423.26 295.648C423.847 295.083 424.753 294.763 425.98 294.688L426.764 294.64L426.892 296.112L426.156 296.16C425.729 296.181 425.388 296.261 425.132 296.4C424.876 296.528 424.689 296.709 424.572 296.944C424.455 297.179 424.396 297.477 424.396 297.84V298.432L424.14 298.176H426.524V299.68H424.396V306H422.396ZM427.865 306V299.68H426.361V298.176H428.441L427.865 298.704V298.16C427.865 297.051 428.153 296.213 428.729 295.648C429.316 295.083 430.222 294.763 431.449 294.688L432.233 294.64L432.361 296.112L431.625 296.16C431.198 296.181 430.857 296.261 430.601 296.4C430.345 296.528 430.158 296.709 430.041 296.944C429.924 297.179 429.865 297.477 429.865 297.84V298.432L429.609 298.176H431.993V299.68H429.865V306H427.865ZM436.53 306.16C435.719 306.16 435.015 305.995 434.418 305.664C433.821 305.333 433.357 304.864 433.026 304.256C432.695 303.637 432.53 302.912 432.53 302.08C432.53 301.248 432.695 300.528 433.026 299.92C433.357 299.312 433.821 298.843 434.418 298.512C435.015 298.181 435.719 298.016 436.53 298.016C437.341 298.016 438.045 298.181 438.642 298.512C439.239 298.843 439.703 299.312 440.034 299.92C440.365 300.528 440.53 301.248 440.53 302.08C440.53 302.912 440.365 303.637 440.034 304.256C439.703 304.864 439.239 305.333 438.642 305.664C438.045 305.995 437.341 306.16 436.53 306.16ZM436.53 304.64C437.127 304.64 437.607 304.427 437.97 304C438.333 303.563 438.514 302.923 438.514 302.08C438.514 301.227 438.333 300.592 437.97 300.176C437.607 299.749 437.127 299.536 436.53 299.536C435.933 299.536 435.453 299.749 435.09 300.176C434.727 300.592 434.546 301.227 434.546 302.08C434.546 302.923 434.727 303.563 435.09 304C435.453 304.427 435.933 304.64 436.53 304.64ZM442.181 306V298.176H444.133V300.064H443.973C444.122 299.424 444.415 298.939 444.853 298.608C445.29 298.267 445.871 298.069 446.597 298.016L447.205 297.968L447.333 299.664L446.181 299.776C445.53 299.84 445.039 300.043 444.709 300.384C444.378 300.715 444.213 301.184 444.213 301.792V306H442.181ZM452.483 306.16C451.438 306.16 450.659 305.899 450.147 305.376C449.635 304.853 449.379 304.091 449.379 303.088V299.68H447.875V298.176H449.379V295.84H451.379V298.176H453.747V299.68H451.379V302.976C451.379 303.488 451.491 303.872 451.715 304.128C451.939 304.384 452.302 304.512 452.803 304.512C452.953 304.512 453.107 304.496 453.267 304.464C453.427 304.421 453.593 304.379 453.763 304.336L454.067 305.808C453.875 305.915 453.63 306 453.331 306.064C453.043 306.128 452.761 306.16 452.483 306.16Z" fill="#848484"/>
  <path d="M420.844 382.16C419.596 382.16 418.54 381.925 417.676 381.456C416.822 380.987 416.172 380.32 415.724 379.456C415.276 378.592 415.052 377.568 415.052 376.384C415.052 375.189 415.281 374.16 415.74 373.296C416.198 372.421 416.86 371.749 417.724 371.28C418.588 370.8 419.622 370.56 420.828 370.56C421.361 370.56 421.868 370.613 422.348 370.72C422.838 370.816 423.292 370.96 423.708 371.152C424.124 371.344 424.481 371.579 424.78 371.856L424.092 373.456C423.59 373.061 423.078 372.779 422.556 372.608C422.033 372.437 421.457 372.352 420.828 372.352C419.633 372.352 418.726 372.699 418.108 373.392C417.5 374.085 417.196 375.083 417.196 376.384C417.196 377.696 417.51 378.693 418.14 379.376C418.769 380.059 419.702 380.4 420.94 380.4C421.366 380.4 421.798 380.357 422.236 380.272C422.673 380.187 423.1 380.069 423.516 379.92L423.116 380.832V377.424H420.524V375.904H424.828V381.328C424.486 381.499 424.092 381.648 423.644 381.776C423.206 381.893 422.748 381.984 422.267 382.048C421.788 382.123 421.313 382.16 420.844 382.16ZM430.577 382.16C429.766 382.16 429.062 381.995 428.465 381.664C427.867 381.333 427.403 380.864 427.073 380.256C426.742 379.637 426.577 378.912 426.577 378.08C426.577 377.248 426.742 376.528 427.073 375.92C427.403 375.312 427.867 374.843 428.465 374.512C429.062 374.181 429.766 374.016 430.577 374.016C431.387 374.016 432.091 374.181 432.689 374.512C433.286 374.843 433.75 375.312 434.081 375.92C434.411 376.528 434.577 377.248 434.577 378.08C434.577 378.912 434.411 379.637 434.081 380.256C433.75 380.864 433.286 381.333 432.689 381.664C432.091 381.995 431.387 382.16 430.577 382.16ZM430.577 380.64C431.174 380.64 431.654 380.427 432.017 380C432.379 379.563 432.561 378.923 432.561 378.08C432.561 377.227 432.379 376.592 432.017 376.176C431.654 375.749 431.174 375.536 430.577 375.536C429.979 375.536 429.499 375.749 429.137 376.176C428.774 376.592 428.593 377.227 428.593 378.08C428.593 378.923 428.774 379.563 429.137 380C429.499 380.427 429.979 380.64 430.577 380.64ZM439.796 382.16C438.985 382.16 438.281 381.995 437.684 381.664C437.086 381.333 436.622 380.864 436.292 380.256C435.961 379.637 435.796 378.912 435.796 378.08C435.796 377.248 435.961 376.528 436.292 375.92C436.622 375.312 437.086 374.843 437.684 374.512C438.281 374.181 438.985 374.016 439.796 374.016C440.606 374.016 441.31 374.181 441.908 374.512C442.505 374.843 442.969 375.312 443.3 375.92C443.63 376.528 443.796 377.248 443.796 378.08C443.796 378.912 443.63 379.637 443.3 380.256C442.969 380.864 442.505 381.333 441.908 381.664C441.31 381.995 440.606 382.16 439.796 382.16ZM439.796 380.64C440.393 380.64 440.873 380.427 441.236 380C441.598 379.563 441.78 378.923 441.78 378.08C441.78 377.227 441.598 376.592 441.236 376.176C440.873 375.749 440.393 375.536 439.796 375.536C439.198 375.536 438.718 375.749 438.356 376.176C437.993 376.592 437.812 377.227 437.812 378.08C437.812 378.923 437.993 379.563 438.356 380C438.718 380.427 439.198 380.64 439.796 380.64ZM448.454 382.16C447.772 382.16 447.169 381.995 446.646 381.664C446.134 381.333 445.734 380.864 445.446 380.256C445.158 379.637 445.014 378.912 445.014 378.08C445.014 377.237 445.158 376.517 445.446 375.92C445.734 375.312 446.134 374.843 446.646 374.512C447.169 374.181 447.772 374.016 448.454 374.016C449.105 374.016 449.67 374.176 450.15 374.496C450.641 374.816 450.972 375.237 451.142 375.76H450.966V370.72H452.966V382H451.014V380.336H451.158C450.998 380.891 450.673 381.333 450.182 381.664C449.692 381.995 449.116 382.16 448.454 382.16ZM449.014 380.64C449.612 380.64 450.092 380.427 450.454 380C450.817 379.563 450.998 378.923 450.998 378.08C450.998 377.227 450.817 376.592 450.454 376.176C450.092 375.749 449.612 375.536 449.014 375.536C448.417 375.536 447.937 375.749 447.574 376.176C447.212 376.592 447.03 377.227 447.03 378.08C447.03 378.923 447.212 379.563 447.574 380C447.937 380.427 448.417 380.64 449.014 380.64Z" fill="#848484"/>
  <path d="M397.905 604V594.432H394.033V592.72H403.825V594.432H399.953V604H397.905ZM404.931 604V592.72H406.931V597.744H406.707C406.941 597.179 407.304 596.752 407.795 596.464C408.296 596.165 408.861 596.016 409.491 596.016C410.12 596.016 410.637 596.133 411.043 596.368C411.448 596.603 411.752 596.96 411.955 597.44C412.157 597.909 412.259 598.507 412.259 599.232V604H410.259V599.328C410.259 598.923 410.205 598.592 410.099 598.336C410.003 598.08 409.848 597.893 409.635 597.776C409.432 597.648 409.171 597.584 408.851 597.584C408.467 597.584 408.131 597.669 407.843 597.84C407.555 598 407.331 598.235 407.171 598.544C407.011 598.843 406.931 599.195 406.931 599.6V604H404.931ZM416.866 604.16C416.301 604.16 415.794 604.053 415.346 603.84C414.909 603.616 414.562 603.317 414.306 602.944C414.061 602.571 413.938 602.149 413.938 601.68C413.938 601.104 414.087 600.651 414.386 600.32C414.685 599.979 415.17 599.733 415.842 599.584C416.514 599.435 417.415 599.36 418.546 599.36H419.346V600.512H418.562C418.061 600.512 417.639 600.533 417.298 600.576C416.957 600.608 416.679 600.667 416.466 600.752C416.263 600.827 416.114 600.933 416.018 601.072C415.933 601.211 415.89 601.381 415.89 601.584C415.89 601.936 416.013 602.224 416.258 602.448C416.503 602.672 416.845 602.784 417.282 602.784C417.634 602.784 417.943 602.704 418.21 602.544C418.487 602.373 418.706 602.144 418.866 601.856C419.026 601.568 419.106 601.237 419.106 600.864V599.024C419.106 598.491 418.989 598.107 418.754 597.872C418.519 597.637 418.125 597.52 417.57 597.52C417.133 597.52 416.685 597.589 416.226 597.728C415.767 597.856 415.303 598.059 414.834 598.336L414.258 596.976C414.535 596.784 414.861 596.619 415.234 596.48C415.618 596.331 416.018 596.219 416.434 596.144C416.861 596.059 417.261 596.016 417.634 596.016C418.402 596.016 419.031 596.133 419.522 596.368C420.023 596.603 420.397 596.96 420.642 597.44C420.887 597.909 421.01 598.517 421.01 599.264V604H419.138V602.336H419.266C419.191 602.709 419.042 603.035 418.818 603.312C418.605 603.579 418.333 603.787 418.002 603.936C417.671 604.085 417.293 604.16 416.866 604.16ZM426.624 604.16C425.579 604.16 424.8 603.899 424.288 603.376C423.776 602.853 423.52 602.091 423.52 601.088V597.68H422.016V596.176H423.52V593.84H425.52V596.176H427.888V597.68H425.52V600.976C425.52 601.488 425.632 601.872 425.856 602.128C426.08 602.384 426.443 602.512 426.944 602.512C427.093 602.512 427.248 602.496 427.408 602.464C427.568 602.421 427.733 602.379 427.904 602.336L428.208 603.808C428.016 603.915 427.771 604 427.472 604.064C427.184 604.128 426.901 604.16 426.624 604.16ZM429.981 597.072L429.165 596.432C429.389 596.197 429.565 595.979 429.693 595.776C429.831 595.563 429.927 595.355 429.981 595.152C430.045 594.939 430.077 594.72 430.077 594.496L430.573 594.944H429.005V592.72H431.245V594.176C431.245 594.539 431.202 594.885 431.117 595.216C431.042 595.536 430.914 595.851 430.733 596.16C430.551 596.459 430.301 596.763 429.981 597.072ZM435.56 604.16C435.123 604.16 434.696 604.123 434.28 604.048C433.875 603.973 433.502 603.872 433.16 603.744C432.819 603.605 432.52 603.435 432.264 603.232L432.776 601.92C433.043 602.091 433.331 602.24 433.64 602.368C433.95 602.496 434.27 602.592 434.6 602.656C434.931 602.72 435.256 602.752 435.576 602.752C436.088 602.752 436.467 602.667 436.712 602.496C436.968 602.315 437.096 602.08 437.096 601.792C437.096 601.547 437.011 601.36 436.84 601.232C436.68 601.093 436.435 600.992 436.104 600.928L434.504 600.624C433.843 600.496 433.336 600.256 432.984 599.904C432.643 599.541 432.472 599.077 432.472 598.512C432.472 598 432.611 597.557 432.888 597.184C433.176 596.811 433.571 596.523 434.072 596.32C434.574 596.117 435.15 596.016 435.8 596.016C436.174 596.016 436.536 596.053 436.888 596.128C437.24 596.192 437.571 596.293 437.88 596.432C438.2 596.56 438.478 596.731 438.712 596.944L438.168 598.256C437.966 598.085 437.731 597.941 437.464 597.824C437.198 597.696 436.92 597.6 436.632 597.536C436.355 597.461 436.083 597.424 435.816 597.424C435.294 597.424 434.904 597.515 434.648 597.696C434.403 597.877 434.28 598.117 434.28 598.416C434.28 598.64 434.355 598.827 434.504 598.976C434.654 599.125 434.883 599.227 435.192 599.28L436.792 599.584C437.486 599.712 438.008 599.947 438.36 600.288C438.723 600.629 438.904 601.088 438.904 601.664C438.904 602.187 438.766 602.635 438.488 603.008C438.211 603.381 437.822 603.669 437.32 603.872C436.819 604.064 436.232 604.16 435.56 604.16ZM444.693 594.496V592.544H446.933V594.496H444.693ZM444.821 604V596.176H446.821V604H444.821ZM452.483 604.16C451.438 604.16 450.659 603.899 450.147 603.376C449.635 602.853 449.379 602.091 449.379 601.088V597.68H447.875V596.176H449.379V593.84H451.379V596.176H453.747V597.68H451.379V600.976C451.379 601.488 451.491 601.872 451.715 602.128C451.939 602.384 452.302 602.512 452.803 602.512C452.953 602.512 453.107 602.496 453.267 602.464C453.427 602.421 453.593 602.379 453.763 602.336L454.067 603.808C453.875 603.915 453.63 604 453.331 604.064C453.043 604.128 452.761 604.16 452.483 604.16Z" fill="#848484"/>
  <path d="M377.508 454L373.524 442.72H375.636L378.756 451.968H378.116L381.38 442.72H382.9L386.052 451.968H385.492L388.66 442.72H390.66L386.644 454H384.948L381.908 445.328H382.276L379.204 454H377.508ZM394.88 454.16C393.995 454.16 393.232 453.995 392.592 453.664C391.952 453.333 391.456 452.864 391.104 452.256C390.763 451.648 390.592 450.928 390.592 450.096C390.592 449.285 390.758 448.576 391.088 447.968C391.43 447.36 391.894 446.885 392.48 446.544C393.078 446.192 393.755 446.016 394.512 446.016C395.259 446.016 395.899 446.176 396.432 446.496C396.966 446.816 397.376 447.269 397.664 447.856C397.963 448.443 398.112 449.141 398.112 449.952V450.544H392.208V449.392H396.704L396.448 449.632C396.448 448.907 396.288 448.352 395.968 447.968C395.648 447.573 395.19 447.376 394.592 447.376C394.144 447.376 393.76 447.483 393.44 447.696C393.131 447.899 392.891 448.192 392.72 448.576C392.56 448.949 392.48 449.397 392.48 449.92V450.032C392.48 450.619 392.571 451.104 392.752 451.488C392.934 451.872 393.206 452.16 393.568 452.352C393.931 452.544 394.379 452.64 394.912 452.64C395.35 452.64 395.787 452.576 396.224 452.448C396.662 452.309 397.062 452.096 397.424 451.808L397.984 453.152C397.611 453.461 397.142 453.707 396.576 453.888C396.011 454.069 395.446 454.16 394.88 454.16ZM402.416 454.16C401.488 454.16 400.8 453.909 400.352 453.408C399.915 452.896 399.696 452.149 399.696 451.168V442.72H401.696V451.072C401.696 451.381 401.739 451.648 401.824 451.872C401.92 452.085 402.059 452.245 402.24 452.352C402.422 452.459 402.646 452.512 402.912 452.512C403.03 452.512 403.147 452.507 403.264 452.496C403.382 452.485 403.494 452.464 403.6 452.432L403.568 454.016C403.376 454.059 403.184 454.091 402.992 454.112C402.811 454.144 402.619 454.16 402.416 454.16ZM407.526 454.16C406.598 454.16 405.91 453.909 405.462 453.408C405.024 452.896 404.806 452.149 404.806 451.168V442.72H406.806V451.072C406.806 451.381 406.848 451.648 406.934 451.872C407.03 452.085 407.168 452.245 407.35 452.352C407.531 452.459 407.755 452.512 408.022 452.512C408.139 452.512 408.256 452.507 408.374 452.496C408.491 452.485 408.603 452.464 408.71 452.432L408.678 454.016C408.486 454.059 408.294 454.091 408.102 454.112C407.92 454.144 407.728 454.16 407.526 454.16ZM417.236 454.16C416.553 454.16 415.95 453.995 415.428 453.664C414.916 453.333 414.516 452.864 414.228 452.256C413.94 451.637 413.796 450.912 413.796 450.08C413.796 449.237 413.94 448.517 414.228 447.92C414.516 447.312 414.916 446.843 415.428 446.512C415.95 446.181 416.553 446.016 417.236 446.016C417.886 446.016 418.452 446.176 418.932 446.496C419.422 446.816 419.753 447.237 419.924 447.76H419.748V442.72H421.748V454H419.796V452.336H419.94C419.78 452.891 419.454 453.333 418.964 453.664C418.473 453.995 417.897 454.16 417.236 454.16ZM417.796 452.64C418.393 452.64 418.873 452.427 419.236 452C419.598 451.563 419.78 450.923 419.78 450.08C419.78 449.227 419.598 448.592 419.236 448.176C418.873 447.749 418.393 447.536 417.796 447.536C417.198 447.536 416.718 447.749 416.356 448.176C415.993 448.592 415.812 449.227 415.812 450.08C415.812 450.923 415.993 451.563 416.356 452C416.718 452.427 417.198 452.64 417.796 452.64ZM427.389 454.16C426.579 454.16 425.875 453.995 425.277 453.664C424.68 453.333 424.216 452.864 423.885 452.256C423.555 451.637 423.389 450.912 423.389 450.08C423.389 449.248 423.555 448.528 423.885 447.92C424.216 447.312 424.68 446.843 425.277 446.512C425.875 446.181 426.579 446.016 427.389 446.016C428.2 446.016 428.904 446.181 429.501 446.512C430.099 446.843 430.563 447.312 430.893 447.92C431.224 448.528 431.389 449.248 431.389 450.08C431.389 450.912 431.224 451.637 430.893 452.256C430.563 452.864 430.099 453.333 429.501 453.664C428.904 453.995 428.2 454.16 427.389 454.16ZM427.389 452.64C427.987 452.64 428.467 452.427 428.829 452C429.192 451.563 429.373 450.923 429.373 450.08C429.373 449.227 429.192 448.592 428.829 448.176C428.467 447.749 427.987 447.536 427.389 447.536C426.792 447.536 426.312 447.749 425.949 448.176C425.587 448.592 425.405 449.227 425.405 450.08C425.405 450.923 425.587 451.563 425.949 452C426.312 452.427 426.792 452.64 427.389 452.64ZM433.04 454V446.176H434.992V447.744H434.816C435.051 447.179 435.413 446.752 435.904 446.464C436.405 446.165 436.971 446.016 437.6 446.016C438.229 446.016 438.747 446.133 439.152 446.368C439.557 446.603 439.861 446.96 440.064 447.44C440.267 447.909 440.368 448.507 440.368 449.232V454H438.368V449.328C438.368 448.923 438.315 448.592 438.208 448.336C438.112 448.08 437.957 447.893 437.744 447.776C437.541 447.648 437.28 447.584 436.96 447.584C436.576 447.584 436.24 447.669 435.952 447.84C435.664 448 435.44 448.235 435.28 448.544C435.12 448.843 435.04 449.195 435.04 449.6V454H433.04ZM446.255 454.16C445.37 454.16 444.607 453.995 443.967 453.664C443.327 453.333 442.831 452.864 442.479 452.256C442.138 451.648 441.967 450.928 441.967 450.096C441.967 449.285 442.133 448.576 442.463 447.968C442.805 447.36 443.269 446.885 443.855 446.544C444.453 446.192 445.13 446.016 445.887 446.016C446.634 446.016 447.274 446.176 447.807 446.496C448.341 446.816 448.751 447.269 449.039 447.856C449.338 448.443 449.487 449.141 449.487 449.952V450.544H443.583V449.392H448.079L447.823 449.632C447.823 448.907 447.663 448.352 447.343 447.968C447.023 447.573 446.565 447.376 445.967 447.376C445.519 447.376 445.135 447.483 444.815 447.696C444.506 447.899 444.266 448.192 444.095 448.576C443.935 448.949 443.855 449.397 443.855 449.92V450.032C443.855 450.619 443.946 451.104 444.127 451.488C444.309 451.872 444.581 452.16 444.943 452.352C445.306 452.544 445.754 452.64 446.287 452.64C446.725 452.64 447.162 452.576 447.599 452.448C448.037 452.309 448.437 452.096 448.799 451.808L449.359 453.152C448.986 453.461 448.517 453.707 447.951 453.888C447.386 454.069 446.821 454.16 446.255 454.16ZM451.407 450.656L450.783 442.72H453.247L452.623 450.656H451.407ZM450.895 454V451.776H453.135V454H450.895Z" fill="#5FDB7D"/>
  <path d="M402.686 531V521.432H398.814V519.72H408.606V521.432H404.734V531H402.686ZM412.318 531.16C411.433 531.16 410.67 530.995 410.03 530.664C409.39 530.333 408.894 529.864 408.542 529.256C408.201 528.648 408.03 527.928 408.03 527.096C408.03 526.285 408.195 525.576 408.526 524.968C408.867 524.36 409.331 523.885 409.918 523.544C410.515 523.192 411.193 523.016 411.95 523.016C412.697 523.016 413.337 523.176 413.87 523.496C414.403 523.816 414.814 524.269 415.102 524.856C415.401 525.443 415.55 526.141 415.55 526.952V527.544H409.646V526.392H414.142L413.886 526.632C413.886 525.907 413.726 525.352 413.406 524.968C413.086 524.573 412.627 524.376 412.03 524.376C411.582 524.376 411.198 524.483 410.878 524.696C410.569 524.899 410.329 525.192 410.158 525.576C409.998 525.949 409.918 526.397 409.918 526.92V527.032C409.918 527.619 410.009 528.104 410.19 528.488C410.371 528.872 410.643 529.16 411.006 529.352C411.369 529.544 411.817 529.64 412.35 529.64C412.787 529.64 413.225 529.576 413.662 529.448C414.099 529.309 414.499 529.096 414.862 528.808L415.422 530.152C415.049 530.461 414.579 530.707 414.014 530.888C413.449 531.069 412.883 531.16 412.318 531.16ZM417.134 531V523.176H419.086V525.064H418.926C419.075 524.424 419.368 523.939 419.806 523.608C420.243 523.267 420.824 523.069 421.55 523.016L422.158 522.968L422.286 524.664L421.134 524.776C420.483 524.84 419.992 525.043 419.662 525.384C419.331 525.715 419.166 526.184 419.166 526.792V531H417.134ZM423.399 531V523.176H425.351V525.064H425.191C425.341 524.424 425.634 523.939 426.071 523.608C426.509 523.267 427.09 523.069 427.815 523.016L428.423 522.968L428.551 524.664L427.399 524.776C426.749 524.84 426.258 525.043 425.927 525.384C425.597 525.715 425.431 526.184 425.431 526.792V531H423.399ZM429.537 521.496V519.544H431.777V521.496H429.537ZM429.665 531V523.176H431.665V531H429.665ZM434.271 531V524.68H432.767V523.176H434.847L434.271 523.704V523.16C434.271 522.051 434.559 521.213 435.135 520.648C435.722 520.083 436.628 519.763 437.855 519.688L438.559 519.656L438.655 521.128L438.031 521.16C437.604 521.181 437.263 521.261 437.007 521.4C436.751 521.528 436.564 521.709 436.447 521.944C436.33 522.179 436.271 522.477 436.271 522.84V523.368V523.176H441.439V531H439.439V524.68H436.271V531H434.271ZM439.327 521.496V519.544H441.551V521.496H439.327ZM447.14 531.16C446.319 531.16 445.604 530.995 444.996 530.664C444.388 530.323 443.919 529.843 443.588 529.224C443.258 528.605 443.092 527.88 443.092 527.048C443.092 526.216 443.258 525.501 443.588 524.904C443.919 524.296 444.388 523.832 444.996 523.512C445.604 523.181 446.319 523.016 447.14 523.016C447.642 523.016 448.138 523.096 448.628 523.256C449.119 523.416 449.524 523.64 449.844 523.928L449.252 525.32C448.975 525.075 448.66 524.888 448.308 524.76C447.967 524.632 447.636 524.568 447.316 524.568C446.623 524.568 446.084 524.787 445.7 525.224C445.327 525.651 445.14 526.264 445.14 527.064C445.14 527.853 445.327 528.477 445.7 528.936C446.084 529.384 446.623 529.608 447.316 529.608C447.626 529.608 447.956 529.544 448.308 529.416C448.66 529.288 448.975 529.096 449.252 528.84L449.844 530.248C449.524 530.525 449.114 530.749 448.612 530.92C448.122 531.08 447.631 531.16 447.14 531.16ZM451.407 527.656L450.783 519.72H453.247L452.623 527.656H451.407ZM450.895 531V528.776H453.135V531H450.895Z" fill="#27DE54"/>
  <path d="M65.3103 233V217.784H59.1663V216.08H73.4463V217.784H67.3023V233H65.3103ZM77.7254 233.216C76.7814 233.216 75.9974 233.048 75.3734 232.712C74.7654 232.36 74.3014 231.84 73.9814 231.152C73.6774 230.464 73.5254 229.608 73.5254 228.584V221.336H75.4694V228.56C75.4694 229.248 75.5574 229.824 75.7334 230.288C75.9254 230.736 76.2214 231.072 76.6214 231.296C77.0214 231.504 77.5174 231.608 78.1094 231.608C78.7814 231.608 79.3654 231.456 79.8614 231.152C80.3574 230.848 80.7494 230.424 81.0374 229.88C81.3254 229.336 81.4694 228.696 81.4694 227.96V221.336H83.4134V233H81.5174V230.312H81.8294C81.5094 231.256 80.9814 231.976 80.2454 232.472C79.5254 232.968 78.6854 233.216 77.7254 233.216ZM92.3066 233.216C91.0746 233.216 90.0106 232.976 89.1146 232.496C88.2346 232 87.5466 231.304 87.0506 230.408C86.5706 229.512 86.3306 228.44 86.3306 227.192C86.3306 225.976 86.5706 224.92 87.0506 224.024C87.5306 223.112 88.1866 222.4 89.0186 221.888C89.8666 221.376 90.8426 221.12 91.9466 221.12C93.0026 221.12 93.9066 221.352 94.6586 221.816C95.4106 222.28 95.9866 222.936 96.3866 223.784C96.8026 224.632 97.0106 225.648 97.0106 226.832V227.576H87.8186V226.304H95.7146L95.3306 226.616C95.3306 225.336 95.0426 224.344 94.4666 223.64C93.9066 222.92 93.0826 222.56 91.9946 222.56C91.1786 222.56 90.4826 222.752 89.9066 223.136C89.3466 223.504 88.9226 224.024 88.6346 224.696C88.3466 225.352 88.2026 226.12 88.2026 227V227.144C88.2026 228.12 88.3546 228.944 88.6586 229.616C88.9786 230.288 89.4506 230.8 90.0746 231.152C90.6986 231.488 91.4426 231.656 92.3066 231.656C92.9946 231.656 93.6586 231.552 94.2986 231.344C94.9546 231.12 95.5706 230.76 96.1466 230.264L96.8186 231.632C96.2906 232.112 95.6186 232.496 94.8026 232.784C93.9866 233.072 93.1546 233.216 92.3066 233.216Z" fill="#888888"/>
  <path d="M52.8746 309L46.9466 292.08H49.0106L54.2186 307.32H53.3786L58.6826 292.08H60.2666L65.4986 307.32H64.7546L69.9866 292.08H71.9546L66.0266 309H64.2746L59.1866 294.36H59.7146L54.5786 309H52.8746ZM78.3144 309.216C77.0824 309.216 76.0184 308.976 75.1224 308.496C74.2424 308 73.5544 307.304 73.0584 306.408C72.5784 305.512 72.3384 304.44 72.3384 303.192C72.3384 301.976 72.5784 300.92 73.0584 300.024C73.5384 299.112 74.1944 298.4 75.0264 297.888C75.8744 297.376 76.8504 297.12 77.9544 297.12C79.0104 297.12 79.9144 297.352 80.6664 297.816C81.4184 298.28 81.9944 298.936 82.3944 299.784C82.8104 300.632 83.0184 301.648 83.0184 302.832V303.576H73.8264V302.304H81.7224L81.3384 302.616C81.3384 301.336 81.0504 300.344 80.4744 299.64C79.9144 298.92 79.0904 298.56 78.0024 298.56C77.1864 298.56 76.4904 298.752 75.9144 299.136C75.3544 299.504 74.9304 300.024 74.6424 300.696C74.3544 301.352 74.2104 302.12 74.2104 303V303.144C74.2104 304.12 74.3624 304.944 74.6664 305.616C74.9864 306.288 75.4584 306.8 76.0824 307.152C76.7064 307.488 77.4504 307.656 78.3144 307.656C79.0024 307.656 79.6664 307.552 80.3064 307.344C80.9624 307.12 81.5784 306.76 82.1544 306.264L82.8264 307.632C82.2984 308.112 81.6264 308.496 80.8104 308.784C79.9944 309.072 79.1624 309.216 78.3144 309.216ZM90.2718 309.216C89.2318 309.216 88.3198 308.968 87.5358 308.472C86.7678 307.976 86.1678 307.28 85.7358 306.384C85.3198 305.472 85.1118 304.4 85.1118 303.168C85.1118 301.92 85.3198 300.848 85.7358 299.952C86.1678 299.04 86.7678 298.344 87.5358 297.864C88.3198 297.368 89.2318 297.12 90.2718 297.12C91.3278 297.12 92.2318 297.384 92.9838 297.912C93.7358 298.44 94.2398 299.152 94.4958 300.048H94.2318V292.08H96.1758V309H94.2798V306.216H94.5198C94.2638 307.128 93.7518 307.856 92.9838 308.4C92.2318 308.944 91.3278 309.216 90.2718 309.216ZM90.6798 307.656C91.7838 307.656 92.6558 307.272 93.2958 306.504C93.9518 305.72 94.2798 304.608 94.2798 303.168C94.2798 301.712 93.9518 300.6 93.2958 299.832C92.6558 299.064 91.7838 298.68 90.6798 298.68C89.5918 298.68 88.7198 299.064 88.0638 299.832C87.4078 300.6 87.0798 301.712 87.0798 303.168C87.0798 304.608 87.4078 305.72 88.0638 306.504C88.7198 307.272 89.5918 307.656 90.6798 307.656Z" fill="#888888"/>
  <path d="M62.7088 385V369.784H56.5648V368.08H70.8448V369.784H64.7008V385H62.7088ZM72.7303 385V368.08H74.6743V375.928H74.3623C74.6983 375 75.2423 374.304 75.9943 373.84C76.7623 373.36 77.6423 373.12 78.6343 373.12C79.5623 373.12 80.3303 373.288 80.9383 373.624C81.5623 373.96 82.0263 374.472 82.3303 375.16C82.6343 375.832 82.7863 376.688 82.7863 377.728V385H80.8423V377.848C80.8423 377.128 80.7463 376.536 80.5543 376.072C80.3783 375.608 80.0903 375.264 79.6903 375.04C79.3063 374.816 78.8023 374.704 78.1783 374.704C77.4743 374.704 76.8583 374.856 76.3303 375.16C75.8023 375.464 75.3943 375.888 75.1063 376.432C74.8183 376.976 74.6743 377.616 74.6743 378.352V385H72.7303ZM90.4989 385.216C89.5549 385.216 88.7709 385.048 88.1469 384.712C87.5389 384.36 87.0749 383.84 86.7549 383.152C86.4509 382.464 86.2989 381.608 86.2989 380.584V373.336H88.2429V380.56C88.2429 381.248 88.3309 381.824 88.5069 382.288C88.6989 382.736 88.9949 383.072 89.3949 383.296C89.7949 383.504 90.2909 383.608 90.8829 383.608C91.5549 383.608 92.1389 383.456 92.6349 383.152C93.1309 382.848 93.5229 382.424 93.8109 381.88C94.0989 381.336 94.2429 380.696 94.2429 379.96V373.336H96.1869V385H94.2909V382.312H94.6029C94.2829 383.256 93.7549 383.976 93.0189 384.472C92.2989 384.968 91.4589 385.216 90.4989 385.216Z" fill="#888888"/>
  <path d="M72.9943 461V444.08H83.4583V445.736H74.9623V451.64H82.9783V453.296H74.9623V461H72.9943ZM85.6443 461V449.336H87.5403V452.096H87.3003C87.5723 451.152 88.0443 450.44 88.7163 449.96C89.3883 449.464 90.2763 449.176 91.3803 449.096L92.0763 449.024L92.2203 450.704L90.9963 450.848C89.9083 450.944 89.0683 451.296 88.4763 451.904C87.9003 452.496 87.6123 453.312 87.6123 454.352V461H85.6443ZM94.0059 446.432V444.248H96.4059V446.432H94.0059ZM94.2459 461V449.336H96.1899V461H94.2459Z" fill="#888888"/>
  <path d="M69.6772 537.216C68.7972 537.216 67.9652 537.136 67.1812 536.976C66.4132 536.816 65.7012 536.592 65.0452 536.304C64.4052 536 63.8212 535.632 63.2932 535.2L63.9892 533.616C64.5332 534.016 65.0852 534.36 65.6452 534.648C66.2212 534.92 66.8372 535.128 67.4932 535.272C68.1652 535.4 68.8932 535.464 69.6772 535.464C71.1172 535.464 72.1812 535.2 72.8692 534.672C73.5732 534.128 73.9252 533.416 73.9252 532.536C73.9252 532.072 73.8132 531.672 73.5892 531.336C73.3812 531 73.0292 530.712 72.5332 530.472C72.0532 530.232 71.4212 530.032 70.6372 529.872L68.1412 529.368C66.6372 529.048 65.5092 528.528 64.7572 527.808C64.0212 527.072 63.6532 526.096 63.6532 524.88C63.6532 523.872 63.9092 522.992 64.4212 522.24C64.9492 521.488 65.6772 520.904 66.6052 520.488C67.5492 520.072 68.6212 519.864 69.8212 519.864C70.5892 519.864 71.3172 519.944 72.0052 520.104C72.6932 520.264 73.3252 520.504 73.9012 520.824C74.4932 521.128 75.0132 521.504 75.4612 521.952L74.7652 523.488C74.0452 522.832 73.2852 522.36 72.4852 522.072C71.6852 521.768 70.7892 521.616 69.7972 521.616C68.9492 521.616 68.2132 521.744 67.5892 522C66.9812 522.256 66.5012 522.632 66.1492 523.128C65.8132 523.608 65.6452 524.168 65.6452 524.808C65.6452 525.576 65.8772 526.184 66.3412 526.632C66.8212 527.08 67.5972 527.408 68.6692 527.616L71.1652 528.144C72.7812 528.48 73.9732 528.992 74.7412 529.68C75.5252 530.352 75.9172 531.272 75.9172 532.44C75.9172 533.368 75.6612 534.2 75.1492 534.936C74.6532 535.656 73.9332 536.216 72.9892 536.616C72.0612 537.016 70.9572 537.216 69.6772 537.216ZM82.3788 537.216C81.5788 537.216 80.8588 537.064 80.2188 536.76C79.5948 536.44 79.0988 536.008 78.7308 535.464C78.3628 534.92 78.1788 534.312 78.1788 533.64C78.1788 532.776 78.3948 532.096 78.8268 531.6C79.2748 531.104 80.0028 530.752 81.0108 530.544C82.0348 530.336 83.4268 530.232 85.1868 530.232H86.2668V531.504H85.2108C84.2348 531.504 83.4188 531.536 82.7628 531.6C82.1068 531.664 81.5868 531.776 81.2028 531.936C80.8188 532.096 80.5468 532.304 80.3868 532.56C80.2268 532.816 80.1468 533.136 80.1468 533.52C80.1468 534.176 80.3708 534.712 80.8188 535.128C81.2828 535.544 81.9068 535.752 82.6908 535.752C83.3308 535.752 83.8908 535.6 84.3708 535.296C84.8668 534.992 85.2508 534.576 85.5228 534.048C85.8108 533.52 85.9548 532.912 85.9548 532.224V529.488C85.9548 528.496 85.7548 527.784 85.3548 527.352C84.9548 526.904 84.2988 526.68 83.3868 526.68C82.6828 526.68 82.0028 526.784 81.3468 526.992C80.6908 527.184 80.0188 527.504 79.3308 527.952L78.6588 526.536C79.0748 526.248 79.5468 526 80.0748 525.792C80.6028 525.568 81.1548 525.4 81.7308 525.288C82.3068 525.176 82.8588 525.12 83.3868 525.12C84.3948 525.12 85.2268 525.288 85.8828 525.624C86.5388 525.944 87.0268 526.44 87.3468 527.112C87.6668 527.768 87.8268 528.616 87.8268 529.656V537H86.0028V534.288H86.2188C86.0908 534.896 85.8428 535.416 85.4748 535.848C85.1228 536.28 84.6828 536.616 84.1548 536.856C83.6268 537.096 83.0348 537.216 82.3788 537.216ZM96.1134 537.216C94.7374 537.216 93.7054 536.848 93.0174 536.112C92.3294 535.376 91.9854 534.328 91.9854 532.968V526.848H89.7054V525.336H91.9854V521.76H93.9294V525.336H97.6254V526.848H93.9294V532.776C93.9294 533.688 94.1214 534.384 94.5054 534.864C94.8894 535.328 95.5134 535.56 96.3774 535.56C96.6334 535.56 96.8894 535.528 97.1454 535.464C97.4014 535.4 97.6334 535.336 97.8414 535.272L98.1774 536.76C97.9694 536.872 97.6654 536.976 97.2654 537.072C96.8654 537.168 96.4814 537.216 96.1134 537.216Z" fill="#888888"/>
  <path d="M63.7006 613.216C62.8206 613.216 61.9886 613.136 61.2046 612.976C60.4366 612.816 59.7246 612.592 59.0686 612.304C58.4286 612 57.8446 611.632 57.3166 611.2L58.0126 609.616C58.5566 610.016 59.1086 610.36 59.6686 610.648C60.2446 610.92 60.8606 611.128 61.5166 611.272C62.1886 611.4 62.9166 611.464 63.7006 611.464C65.1406 611.464 66.2046 611.2 66.8926 610.672C67.5966 610.128 67.9486 609.416 67.9486 608.536C67.9486 608.072 67.8366 607.672 67.6126 607.336C67.4046 607 67.0526 606.712 66.5566 606.472C66.0766 606.232 65.4446 606.032 64.6606 605.872L62.1646 605.368C60.6606 605.048 59.5326 604.528 58.7806 603.808C58.0446 603.072 57.6766 602.096 57.6766 600.88C57.6766 599.872 57.9326 598.992 58.4446 598.24C58.9726 597.488 59.7006 596.904 60.6286 596.488C61.5726 596.072 62.6446 595.864 63.8446 595.864C64.6126 595.864 65.3406 595.944 66.0286 596.104C66.7166 596.264 67.3486 596.504 67.9246 596.824C68.5166 597.128 69.0366 597.504 69.4846 597.952L68.7886 599.488C68.0686 598.832 67.3086 598.36 66.5086 598.072C65.7086 597.768 64.8126 597.616 63.8206 597.616C62.9726 597.616 62.2366 597.744 61.6126 598C61.0046 598.256 60.5246 598.632 60.1726 599.128C59.8366 599.608 59.6686 600.168 59.6686 600.808C59.6686 601.576 59.9006 602.184 60.3646 602.632C60.8446 603.08 61.6206 603.408 62.6926 603.616L65.1886 604.144C66.8046 604.48 67.9966 604.992 68.7646 605.68C69.5486 606.352 69.9406 607.272 69.9406 608.44C69.9406 609.368 69.6846 610.2 69.1726 610.936C68.6766 611.656 67.9566 612.216 67.0126 612.616C66.0846 613.016 64.9806 613.216 63.7006 613.216ZM76.8583 613.216C75.9143 613.216 75.1303 613.048 74.5063 612.712C73.8983 612.36 73.4343 611.84 73.1143 611.152C72.8103 610.464 72.6583 609.608 72.6583 608.584V601.336H74.6023V608.56C74.6023 609.248 74.6903 609.824 74.8663 610.288C75.0583 610.736 75.3543 611.072 75.7543 611.296C76.1543 611.504 76.6503 611.608 77.2422 611.608C77.9143 611.608 78.4983 611.456 78.9943 611.152C79.4903 610.848 79.8823 610.424 80.1703 609.88C80.4583 609.336 80.6023 608.696 80.6023 607.96V601.336H82.5463V613H80.6503V610.312H80.9623C80.6423 611.256 80.1143 611.976 79.3783 612.472C78.6583 612.968 77.8183 613.216 76.8583 613.216ZM86.1834 613V601.336H88.0794V603.928H87.8154C88.1514 603 88.6954 602.304 89.4474 601.84C90.2154 601.36 91.0954 601.12 92.0874 601.12C93.0154 601.12 93.7834 601.288 94.3914 601.624C95.0154 601.944 95.4794 602.448 95.7834 603.136C96.0874 603.824 96.2394 604.688 96.2394 605.728V613H94.2954V605.848C94.2954 605.128 94.1994 604.536 94.0074 604.072C93.8314 603.608 93.5434 603.264 93.1434 603.04C92.7594 602.816 92.2554 602.704 91.6314 602.704C90.9274 602.704 90.3114 602.856 89.7834 603.16C89.2554 603.464 88.8474 603.888 88.5594 604.432C88.2714 604.976 88.1274 605.616 88.1274 606.352V613H86.1834Z" fill="#888888"/>
  </svg>
  