<svg width="558" height="695" viewBox="0 0 558 695" fill="none" xmlns="http://www.w3.org/2000/svg">
  <rect width="558" height="695" rx="60" fill="#1B1B1B" />
  <path
    d="M62.408 82.216C60.744 82.216 59.32 81.864 58.136 81.16C56.952 80.456 56.04 79.456 55.4 78.16C54.776 76.864 54.464 75.32 54.464 73.528C54.464 71.736 54.776 70.2 55.4 68.92C56.04 67.624 56.952 66.624 58.136 65.92C59.32 65.216 60.744 64.864 62.408 64.864C63.576 64.864 64.656 65.048 65.648 65.416C66.64 65.784 67.472 66.32 68.144 67.024L67.376 68.632C66.64 67.944 65.872 67.448 65.072 67.144C64.288 66.824 63.416 66.664 62.456 66.664C60.552 66.664 59.096 67.264 58.088 68.464C57.08 69.664 56.576 71.352 56.576 73.528C56.576 75.704 57.08 77.4 58.088 78.616C59.096 79.816 60.552 80.416 62.456 80.416C63.416 80.416 64.288 80.264 65.072 79.96C65.872 79.64 66.64 79.136 67.376 78.448L68.144 80.056C67.472 80.744 66.64 81.28 65.648 81.664C64.656 82.032 63.576 82.216 62.408 82.216ZM74.9767 82.216C73.8407 82.216 72.8567 81.968 72.0247 81.472C71.1927 80.976 70.5447 80.28 70.0807 79.384C69.6327 78.472 69.4087 77.4 69.4087 76.168C69.4087 74.936 69.6327 73.872 70.0807 72.976C70.5447 72.064 71.1927 71.36 72.0247 70.864C72.8567 70.368 73.8407 70.12 74.9767 70.12C76.1127 70.12 77.0967 70.368 77.9287 70.864C78.7607 71.36 79.4007 72.064 79.8487 72.976C80.3127 73.872 80.5447 74.936 80.5447 76.168C80.5447 77.4 80.3127 78.472 79.8487 79.384C79.4007 80.28 78.7607 80.976 77.9287 81.472C77.0967 81.968 76.1127 82.216 74.9767 82.216ZM74.9767 80.656C76.0807 80.656 76.9527 80.272 77.5927 79.504C78.2487 78.72 78.5767 77.6 78.5767 76.144C78.5767 74.704 78.2487 73.6 77.5927 72.832C76.9527 72.064 76.0807 71.68 74.9767 71.68C73.8887 71.68 73.0167 72.064 72.3607 72.832C71.7047 73.6 71.3767 74.704 71.3767 76.144C71.3767 77.6 71.7047 78.72 72.3607 79.504C73.0167 80.272 73.8887 80.656 74.9767 80.656ZM83.4646 82V70.336H85.3606V72.928H85.0966C85.4326 72 85.9766 71.304 86.7286 70.84C87.4966 70.36 88.3766 70.12 89.3686 70.12C90.2966 70.12 91.0646 70.288 91.6726 70.624C92.2966 70.944 92.7606 71.448 93.0646 72.136C93.3686 72.824 93.5206 73.688 93.5206 74.728V82H91.5766V74.848C91.5766 74.128 91.4806 73.536 91.2886 73.072C91.1126 72.608 90.8246 72.264 90.4246 72.04C90.0406 71.816 89.5366 71.704 88.9126 71.704C88.2086 71.704 87.5926 71.856 87.0646 72.16C86.5366 72.464 86.1286 72.888 85.8406 73.432C85.5526 73.976 85.4086 74.616 85.4086 75.352V82H83.4646ZM101.041 82.216C100.433 82.216 99.8413 82.152 99.2653 82.024C98.7053 81.912 98.1773 81.752 97.6813 81.544C97.2013 81.32 96.7853 81.056 96.4333 80.752L97.0573 79.384C97.4413 79.688 97.8573 79.944 98.3053 80.152C98.7533 80.344 99.2093 80.488 99.6733 80.584C100.137 80.68 100.609 80.728 101.089 80.728C102.001 80.728 102.689 80.56 103.153 80.224C103.617 79.888 103.849 79.432 103.849 78.856C103.849 78.408 103.697 78.056 103.393 77.8C103.089 77.528 102.609 77.32 101.953 77.176L99.7693 76.696C98.7613 76.488 98.0093 76.128 97.5133 75.616C97.0333 75.104 96.7933 74.44 96.7933 73.624C96.7933 72.904 96.9773 72.288 97.3453 71.776C97.7293 71.248 98.2653 70.84 98.9533 70.552C99.6413 70.264 100.441 70.12 101.353 70.12C101.897 70.12 102.417 70.176 102.913 70.288C103.409 70.4 103.873 70.568 104.305 70.792C104.753 71 105.137 71.264 105.457 71.584L104.809 72.952C104.505 72.664 104.161 72.424 103.777 72.232C103.393 72.024 102.993 71.872 102.577 71.776C102.177 71.664 101.769 71.608 101.353 71.608C100.457 71.608 99.7773 71.784 99.3133 72.136C98.8493 72.488 98.6173 72.952 98.6173 73.528C98.6173 73.976 98.7613 74.344 99.0493 74.632C99.3373 74.92 99.7853 75.128 100.393 75.256L102.577 75.712C103.617 75.936 104.393 76.296 104.905 76.792C105.433 77.272 105.697 77.928 105.697 78.76C105.697 79.464 105.505 80.08 105.121 80.608C104.737 81.12 104.193 81.52 103.489 81.808C102.801 82.08 101.985 82.216 101.041 82.216ZM108.42 67.432V65.248H110.82V67.432H108.42ZM108.66 82V70.336H110.604V82H108.66ZM118.174 82.216C117.566 82.216 116.974 82.152 116.398 82.024C115.838 81.912 115.31 81.752 114.814 81.544C114.334 81.32 113.918 81.056 113.566 80.752L114.19 79.384C114.574 79.688 114.99 79.944 115.438 80.152C115.886 80.344 116.342 80.488 116.806 80.584C117.27 80.68 117.742 80.728 118.222 80.728C119.134 80.728 119.822 80.56 120.286 80.224C120.75 79.888 120.982 79.432 120.982 78.856C120.982 78.408 120.83 78.056 120.526 77.8C120.222 77.528 119.742 77.32 119.086 77.176L116.902 76.696C115.894 76.488 115.142 76.128 114.646 75.616C114.166 75.104 113.926 74.44 113.926 73.624C113.926 72.904 114.11 72.288 114.478 71.776C114.862 71.248 115.398 70.84 116.086 70.552C116.774 70.264 117.574 70.12 118.486 70.12C119.03 70.12 119.55 70.176 120.046 70.288C120.542 70.4 121.006 70.568 121.438 70.792C121.886 71 122.27 71.264 122.59 71.584L121.942 72.952C121.638 72.664 121.294 72.424 120.91 72.232C120.526 72.024 120.126 71.872 119.71 71.776C119.31 71.664 118.902 71.608 118.486 71.608C117.59 71.608 116.91 71.784 116.446 72.136C115.982 72.488 115.75 72.952 115.75 73.528C115.75 73.976 115.894 74.344 116.182 74.632C116.47 74.92 116.918 75.128 117.526 75.256L119.71 75.712C120.75 75.936 121.526 76.296 122.038 76.792C122.566 77.272 122.83 77.928 122.83 78.76C122.83 79.464 122.638 80.08 122.254 80.608C121.87 81.12 121.326 81.52 120.622 81.808C119.934 82.08 119.118 82.216 118.174 82.216ZM130.356 82.216C128.98 82.216 127.948 81.848 127.26 81.112C126.572 80.376 126.228 79.328 126.228 77.968V71.848H123.948V70.336H126.228V66.76H128.172V70.336H131.868V71.848H128.172V77.776C128.172 78.688 128.364 79.384 128.748 79.864C129.132 80.328 129.756 80.56 130.62 80.56C130.876 80.56 131.132 80.528 131.388 80.464C131.644 80.4 131.876 80.336 132.084 80.272L132.42 81.76C132.212 81.872 131.908 81.976 131.508 82.072C131.108 82.168 130.724 82.216 130.356 82.216ZM139.205 82.216C137.973 82.216 136.909 81.976 136.013 81.496C135.133 81 134.445 80.304 133.949 79.408C133.469 78.512 133.229 77.44 133.229 76.192C133.229 74.976 133.469 73.92 133.949 73.024C134.429 72.112 135.085 71.4 135.917 70.888C136.765 70.376 137.741 70.12 138.845 70.12C139.901 70.12 140.805 70.352 141.557 70.816C142.309 71.28 142.885 71.936 143.285 72.784C143.701 73.632 143.909 74.648 143.909 75.832V76.576H134.717V75.304H142.613L142.229 75.616C142.229 74.336 141.941 73.344 141.365 72.64C140.805 71.92 139.981 71.56 138.893 71.56C138.077 71.56 137.381 71.752 136.805 72.136C136.245 72.504 135.821 73.024 135.533 73.696C135.245 74.352 135.101 75.12 135.101 76V76.144C135.101 77.12 135.253 77.944 135.557 78.616C135.877 79.288 136.349 79.8 136.973 80.152C137.597 80.488 138.341 80.656 139.205 80.656C139.893 80.656 140.557 80.552 141.197 80.344C141.853 80.12 142.469 79.76 143.045 79.264L143.717 80.632C143.189 81.112 142.517 81.496 141.701 81.784C140.885 82.072 140.053 82.216 139.205 82.216ZM146.722 82V70.336H148.618V72.928H148.354C148.69 72 149.234 71.304 149.986 70.84C150.754 70.36 151.634 70.12 152.626 70.12C153.554 70.12 154.322 70.288 154.93 70.624C155.554 70.944 156.018 71.448 156.322 72.136C156.626 72.824 156.778 73.688 156.778 74.728V82H154.834V74.848C154.834 74.128 154.738 73.536 154.546 73.072C154.37 72.608 154.082 72.264 153.682 72.04C153.298 71.816 152.794 71.704 152.17 71.704C151.466 71.704 150.85 71.856 150.322 72.16C149.794 72.464 149.386 72.888 149.098 73.432C148.81 73.976 148.666 74.616 148.666 75.352V82H146.722ZM165.307 82.216C164.139 82.216 163.131 81.96 162.283 81.448C161.435 80.936 160.779 80.224 160.315 79.312C159.867 78.384 159.643 77.312 159.643 76.096C159.643 74.864 159.867 73.8 160.315 72.904C160.779 72.008 161.435 71.32 162.283 70.84C163.131 70.36 164.139 70.12 165.307 70.12C166.027 70.12 166.739 70.248 167.443 70.504C168.147 70.76 168.731 71.12 169.195 71.584L168.523 73C168.059 72.552 167.547 72.224 166.987 72.016C166.443 71.808 165.923 71.704 165.427 71.704C164.211 71.704 163.275 72.088 162.619 72.856C161.963 73.608 161.635 74.696 161.635 76.12C161.635 77.512 161.963 78.616 162.619 79.432C163.275 80.232 164.211 80.632 165.427 80.632C165.923 80.632 166.443 80.528 166.987 80.32C167.547 80.112 168.059 79.776 168.523 79.312L169.195 80.728C168.731 81.192 168.139 81.56 167.419 81.832C166.715 82.088 166.011 82.216 165.307 82.216ZM172.91 86.32L175.094 81.4V82.24L169.982 70.336H172.094L176.27 80.56H175.622L179.846 70.336H181.886L174.95 86.32H172.91ZM194.738 82.216C193.362 82.216 192.33 81.848 191.642 81.112C190.954 80.376 190.61 79.328 190.61 77.968V71.848H188.33V70.336H190.61V66.76H192.554V70.336H196.25V71.848H192.554V77.776C192.554 78.688 192.746 79.384 193.13 79.864C193.514 80.328 194.138 80.56 195.002 80.56C195.258 80.56 195.514 80.528 195.77 80.464C196.026 80.4 196.258 80.336 196.466 80.272L196.802 81.76C196.594 81.872 196.29 81.976 195.89 82.072C195.49 82.168 195.106 82.216 194.738 82.216ZM203.18 82.216C202.044 82.216 201.06 81.968 200.228 81.472C199.396 80.976 198.748 80.28 198.284 79.384C197.836 78.472 197.612 77.4 197.612 76.168C197.612 74.936 197.836 73.872 198.284 72.976C198.748 72.064 199.396 71.36 200.228 70.864C201.06 70.368 202.044 70.12 203.18 70.12C204.316 70.12 205.3 70.368 206.132 70.864C206.964 71.36 207.604 72.064 208.052 72.976C208.516 73.872 208.748 74.936 208.748 76.168C208.748 77.4 208.516 78.472 208.052 79.384C207.604 80.28 206.964 80.976 206.132 81.472C205.3 81.968 204.316 82.216 203.18 82.216ZM203.18 80.656C204.284 80.656 205.156 80.272 205.796 79.504C206.452 78.72 206.78 77.6 206.78 76.144C206.78 74.704 206.452 73.6 205.796 72.832C205.156 72.064 204.284 71.68 203.18 71.68C202.092 71.68 201.22 72.064 200.564 72.832C199.908 73.6 199.58 74.704 199.58 76.144C199.58 77.6 199.908 78.72 200.564 79.504C201.22 80.272 202.092 80.656 203.18 80.656ZM221.504 82.216C220.704 82.216 219.984 82.064 219.344 81.76C218.72 81.44 218.224 81.008 217.856 80.464C217.488 79.92 217.304 79.312 217.304 78.64C217.304 77.776 217.52 77.096 217.952 76.6C218.4 76.104 219.128 75.752 220.136 75.544C221.16 75.336 222.552 75.232 224.312 75.232H225.392V76.504H224.336C223.36 76.504 222.544 76.536 221.888 76.6C221.232 76.664 220.712 76.776 220.328 76.936C219.944 77.096 219.672 77.304 219.512 77.56C219.352 77.816 219.272 78.136 219.272 78.52C219.272 79.176 219.496 79.712 219.944 80.128C220.408 80.544 221.032 80.752 221.816 80.752C222.456 80.752 223.016 80.6 223.496 80.296C223.992 79.992 224.376 79.576 224.648 79.048C224.936 78.52 225.08 77.912 225.08 77.224V74.488C225.08 73.496 224.88 72.784 224.48 72.352C224.08 71.904 223.424 71.68 222.512 71.68C221.808 71.68 221.128 71.784 220.472 71.992C219.816 72.184 219.144 72.504 218.456 72.952L217.784 71.536C218.2 71.248 218.672 71 219.2 70.792C219.728 70.568 220.28 70.4 220.856 70.288C221.432 70.176 221.984 70.12 222.512 70.12C223.52 70.12 224.352 70.288 225.008 70.624C225.664 70.944 226.152 71.44 226.472 72.112C226.792 72.768 226.952 73.616 226.952 74.656V82H225.128V79.288H225.344C225.216 79.896 224.968 80.416 224.6 80.848C224.248 81.28 223.808 81.616 223.28 81.856C222.752 82.096 222.16 82.216 221.504 82.216ZM233.873 82L228.857 70.336H230.969L235.145 80.56H234.497L238.745 70.336H240.737L235.697 82H233.873ZM247.477 82.216C246.341 82.216 245.357 81.968 244.525 81.472C243.693 80.976 243.045 80.28 242.581 79.384C242.133 78.472 241.909 77.4 241.909 76.168C241.909 74.936 242.133 73.872 242.581 72.976C243.045 72.064 243.693 71.36 244.525 70.864C245.357 70.368 246.341 70.12 247.477 70.12C248.613 70.12 249.597 70.368 250.429 70.864C251.261 71.36 251.901 72.064 252.349 72.976C252.813 73.872 253.045 74.936 253.045 76.168C253.045 77.4 252.813 78.472 252.349 79.384C251.901 80.28 251.261 80.976 250.429 81.472C249.597 81.968 248.613 82.216 247.477 82.216ZM247.477 80.656C248.581 80.656 249.453 80.272 250.093 79.504C250.749 78.72 251.077 77.6 251.077 76.144C251.077 74.704 250.749 73.6 250.093 72.832C249.453 72.064 248.581 71.68 247.477 71.68C246.389 71.68 245.517 72.064 244.861 72.832C244.205 73.6 243.877 74.704 243.877 76.144C243.877 77.6 244.205 78.72 244.861 79.504C245.517 80.272 246.389 80.656 247.477 80.656ZM255.725 67.432V65.248H258.125V67.432H255.725ZM255.965 82V70.336H257.909V82H255.965ZM265.983 82.216C264.943 82.216 264.031 81.968 263.247 81.472C262.479 80.976 261.879 80.28 261.447 79.384C261.031 78.472 260.823 77.4 260.823 76.168C260.823 74.92 261.031 73.848 261.447 72.952C261.879 72.04 262.479 71.344 263.247 70.864C264.031 70.368 264.943 70.12 265.983 70.12C267.039 70.12 267.943 70.384 268.695 70.912C269.447 71.44 269.951 72.152 270.207 73.048H269.943V65.08H271.887V82H269.991V79.216H270.231C269.975 80.128 269.463 80.856 268.695 81.4C267.943 81.944 267.039 82.216 265.983 82.216ZM266.391 80.656C267.495 80.656 268.367 80.272 269.007 79.504C269.663 78.72 269.991 77.608 269.991 76.168C269.991 74.712 269.663 73.6 269.007 72.832C268.367 72.064 267.495 71.68 266.391 71.68C265.303 71.68 264.431 72.064 263.775 72.832C263.119 73.6 262.791 74.712 262.791 76.168C262.791 77.608 263.119 78.72 263.775 79.504C264.431 80.272 265.303 80.656 266.391 80.656Z"
    fill="#FF5E5E" />
  <path
    d="M62.408 395.216C60.744 395.216 59.32 394.864 58.136 394.16C56.952 393.456 56.04 392.456 55.4 391.16C54.776 389.864 54.464 388.32 54.464 386.528C54.464 384.736 54.776 383.2 55.4 381.92C56.04 380.624 56.952 379.624 58.136 378.92C59.32 378.216 60.744 377.864 62.408 377.864C63.576 377.864 64.656 378.048 65.648 378.416C66.64 378.784 67.472 379.32 68.144 380.024L67.376 381.632C66.64 380.944 65.872 380.448 65.072 380.144C64.288 379.824 63.416 379.664 62.456 379.664C60.552 379.664 59.096 380.264 58.088 381.464C57.08 382.664 56.576 384.352 56.576 386.528C56.576 388.704 57.08 390.4 58.088 391.616C59.096 392.816 60.552 393.416 62.456 393.416C63.416 393.416 64.288 393.264 65.072 392.96C65.872 392.64 66.64 392.136 67.376 391.448L68.144 393.056C67.472 393.744 66.64 394.28 65.648 394.664C64.656 395.032 63.576 395.216 62.408 395.216ZM74.9767 395.216C73.8407 395.216 72.8567 394.968 72.0247 394.472C71.1927 393.976 70.5447 393.28 70.0807 392.384C69.6327 391.472 69.4087 390.4 69.4087 389.168C69.4087 387.936 69.6327 386.872 70.0807 385.976C70.5447 385.064 71.1927 384.36 72.0247 383.864C72.8567 383.368 73.8407 383.12 74.9767 383.12C76.1127 383.12 77.0967 383.368 77.9287 383.864C78.7607 384.36 79.4007 385.064 79.8487 385.976C80.3127 386.872 80.5447 387.936 80.5447 389.168C80.5447 390.4 80.3127 391.472 79.8487 392.384C79.4007 393.28 78.7607 393.976 77.9287 394.472C77.0967 394.968 76.1127 395.216 74.9767 395.216ZM74.9767 393.656C76.0807 393.656 76.9527 393.272 77.5927 392.504C78.2487 391.72 78.5767 390.6 78.5767 389.144C78.5767 387.704 78.2487 386.6 77.5927 385.832C76.9527 385.064 76.0807 384.68 74.9767 384.68C73.8887 384.68 73.0167 385.064 72.3607 385.832C71.7047 386.6 71.3767 387.704 71.3767 389.144C71.3767 390.6 71.7047 391.72 72.3607 392.504C73.0167 393.272 73.8887 393.656 74.9767 393.656ZM83.4646 395V383.336H85.3606V385.928H85.0966C85.4326 385 85.9766 384.304 86.7286 383.84C87.4966 383.36 88.3766 383.12 89.3686 383.12C90.2966 383.12 91.0646 383.288 91.6726 383.624C92.2966 383.944 92.7606 384.448 93.0646 385.136C93.3686 385.824 93.5206 386.688 93.5206 387.728V395H91.5766V387.848C91.5766 387.128 91.4806 386.536 91.2886 386.072C91.1126 385.608 90.8246 385.264 90.4246 385.04C90.0406 384.816 89.5366 384.704 88.9126 384.704C88.2086 384.704 87.5926 384.856 87.0646 385.16C86.5366 385.464 86.1286 385.888 85.8406 386.432C85.5526 386.976 85.4086 387.616 85.4086 388.352V395H83.4646ZM101.041 395.216C100.433 395.216 99.8413 395.152 99.2653 395.024C98.7053 394.912 98.1773 394.752 97.6813 394.544C97.2013 394.32 96.7853 394.056 96.4333 393.752L97.0573 392.384C97.4413 392.688 97.8573 392.944 98.3053 393.152C98.7533 393.344 99.2093 393.488 99.6733 393.584C100.137 393.68 100.609 393.728 101.089 393.728C102.001 393.728 102.689 393.56 103.153 393.224C103.617 392.888 103.849 392.432 103.849 391.856C103.849 391.408 103.697 391.056 103.393 390.8C103.089 390.528 102.609 390.32 101.953 390.176L99.7693 389.696C98.7613 389.488 98.0093 389.128 97.5133 388.616C97.0333 388.104 96.7933 387.44 96.7933 386.624C96.7933 385.904 96.9773 385.288 97.3453 384.776C97.7293 384.248 98.2653 383.84 98.9533 383.552C99.6413 383.264 100.441 383.12 101.353 383.12C101.897 383.12 102.417 383.176 102.913 383.288C103.409 383.4 103.873 383.568 104.305 383.792C104.753 384 105.137 384.264 105.457 384.584L104.809 385.952C104.505 385.664 104.161 385.424 103.777 385.232C103.393 385.024 102.993 384.872 102.577 384.776C102.177 384.664 101.769 384.608 101.353 384.608C100.457 384.608 99.7773 384.784 99.3133 385.136C98.8493 385.488 98.6173 385.952 98.6173 386.528C98.6173 386.976 98.7613 387.344 99.0493 387.632C99.3373 387.92 99.7853 388.128 100.393 388.256L102.577 388.712C103.617 388.936 104.393 389.296 104.905 389.792C105.433 390.272 105.697 390.928 105.697 391.76C105.697 392.464 105.505 393.08 105.121 393.608C104.737 394.12 104.193 394.52 103.489 394.808C102.801 395.08 101.985 395.216 101.041 395.216ZM108.42 380.432V378.248H110.82V380.432H108.42ZM108.66 395V383.336H110.604V395H108.66ZM118.174 395.216C117.566 395.216 116.974 395.152 116.398 395.024C115.838 394.912 115.31 394.752 114.814 394.544C114.334 394.32 113.918 394.056 113.566 393.752L114.19 392.384C114.574 392.688 114.99 392.944 115.438 393.152C115.886 393.344 116.342 393.488 116.806 393.584C117.27 393.68 117.742 393.728 118.222 393.728C119.134 393.728 119.822 393.56 120.286 393.224C120.75 392.888 120.982 392.432 120.982 391.856C120.982 391.408 120.83 391.056 120.526 390.8C120.222 390.528 119.742 390.32 119.086 390.176L116.902 389.696C115.894 389.488 115.142 389.128 114.646 388.616C114.166 388.104 113.926 387.44 113.926 386.624C113.926 385.904 114.11 385.288 114.478 384.776C114.862 384.248 115.398 383.84 116.086 383.552C116.774 383.264 117.574 383.12 118.486 383.12C119.03 383.12 119.55 383.176 120.046 383.288C120.542 383.4 121.006 383.568 121.438 383.792C121.886 384 122.27 384.264 122.59 384.584L121.942 385.952C121.638 385.664 121.294 385.424 120.91 385.232C120.526 385.024 120.126 384.872 119.71 384.776C119.31 384.664 118.902 384.608 118.486 384.608C117.59 384.608 116.91 384.784 116.446 385.136C115.982 385.488 115.75 385.952 115.75 386.528C115.75 386.976 115.894 387.344 116.182 387.632C116.47 387.92 116.918 388.128 117.526 388.256L119.71 388.712C120.75 388.936 121.526 389.296 122.038 389.792C122.566 390.272 122.83 390.928 122.83 391.76C122.83 392.464 122.638 393.08 122.254 393.608C121.87 394.12 121.326 394.52 120.622 394.808C119.934 395.08 119.118 395.216 118.174 395.216ZM130.356 395.216C128.98 395.216 127.948 394.848 127.26 394.112C126.572 393.376 126.228 392.328 126.228 390.968V384.848H123.948V383.336H126.228V379.76H128.172V383.336H131.868V384.848H128.172V390.776C128.172 391.688 128.364 392.384 128.748 392.864C129.132 393.328 129.756 393.56 130.62 393.56C130.876 393.56 131.132 393.528 131.388 393.464C131.644 393.4 131.876 393.336 132.084 393.272L132.42 394.76C132.212 394.872 131.908 394.976 131.508 395.072C131.108 395.168 130.724 395.216 130.356 395.216ZM139.205 395.216C137.973 395.216 136.909 394.976 136.013 394.496C135.133 394 134.445 393.304 133.949 392.408C133.469 391.512 133.229 390.44 133.229 389.192C133.229 387.976 133.469 386.92 133.949 386.024C134.429 385.112 135.085 384.4 135.917 383.888C136.765 383.376 137.741 383.12 138.845 383.12C139.901 383.12 140.805 383.352 141.557 383.816C142.309 384.28 142.885 384.936 143.285 385.784C143.701 386.632 143.909 387.648 143.909 388.832V389.576H134.717V388.304H142.613L142.229 388.616C142.229 387.336 141.941 386.344 141.365 385.64C140.805 384.92 139.981 384.56 138.893 384.56C138.077 384.56 137.381 384.752 136.805 385.136C136.245 385.504 135.821 386.024 135.533 386.696C135.245 387.352 135.101 388.12 135.101 389V389.144C135.101 390.12 135.253 390.944 135.557 391.616C135.877 392.288 136.349 392.8 136.973 393.152C137.597 393.488 138.341 393.656 139.205 393.656C139.893 393.656 140.557 393.552 141.197 393.344C141.853 393.12 142.469 392.76 143.045 392.264L143.717 393.632C143.189 394.112 142.517 394.496 141.701 394.784C140.885 395.072 140.053 395.216 139.205 395.216ZM146.722 395V383.336H148.618V385.928H148.354C148.69 385 149.234 384.304 149.986 383.84C150.754 383.36 151.634 383.12 152.626 383.12C153.554 383.12 154.322 383.288 154.93 383.624C155.554 383.944 156.018 384.448 156.322 385.136C156.626 385.824 156.778 386.688 156.778 387.728V395H154.834V387.848C154.834 387.128 154.738 386.536 154.546 386.072C154.37 385.608 154.082 385.264 153.682 385.04C153.298 384.816 152.794 384.704 152.17 384.704C151.466 384.704 150.85 384.856 150.322 385.16C149.794 385.464 149.386 385.888 149.098 386.432C148.81 386.976 148.666 387.616 148.666 388.352V395H146.722ZM165.307 395.216C164.139 395.216 163.131 394.96 162.283 394.448C161.435 393.936 160.779 393.224 160.315 392.312C159.867 391.384 159.643 390.312 159.643 389.096C159.643 387.864 159.867 386.8 160.315 385.904C160.779 385.008 161.435 384.32 162.283 383.84C163.131 383.36 164.139 383.12 165.307 383.12C166.027 383.12 166.739 383.248 167.443 383.504C168.147 383.76 168.731 384.12 169.195 384.584L168.523 386C168.059 385.552 167.547 385.224 166.987 385.016C166.443 384.808 165.923 384.704 165.427 384.704C164.211 384.704 163.275 385.088 162.619 385.856C161.963 386.608 161.635 387.696 161.635 389.12C161.635 390.512 161.963 391.616 162.619 392.432C163.275 393.232 164.211 393.632 165.427 393.632C165.923 393.632 166.443 393.528 166.987 393.32C167.547 393.112 168.059 392.776 168.523 392.312L169.195 393.728C168.731 394.192 168.139 394.56 167.419 394.832C166.715 395.088 166.011 395.216 165.307 395.216ZM172.91 399.32L175.094 394.4V395.24L169.982 383.336H172.094L176.27 393.56H175.622L179.846 383.336H181.886L174.95 399.32H172.91ZM194.738 395.216C193.362 395.216 192.33 394.848 191.642 394.112C190.954 393.376 190.61 392.328 190.61 390.968V384.848H188.33V383.336H190.61V379.76H192.554V383.336H196.25V384.848H192.554V390.776C192.554 391.688 192.746 392.384 193.13 392.864C193.514 393.328 194.138 393.56 195.002 393.56C195.258 393.56 195.514 393.528 195.77 393.464C196.026 393.4 196.258 393.336 196.466 393.272L196.802 394.76C196.594 394.872 196.29 394.976 195.89 395.072C195.49 395.168 195.106 395.216 194.738 395.216ZM203.18 395.216C202.044 395.216 201.06 394.968 200.228 394.472C199.396 393.976 198.748 393.28 198.284 392.384C197.836 391.472 197.612 390.4 197.612 389.168C197.612 387.936 197.836 386.872 198.284 385.976C198.748 385.064 199.396 384.36 200.228 383.864C201.06 383.368 202.044 383.12 203.18 383.12C204.316 383.12 205.3 383.368 206.132 383.864C206.964 384.36 207.604 385.064 208.052 385.976C208.516 386.872 208.748 387.936 208.748 389.168C208.748 390.4 208.516 391.472 208.052 392.384C207.604 393.28 206.964 393.976 206.132 394.472C205.3 394.968 204.316 395.216 203.18 395.216ZM203.18 393.656C204.284 393.656 205.156 393.272 205.796 392.504C206.452 391.72 206.78 390.6 206.78 389.144C206.78 387.704 206.452 386.6 205.796 385.832C205.156 385.064 204.284 384.68 203.18 384.68C202.092 384.68 201.22 385.064 200.564 385.832C199.908 386.6 199.58 387.704 199.58 389.144C199.58 390.6 199.908 391.72 200.564 392.504C201.22 393.272 202.092 393.656 203.18 393.656ZM222.776 395.216C221.608 395.216 220.6 394.96 219.752 394.448C218.904 393.936 218.248 393.224 217.784 392.312C217.336 391.384 217.112 390.312 217.112 389.096C217.112 387.864 217.336 386.8 217.784 385.904C218.248 385.008 218.904 384.32 219.752 383.84C220.6 383.36 221.608 383.12 222.776 383.12C223.496 383.12 224.208 383.248 224.912 383.504C225.616 383.76 226.2 384.12 226.664 384.584L225.992 386C225.528 385.552 225.016 385.224 224.456 385.016C223.912 384.808 223.392 384.704 222.896 384.704C221.68 384.704 220.744 385.088 220.088 385.856C219.432 386.608 219.104 387.696 219.104 389.12C219.104 390.512 219.432 391.616 220.088 392.432C220.744 393.232 221.68 393.632 222.896 393.632C223.392 393.632 223.912 393.528 224.456 393.32C225.016 393.112 225.528 392.776 225.992 392.312L226.664 393.728C226.2 394.192 225.608 394.56 224.888 394.832C224.184 395.088 223.48 395.216 222.776 395.216ZM228.941 395V378.08H230.885V385.928H230.573C230.909 385 231.453 384.304 232.205 383.84C232.973 383.36 233.853 383.12 234.845 383.12C235.773 383.12 236.541 383.288 237.149 383.624C237.773 383.96 238.237 384.472 238.541 385.16C238.845 385.832 238.997 386.688 238.997 387.728V395H237.053V387.848C237.053 387.128 236.957 386.536 236.765 386.072C236.589 385.608 236.301 385.264 235.901 385.04C235.517 384.816 235.013 384.704 234.389 384.704C233.685 384.704 233.069 384.856 232.541 385.16C232.013 385.464 231.605 385.888 231.317 386.432C231.029 386.976 230.885 387.616 230.885 388.352V395H228.941ZM246.254 395.216C245.454 395.216 244.734 395.064 244.094 394.76C243.47 394.44 242.974 394.008 242.606 393.464C242.238 392.92 242.054 392.312 242.054 391.64C242.054 390.776 242.27 390.096 242.702 389.6C243.15 389.104 243.878 388.752 244.886 388.544C245.91 388.336 247.302 388.232 249.062 388.232H250.142V389.504H249.086C248.11 389.504 247.294 389.536 246.638 389.6C245.982 389.664 245.462 389.776 245.078 389.936C244.694 390.096 244.422 390.304 244.262 390.56C244.102 390.816 244.022 391.136 244.022 391.52C244.022 392.176 244.246 392.712 244.694 393.128C245.158 393.544 245.782 393.752 246.566 393.752C247.206 393.752 247.766 393.6 248.246 393.296C248.742 392.992 249.126 392.576 249.398 392.048C249.686 391.52 249.83 390.912 249.83 390.224V387.488C249.83 386.496 249.63 385.784 249.23 385.352C248.83 384.904 248.174 384.68 247.262 384.68C246.558 384.68 245.878 384.784 245.222 384.992C244.566 385.184 243.894 385.504 243.206 385.952L242.534 384.536C242.95 384.248 243.422 384 243.95 383.792C244.478 383.568 245.03 383.4 245.606 383.288C246.182 383.176 246.734 383.12 247.262 383.12C248.27 383.12 249.102 383.288 249.758 383.624C250.414 383.944 250.902 384.44 251.222 385.112C251.542 385.768 251.702 386.616 251.702 387.656V395H249.878V392.288H250.094C249.966 392.896 249.718 393.416 249.35 393.848C248.998 394.28 248.558 394.616 248.03 394.856C247.502 395.096 246.91 395.216 246.254 395.216ZM259.244 395.216C258.636 395.216 258.044 395.152 257.468 395.024C256.908 394.912 256.38 394.752 255.884 394.544C255.404 394.32 254.988 394.056 254.636 393.752L255.26 392.384C255.644 392.688 256.06 392.944 256.508 393.152C256.956 393.344 257.412 393.488 257.876 393.584C258.34 393.68 258.812 393.728 259.292 393.728C260.204 393.728 260.892 393.56 261.356 393.224C261.82 392.888 262.052 392.432 262.052 391.856C262.052 391.408 261.9 391.056 261.596 390.8C261.292 390.528 260.812 390.32 260.156 390.176L257.972 389.696C256.964 389.488 256.212 389.128 255.716 388.616C255.236 388.104 254.996 387.44 254.996 386.624C254.996 385.904 255.18 385.288 255.548 384.776C255.932 384.248 256.468 383.84 257.156 383.552C257.844 383.264 258.644 383.12 259.556 383.12C260.1 383.12 260.62 383.176 261.116 383.288C261.612 383.4 262.076 383.568 262.508 383.792C262.956 384 263.34 384.264 263.66 384.584L263.012 385.952C262.708 385.664 262.364 385.424 261.98 385.232C261.596 385.024 261.196 384.872 260.78 384.776C260.38 384.664 259.972 384.608 259.556 384.608C258.66 384.608 257.98 384.784 257.516 385.136C257.052 385.488 256.82 385.952 256.82 386.528C256.82 386.976 256.964 387.344 257.252 387.632C257.54 387.92 257.988 388.128 258.596 388.256L260.78 388.712C261.82 388.936 262.596 389.296 263.108 389.792C263.636 390.272 263.9 390.928 263.9 391.76C263.9 392.464 263.708 393.08 263.324 393.608C262.94 394.12 262.396 394.52 261.692 394.808C261.004 395.08 260.188 395.216 259.244 395.216ZM272.119 395.216C270.887 395.216 269.823 394.976 268.927 394.496C268.047 394 267.359 393.304 266.863 392.408C266.383 391.512 266.143 390.44 266.143 389.192C266.143 387.976 266.383 386.92 266.863 386.024C267.343 385.112 267.999 384.4 268.831 383.888C269.679 383.376 270.655 383.12 271.759 383.12C272.815 383.12 273.719 383.352 274.471 383.816C275.223 384.28 275.799 384.936 276.199 385.784C276.615 386.632 276.823 387.648 276.823 388.832V389.576H267.631V388.304H275.527L275.143 388.616C275.143 387.336 274.855 386.344 274.279 385.64C273.719 384.92 272.895 384.56 271.807 384.56C270.991 384.56 270.295 384.752 269.719 385.136C269.159 385.504 268.735 386.024 268.447 386.696C268.159 387.352 268.015 388.12 268.015 389V389.144C268.015 390.12 268.167 390.944 268.471 391.616C268.791 392.288 269.263 392.8 269.887 393.152C270.511 393.488 271.255 393.656 272.119 393.656C272.807 393.656 273.471 393.552 274.111 393.344C274.767 393.12 275.383 392.76 275.959 392.264L276.631 393.632C276.103 394.112 275.431 394.496 274.615 394.784C273.799 395.072 272.967 395.216 272.119 395.216Z"
    fill="#27DE55" />
  <rect x="53" y="127.253" width="24.0683" height="159.84" rx="5" fill="#3E3E3E" />
  <rect x="281.649" y="127.253" width="24.0683" height="159.84" rx="5" fill="#27DE55" />
  <rect x="85.6641" y="127.253" width="24.0683" height="159.84" rx="5" fill="#3E3E3E" />
  <rect x="314.313" y="127.253" width="24.0683" height="159.84" rx="5" fill="#3E3E3E" />
  <rect x="118.328" y="127.253" width="24.0683" height="159.84" rx="5" fill="#27DE55" />
  <rect x="346.977" y="127.253" width="24.0683" height="159.84" rx="5" fill="#3E3E3E" />
  <rect x="248.985" y="127.253" width="24.0683" height="159.84" rx="5" fill="#3E3E3E" />
  <rect x="477.634" y="127.253" width="24.0683" height="159.84" rx="5" fill="#3E3E3E" />
  <rect x="150.992" y="127.253" width="24.0683" height="159.84" rx="5" fill="#3E3E3E" />
  <rect x="379.641" y="127.253" width="24.0683" height="159.84" rx="5" fill="#3E3E3E" />
  <rect x="183.656" y="127.253" width="24.0683" height="159.84" rx="5" fill="#3E3E3E" />
  <rect x="412.305" y="127.253" width="24.0683" height="159.84" rx="5" fill="#27DE55" />
  <rect x="216.32" y="127.253" width="24.0683" height="159.84" rx="5" fill="#3E3E3E" />
  <rect x="444.97" y="127.253" width="24.0683" height="159.84" rx="5" fill="#3E3E3E" />
  <path
    d="M257.482 307.163L262.326 297.783V298.287H256.852V297.293H263.376V298.161L258.756 307.163H257.482Z"
    fill="#888888" />
  <path
    d="M63.7585 307.163V306.183H66.0125V298.287H66.6145L64.2345 299.799L63.7445 298.945L66.3345 297.293H67.1605V306.183H69.2745V307.163H63.7585Z"
    fill="#888888" />
  <path
    d="M484.359 307.163V306.183H486.613V298.287H487.215L484.835 299.799L484.345 298.945L486.935 297.293H487.761V306.183H489.875V307.163H484.359ZM496.296 307.163V305.049H491.746V304.181L496.492 297.293H497.458V304.069H498.928V305.049H497.458V307.163H496.296ZM496.296 304.069V298.679H496.632L492.726 304.377V304.069H496.296Z"
    fill="#888888" />
  <rect x="53" y="440.647" width="24.0683" height="159.841" rx="5" fill="#3E3E3E" />
  <rect x="53" y="523.258" width="24" height="76.8136" rx="5" fill="#3D6D49" />
  <rect x="281.649" y="440.647" width="24.0683" height="159.841" rx="5" fill="#3E3E3E" />
  <rect x="85.6641" y="440.647" width="24.0683" height="159.841" rx="5" fill="#3E3E3E" />
  <rect x="86" y="549.345" width="24" height="50.726" rx="5" fill="#457B51" />
  <rect x="314.313" y="440.647" width="24.0683" height="159.841" rx="5" fill="#3E3E3E" />
  <rect x="118.328" y="440.647" width="24.0683" height="159.841" rx="5" fill="#3E3E3E" />
  <rect x="118" y="459.488" width="24" height="140.583" rx="5" fill="#27DE55" />
  <rect x="346.977" y="440.647" width="24.0683" height="159.841" rx="5" fill="#3E3E3E" />
  <rect x="248.985" y="440.647" width="24.0683" height="159.841" rx="5" fill="#3E3E3E" />
  <rect x="477.634" y="440.647" width="24.0683" height="159.841" rx="5" fill="#3E3E3E" />
  <rect x="150.992" y="440.647" width="24.0683" height="159.841" rx="5" fill="#3E3E3E" />
  <rect x="151" y="569.636" width="24" height="30.4356" rx="5" fill="#525B54" />
  <rect x="379.641" y="440.647" width="24.0683" height="159.841" rx="5" fill="#3E3E3E" />
  <rect x="183.656" y="440.647" width="24.0683" height="159.841" rx="5" fill="#3E3E3E" />
  <rect x="184" y="492.822" width="24" height="107.249" rx="5" fill="#37A252" />
  <rect x="412.305" y="440.647" width="24.0683" height="159.841" rx="5" fill="#3E3E3E" />
  <rect x="216.32" y="440.647" width="24.0683" height="159.841" rx="5" fill="#3E3E3E" />
  <rect x="444.97" y="440.647" width="24.0683" height="159.841" rx="5" fill="#3E3E3E" />
  <rect x="282" y="453.691" width="24" height="146.381" rx="5" fill="#27DE55" />
  <rect x="314" y="523.258" width="24" height="76.8136" rx="5" fill="#3D6D49" />
  <rect x="347" y="492.822" width="24" height="107.249" rx="5" fill="#37A252" />
  <rect x="478" y="492.822" width="24" height="107.249" rx="5" fill="#37A252" />
  <rect x="412" y="492.822" width="24" height="107.249" rx="5" fill="#4FA264" />
  <rect x="216" y="523.258" width="24" height="76.8136" rx="5" fill="#3D6D49" />
  <rect x="445" y="523.258" width="24" height="76.8136" rx="5" fill="#3D6D49" />
  <path
    d="M257.482 620.557L262.326 611.177V611.681H256.852V610.687H263.376V611.555L258.756 620.557H257.482Z"
    fill="#888888" />
  <path
    d="M63.7585 620.557V619.577H66.0125V611.681H66.6145L64.2345 613.193L63.7445 612.339L66.3345 610.687H67.1605V619.577H69.2745V620.557H63.7585Z"
    fill="#888888" />
  <path
    d="M484.359 620.557V619.577H486.613V611.681H487.215L484.835 613.193L484.345 612.339L486.935 610.687H487.761V619.577H489.875V620.557H484.359ZM496.296 620.557V618.443H491.746V617.575L496.492 610.687H497.458V617.463H498.928V618.443H497.458V620.557H496.296ZM496.296 617.463V612.073H496.632L492.726 617.771V617.463H496.296Z"
    fill="#888888" />
</svg>
  