<svg width="1234" height="620" viewBox="0 0 1234 620" fill="none" xmlns="http://www.w3.org/2000/svg">
  <rect width="1234" height="620" rx="60" fill="#1B1B1B" />
  <g opacity="0.4">
    <path
      d="M82.16 123V121.512L87.944 115.272C88.488 114.68 88.928 114.128 89.264 113.616C89.6 113.088 89.848 112.576 90.008 112.08C90.168 111.584 90.248 111.08 90.248 110.568C90.248 109.608 89.952 108.88 89.36 108.384C88.784 107.872 87.936 107.616 86.816 107.616C85.952 107.616 85.144 107.776 84.392 108.096C83.656 108.4 82.952 108.88 82.28 109.536L81.536 108C82.16 107.36 82.952 106.848 83.912 106.464C84.888 106.064 85.912 105.864 86.984 105.864C88.12 105.864 89.08 106.04 89.864 106.392C90.648 106.744 91.24 107.264 91.64 107.952C92.04 108.624 92.24 109.448 92.24 110.424C92.24 110.936 92.176 111.44 92.048 111.936C91.936 112.416 91.752 112.904 91.496 113.4C91.256 113.88 90.944 114.376 90.56 114.888C90.192 115.4 89.744 115.928 89.216 116.472L84.128 121.872V121.32H92.936V123H82.16ZM101.591 123.216C100.311 123.216 99.2226 122.888 98.3266 122.232C97.4466 121.56 96.7826 120.576 96.3346 119.28C95.8866 117.984 95.6626 116.4 95.6626 114.528C95.6626 112.64 95.8866 111.056 96.3346 109.776C96.7826 108.48 97.4466 107.504 98.3266 106.848C99.2226 106.192 100.311 105.864 101.591 105.864C102.887 105.864 103.975 106.192 104.855 106.848C105.735 107.504 106.399 108.472 106.847 109.752C107.295 111.032 107.519 112.616 107.519 114.504C107.519 116.392 107.295 117.984 106.847 119.28C106.399 120.576 105.735 121.56 104.855 122.232C103.975 122.888 102.887 123.216 101.591 123.216ZM101.591 121.512C102.935 121.512 103.927 120.944 104.567 119.808C105.223 118.672 105.551 116.904 105.551 114.504C105.551 112.104 105.231 110.352 104.591 109.248C103.951 108.128 102.951 107.568 101.591 107.568C100.263 107.568 99.2706 108.128 98.6146 109.248C97.9586 110.368 97.6306 112.12 97.6306 114.504C97.6306 116.904 97.9506 118.672 98.5906 119.808C99.2466 120.944 100.247 121.512 101.591 121.512ZM110.941 123V121.512L116.725 115.272C117.269 114.68 117.709 114.128 118.045 113.616C118.381 113.088 118.629 112.576 118.789 112.08C118.949 111.584 119.029 111.08 119.029 110.568C119.029 109.608 118.733 108.88 118.141 108.384C117.565 107.872 116.717 107.616 115.597 107.616C114.733 107.616 113.925 107.776 113.173 108.096C112.437 108.4 111.733 108.88 111.061 109.536L110.317 108C110.941 107.36 111.733 106.848 112.693 106.464C113.669 106.064 114.693 105.864 115.765 105.864C116.901 105.864 117.861 106.04 118.645 106.392C119.429 106.744 120.021 107.264 120.421 107.952C120.821 108.624 121.021 109.448 121.021 110.424C121.021 110.936 120.957 111.44 120.829 111.936C120.717 112.416 120.533 112.904 120.277 113.4C120.037 113.88 119.725 114.376 119.341 114.888C118.973 115.4 118.525 115.928 117.997 116.472L112.909 121.872V121.32H121.717V123H110.941ZM132.22 123V119.376H124.42V117.888L132.556 106.08H134.212V117.696H136.732V119.376H134.212V123H132.22ZM132.22 117.696V108.456H132.796L126.1 118.224V117.696H132.22Z"
      fill="white" />
    <path d="M153.25 111L148.625 115.625L144 111" stroke="white" stroke-width="2"
      stroke-linecap="round" stroke-linejoin="round" />
  </g>
  <path
    d="M85.168 79V70.24L85.6 71.608L78.688 62.08H80.992L86.44 69.616H85.936L91.384 62.08H93.616L86.728 71.608L87.136 70.24V79H85.168ZM98.4784 79.216C97.2464 79.216 96.1824 78.976 95.2864 78.496C94.4064 78 93.7184 77.304 93.2224 76.408C92.7424 75.512 92.5024 74.44 92.5024 73.192C92.5024 71.976 92.7424 70.92 93.2224 70.024C93.7024 69.112 94.3584 68.4 95.1904 67.888C96.0384 67.376 97.0144 67.12 98.1184 67.12C99.1744 67.12 100.078 67.352 100.83 67.816C101.582 68.28 102.158 68.936 102.558 69.784C102.974 70.632 103.182 71.648 103.182 72.832V73.576H93.9904V72.304H101.886L101.502 72.616C101.502 71.336 101.214 70.344 100.638 69.64C100.078 68.92 99.2544 68.56 98.1664 68.56C97.3504 68.56 96.6544 68.752 96.0784 69.136C95.5184 69.504 95.0944 70.024 94.8064 70.696C94.5184 71.352 94.3744 72.12 94.3744 73V73.144C94.3744 74.12 94.5264 74.944 94.8304 75.616C95.1504 76.288 95.6224 76.8 96.2464 77.152C96.8704 77.488 97.6144 77.656 98.4784 77.656C99.1664 77.656 99.8304 77.552 100.47 77.344C101.126 77.12 101.742 76.76 102.318 76.264L102.99 77.632C102.462 78.112 101.79 78.496 100.974 78.784C100.158 79.072 99.3264 79.216 98.4784 79.216ZM109.668 79.216C108.868 79.216 108.148 79.064 107.508 78.76C106.884 78.44 106.388 78.008 106.02 77.464C105.652 76.92 105.468 76.312 105.468 75.64C105.468 74.776 105.684 74.096 106.116 73.6C106.564 73.104 107.292 72.752 108.3 72.544C109.324 72.336 110.716 72.232 112.476 72.232H113.556V73.504H112.5C111.524 73.504 110.708 73.536 110.052 73.6C109.396 73.664 108.876 73.776 108.492 73.936C108.108 74.096 107.836 74.304 107.676 74.56C107.516 74.816 107.436 75.136 107.436 75.52C107.436 76.176 107.66 76.712 108.108 77.128C108.572 77.544 109.196 77.752 109.98 77.752C110.62 77.752 111.18 77.6 111.66 77.296C112.156 76.992 112.54 76.576 112.812 76.048C113.1 75.52 113.244 74.912 113.244 74.224V71.488C113.244 70.496 113.044 69.784 112.644 69.352C112.244 68.904 111.588 68.68 110.676 68.68C109.972 68.68 109.292 68.784 108.636 68.992C107.98 69.184 107.308 69.504 106.62 69.952L105.948 68.536C106.364 68.248 106.836 68 107.364 67.792C107.892 67.568 108.444 67.4 109.02 67.288C109.596 67.176 110.148 67.12 110.676 67.12C111.684 67.12 112.516 67.288 113.172 67.624C113.828 67.944 114.316 68.44 114.636 69.112C114.956 69.768 115.116 70.616 115.116 71.656V79H113.292V76.288H113.508C113.38 76.896 113.132 77.416 112.764 77.848C112.412 78.28 111.972 78.616 111.444 78.856C110.916 79.096 110.324 79.216 109.668 79.216ZM118.722 79V67.336H120.618V70.096H120.378C120.65 69.152 121.122 68.44 121.794 67.96C122.466 67.464 123.354 67.176 124.458 67.096L125.154 67.024L125.298 68.704L124.074 68.848C122.986 68.944 122.146 69.296 121.554 69.904C120.978 70.496 120.69 71.312 120.69 72.352V79H118.722ZM133.488 79V62.08H135.432V69.928H135.12C135.456 69 136 68.304 136.752 67.84C137.52 67.36 138.4 67.12 139.392 67.12C140.32 67.12 141.088 67.288 141.696 67.624C142.32 67.96 142.784 68.472 143.088 69.16C143.392 69.832 143.544 70.688 143.544 71.728V79H141.6V71.848C141.6 71.128 141.504 70.536 141.312 70.072C141.136 69.608 140.848 69.264 140.448 69.04C140.064 68.816 139.56 68.704 138.936 68.704C138.232 68.704 137.616 68.856 137.088 69.16C136.56 69.464 136.152 69.888 135.864 70.432C135.576 70.976 135.432 71.616 135.432 72.352V79H133.488ZM146.889 64.432V62.248H149.289V64.432H146.889ZM147.129 79V67.336H149.073V79H147.129ZM156.643 79.216C156.035 79.216 155.443 79.152 154.867 79.024C154.307 78.912 153.779 78.752 153.283 78.544C152.803 78.32 152.387 78.056 152.035 77.752L152.659 76.384C153.043 76.688 153.459 76.944 153.907 77.152C154.355 77.344 154.811 77.488 155.275 77.584C155.739 77.68 156.211 77.728 156.691 77.728C157.603 77.728 158.291 77.56 158.755 77.224C159.219 76.888 159.451 76.432 159.451 75.856C159.451 75.408 159.299 75.056 158.995 74.8C158.691 74.528 158.211 74.32 157.555 74.176L155.371 73.696C154.363 73.488 153.611 73.128 153.115 72.616C152.635 72.104 152.395 71.44 152.395 70.624C152.395 69.904 152.579 69.288 152.947 68.776C153.331 68.248 153.867 67.84 154.555 67.552C155.243 67.264 156.043 67.12 156.955 67.12C157.499 67.12 158.019 67.176 158.515 67.288C159.011 67.4 159.475 67.568 159.907 67.792C160.355 68 160.739 68.264 161.059 68.584L160.411 69.952C160.107 69.664 159.763 69.424 159.379 69.232C158.995 69.024 158.595 68.872 158.179 68.776C157.779 68.664 157.371 68.608 156.955 68.608C156.059 68.608 155.379 68.784 154.915 69.136C154.451 69.488 154.219 69.952 154.219 70.528C154.219 70.976 154.363 71.344 154.651 71.632C154.939 71.92 155.387 72.128 155.995 72.256L158.179 72.712C159.219 72.936 159.995 73.296 160.507 73.792C161.035 74.272 161.299 74.928 161.299 75.76C161.299 76.464 161.107 77.08 160.723 77.608C160.339 78.12 159.795 78.52 159.091 78.808C158.403 79.08 157.587 79.216 156.643 79.216ZM168.824 79.216C167.448 79.216 166.416 78.848 165.728 78.112C165.04 77.376 164.696 76.328 164.696 74.968V68.848H162.416V67.336H164.696V63.76H166.64V67.336H170.336V68.848H166.64V74.776C166.64 75.688 166.832 76.384 167.216 76.864C167.6 77.328 168.224 77.56 169.088 77.56C169.344 77.56 169.6 77.528 169.856 77.464C170.112 77.4 170.344 77.336 170.552 77.272L170.888 78.76C170.68 78.872 170.376 78.976 169.976 79.072C169.576 79.168 169.192 79.216 168.824 79.216ZM177.266 79.216C176.13 79.216 175.146 78.968 174.314 78.472C173.482 77.976 172.834 77.28 172.37 76.384C171.922 75.472 171.698 74.4 171.698 73.168C171.698 71.936 171.922 70.872 172.37 69.976C172.834 69.064 173.482 68.36 174.314 67.864C175.146 67.368 176.13 67.12 177.266 67.12C178.402 67.12 179.386 67.368 180.218 67.864C181.05 68.36 181.69 69.064 182.138 69.976C182.602 70.872 182.834 71.936 182.834 73.168C182.834 74.4 182.602 75.472 182.138 76.384C181.69 77.28 181.05 77.976 180.218 78.472C179.386 78.968 178.402 79.216 177.266 79.216ZM177.266 77.656C178.37 77.656 179.242 77.272 179.882 76.504C180.538 75.72 180.866 74.6 180.866 73.144C180.866 71.704 180.538 70.6 179.882 69.832C179.242 69.064 178.37 68.68 177.266 68.68C176.178 68.68 175.306 69.064 174.65 69.832C173.994 70.6 173.666 71.704 173.666 73.144C173.666 74.6 173.994 75.72 174.65 76.504C175.306 77.272 176.178 77.656 177.266 77.656ZM185.754 79V67.336H187.65V70.096H187.41C187.682 69.152 188.154 68.44 188.826 67.96C189.498 67.464 190.386 67.176 191.49 67.096L192.186 67.024L192.33 68.704L191.106 68.848C190.018 68.944 189.178 69.296 188.586 69.904C188.01 70.496 187.722 71.312 187.722 72.352V79H185.754ZM196.426 83.32L198.61 78.4V79.24L193.498 67.336H195.61L199.786 77.56H199.138L203.362 67.336H205.402L198.466 83.32H196.426Z"
    fill="white" />
  <path
    d="M85.6577 201.728C84.7777 201.728 83.9457 201.648 83.1617 201.488C82.3937 201.328 81.6817 201.104 81.0257 200.816C80.3857 200.512 79.8017 200.144 79.2737 199.712L79.9697 198.128C80.5137 198.528 81.0657 198.872 81.6257 199.16C82.2017 199.432 82.8177 199.64 83.4737 199.784C84.1457 199.912 84.8737 199.976 85.6577 199.976C87.0977 199.976 88.1617 199.712 88.8497 199.184C89.5537 198.64 89.9057 197.928 89.9057 197.048C89.9057 196.584 89.7937 196.184 89.5697 195.848C89.3617 195.512 89.0097 195.224 88.5137 194.984C88.0337 194.744 87.4017 194.544 86.6177 194.384L84.1217 193.88C82.6177 193.56 81.4897 193.04 80.7377 192.32C80.0017 191.584 79.6337 190.608 79.6337 189.392C79.6337 188.384 79.8897 187.504 80.4017 186.752C80.9297 186 81.6577 185.416 82.5857 185C83.5297 184.584 84.6017 184.376 85.8017 184.376C86.5697 184.376 87.2977 184.456 87.9857 184.616C88.6737 184.776 89.3057 185.016 89.8817 185.336C90.4737 185.64 90.9937 186.016 91.4417 186.464L90.7457 188C90.0257 187.344 89.2657 186.872 88.4657 186.584C87.6657 186.28 86.7697 186.128 85.7777 186.128C84.9297 186.128 84.1937 186.256 83.5697 186.512C82.9617 186.768 82.4817 187.144 82.1297 187.64C81.7937 188.12 81.6257 188.68 81.6257 189.32C81.6257 190.088 81.8577 190.696 82.3217 191.144C82.8017 191.592 83.5777 191.92 84.6497 192.128L87.1457 192.656C88.7617 192.992 89.9537 193.504 90.7217 194.192C91.5057 194.864 91.8977 195.784 91.8977 196.952C91.8977 197.88 91.6417 198.712 91.1297 199.448C90.6337 200.168 89.9137 200.728 88.9697 201.128C88.0417 201.528 86.9377 201.728 85.6577 201.728ZM98.8153 201.728C97.8713 201.728 97.0873 201.56 96.4633 201.224C95.8553 200.872 95.3913 200.352 95.0713 199.664C94.7673 198.976 94.6153 198.12 94.6153 197.096V189.848H96.5593V197.072C96.5593 197.76 96.6473 198.336 96.8233 198.8C97.0153 199.248 97.3113 199.584 97.7113 199.808C98.1113 200.016 98.6073 200.12 99.1993 200.12C99.8713 200.12 100.455 199.968 100.951 199.664C101.447 199.36 101.839 198.936 102.127 198.392C102.415 197.848 102.559 197.208 102.559 196.472V189.848H104.503V201.512H102.607V198.824H102.919C102.599 199.768 102.071 200.488 101.335 200.984C100.615 201.48 99.7753 201.728 98.8153 201.728ZM108.14 201.512V189.848H110.036V192.44H109.772C110.108 191.512 110.652 190.816 111.404 190.352C112.172 189.872 113.052 189.632 114.044 189.632C114.972 189.632 115.74 189.8 116.348 190.136C116.972 190.456 117.436 190.96 117.74 191.648C118.044 192.336 118.196 193.2 118.196 194.24V201.512H116.252V194.36C116.252 193.64 116.156 193.048 115.964 192.584C115.788 192.12 115.5 191.776 115.1 191.552C114.716 191.328 114.212 191.216 113.588 191.216C112.884 191.216 112.268 191.368 111.74 191.672C111.212 191.976 110.804 192.4 110.516 192.944C110.228 193.488 110.084 194.128 110.084 194.864V201.512H108.14Z"
    fill="#888888" />
  <path
    d="M74.5852 249.887V232.967H76.2412L83.1052 245.855H82.3852L89.2012 232.967H90.8572V249.887H89.0332V235.607H89.6092L83.3932 247.271H82.0972L75.8092 235.583H76.3852V249.887H74.5852ZM99.6525 250.103C98.5165 250.103 97.5325 249.855 96.7005 249.359C95.8685 248.863 95.2205 248.167 94.7565 247.271C94.3085 246.359 94.0845 245.287 94.0845 244.055C94.0845 242.823 94.3085 241.759 94.7565 240.863C95.2205 239.951 95.8685 239.247 96.7005 238.751C97.5325 238.255 98.5165 238.007 99.6525 238.007C100.788 238.007 101.772 238.255 102.604 238.751C103.436 239.247 104.076 239.951 104.524 240.863C104.988 241.759 105.22 242.823 105.22 244.055C105.22 245.287 104.988 246.359 104.524 247.271C104.076 248.167 103.436 248.863 102.604 249.359C101.772 249.855 100.788 250.103 99.6525 250.103ZM99.6525 248.543C100.756 248.543 101.628 248.159 102.268 247.391C102.924 246.607 103.252 245.487 103.252 244.031C103.252 242.591 102.924 241.487 102.268 240.719C101.628 239.951 100.756 239.567 99.6525 239.567C98.5645 239.567 97.6925 239.951 97.0365 240.719C96.3805 241.487 96.0525 242.591 96.0525 244.031C96.0525 245.487 96.3805 246.607 97.0365 247.391C97.6925 248.159 98.5645 248.543 99.6525 248.543ZM108.14 249.887V238.223H110.036V240.815H109.772C110.108 239.887 110.652 239.191 111.404 238.727C112.172 238.247 113.052 238.007 114.044 238.007C114.972 238.007 115.74 238.175 116.348 238.511C116.972 238.831 117.436 239.335 117.74 240.023C118.044 240.711 118.196 241.575 118.196 242.615V249.887H116.252V242.735C116.252 242.015 116.156 241.423 115.964 240.959C115.788 240.495 115.5 240.151 115.1 239.927C114.716 239.703 114.212 239.591 113.588 239.591C112.884 239.591 112.268 239.743 111.74 240.047C111.212 240.351 110.804 240.775 110.516 241.319C110.228 241.863 110.084 242.503 110.084 243.239V249.887H108.14Z"
    fill="#888888" />
  <path
    d="M87.2673 298.262V283.046H81.1233V281.342H95.4033V283.046H89.2593V298.262H87.2673ZM99.6825 298.478C98.7385 298.478 97.9545 298.31 97.3305 297.974C96.7225 297.622 96.2585 297.102 95.9385 296.414C95.6345 295.726 95.4825 294.87 95.4825 293.846V286.598H97.4265V293.822C97.4265 294.51 97.5145 295.086 97.6905 295.55C97.8825 295.998 98.1785 296.334 98.5785 296.558C98.9785 296.766 99.4745 296.87 100.066 296.87C100.738 296.87 101.322 296.718 101.818 296.414C102.314 296.11 102.706 295.686 102.994 295.142C103.282 294.598 103.426 293.958 103.426 293.222V286.598H105.37V298.262H103.474V295.574H103.786C103.466 296.518 102.938 297.238 102.202 297.734C101.482 298.23 100.642 298.478 99.6825 298.478ZM114.264 298.478C113.032 298.478 111.968 298.238 111.072 297.758C110.192 297.262 109.504 296.566 109.008 295.67C108.528 294.774 108.288 293.702 108.288 292.454C108.288 291.238 108.528 290.182 109.008 289.286C109.488 288.374 110.144 287.662 110.976 287.15C111.824 286.638 112.8 286.382 113.904 286.382C114.96 286.382 115.864 286.614 116.616 287.078C117.368 287.542 117.944 288.198 118.344 289.046C118.76 289.894 118.968 290.91 118.968 292.094V292.838H109.776V291.566H117.672L117.288 291.878C117.288 290.598 117 289.606 116.424 288.902C115.864 288.182 115.04 287.822 113.952 287.822C113.136 287.822 112.44 288.014 111.864 288.398C111.304 288.766 110.88 289.286 110.592 289.958C110.304 290.614 110.16 291.382 110.16 292.262V292.406C110.16 293.382 110.312 294.206 110.616 294.878C110.936 295.55 111.408 296.062 112.032 296.414C112.656 296.75 113.4 296.918 114.264 296.918C114.952 296.918 115.616 296.814 116.256 296.606C116.912 296.382 117.528 296.022 118.104 295.526L118.776 296.894C118.248 297.374 117.576 297.758 116.76 298.046C115.944 298.334 115.112 298.478 114.264 298.478Z"
    fill="#888888" />
  <path
    d="M74.8316 346.637L68.9036 329.717H70.9676L76.1756 344.957H75.3356L80.6396 329.717H82.2236L87.4556 344.957H86.7116L91.9436 329.717H93.9116L87.9836 346.637H86.2316L81.1436 331.997H81.6716L76.5356 346.637H74.8316ZM100.271 346.853C99.0394 346.853 97.9754 346.613 97.0794 346.133C96.1994 345.637 95.5114 344.941 95.0154 344.045C94.5354 343.149 94.2954 342.077 94.2954 340.829C94.2954 339.613 94.5354 338.557 95.0154 337.661C95.4954 336.749 96.1514 336.037 96.9834 335.525C97.8314 335.013 98.8074 334.757 99.9114 334.757C100.967 334.757 101.871 334.989 102.623 335.453C103.375 335.917 103.951 336.573 104.351 337.421C104.767 338.269 104.975 339.285 104.975 340.469V341.213H95.7834V339.941H103.679L103.295 340.253C103.295 338.973 103.007 337.981 102.431 337.277C101.871 336.557 101.047 336.197 99.9594 336.197C99.1434 336.197 98.4474 336.389 97.8714 336.773C97.3114 337.141 96.8874 337.661 96.5994 338.333C96.3114 338.989 96.1674 339.757 96.1674 340.637V340.781C96.1674 341.757 96.3194 342.581 96.6234 343.253C96.9434 343.925 97.4154 344.437 98.0394 344.789C98.6634 345.125 99.4074 345.293 100.271 345.293C100.959 345.293 101.623 345.189 102.263 344.981C102.919 344.757 103.535 344.397 104.111 343.901L104.783 345.269C104.255 345.749 103.583 346.133 102.767 346.421C101.951 346.709 101.119 346.853 100.271 346.853ZM112.229 346.853C111.189 346.853 110.277 346.605 109.493 346.109C108.725 345.613 108.125 344.917 107.693 344.021C107.277 343.109 107.069 342.037 107.069 340.805C107.069 339.557 107.277 338.485 107.693 337.589C108.125 336.677 108.725 335.981 109.493 335.501C110.277 335.005 111.189 334.757 112.229 334.757C113.285 334.757 114.189 335.021 114.941 335.549C115.693 336.077 116.197 336.789 116.453 337.685H116.189V329.717H118.133V346.637H116.237V343.853H116.477C116.221 344.765 115.709 345.493 114.941 346.037C114.189 346.581 113.285 346.853 112.229 346.853ZM112.637 345.293C113.741 345.293 114.613 344.909 115.253 344.141C115.909 343.357 116.237 342.245 116.237 340.805C116.237 339.349 115.909 338.237 115.253 337.469C114.613 336.701 113.741 336.317 112.637 336.317C111.549 336.317 110.677 336.701 110.021 337.469C109.365 338.237 109.037 339.349 109.037 340.805C109.037 342.245 109.365 343.357 110.021 344.141C110.677 344.909 111.549 345.293 112.637 345.293Z"
    fill="#888888" />
  <path
    d="M84.6658 395.012V379.796H78.5218V378.092H92.8018V379.796H86.6578V395.012H84.6658ZM94.6873 395.012V378.092H96.6313V385.94H96.3193C96.6553 385.012 97.1993 384.316 97.9513 383.852C98.7193 383.372 99.5993 383.132 100.591 383.132C101.519 383.132 102.287 383.3 102.895 383.636C103.519 383.972 103.983 384.484 104.287 385.172C104.591 385.844 104.743 386.7 104.743 387.74V395.012H102.799V387.86C102.799 387.14 102.703 386.548 102.511 386.084C102.335 385.62 102.047 385.276 101.647 385.052C101.263 384.828 100.759 384.716 100.135 384.716C99.4313 384.716 98.8153 384.868 98.2873 385.172C97.7593 385.476 97.3513 385.9 97.0633 386.444C96.7753 386.988 96.6313 387.628 96.6313 388.364V395.012H94.6873ZM112.456 395.228C111.512 395.228 110.728 395.06 110.104 394.724C109.496 394.372 109.032 393.852 108.712 393.164C108.408 392.476 108.256 391.62 108.256 390.596V383.348H110.2V390.572C110.2 391.26 110.288 391.836 110.464 392.3C110.656 392.748 110.952 393.084 111.352 393.308C111.752 393.516 112.248 393.62 112.84 393.62C113.512 393.62 114.096 393.468 114.592 393.164C115.088 392.86 115.48 392.436 115.768 391.892C116.056 391.348 116.2 390.708 116.2 389.972V383.348H118.144V395.012H116.248V392.324H116.56C116.24 393.268 115.712 393.988 114.976 394.484C114.256 394.98 113.416 395.228 112.456 395.228Z"
    fill="#888888" />
  <path
    d="M94.9513 443.387V426.467H105.415V428.123H96.9193V434.027H104.935V435.683H96.9193V443.387H94.9513ZM107.601 443.387V431.723H109.497V434.483H109.257C109.529 433.539 110.001 432.827 110.673 432.347C111.345 431.851 112.233 431.563 113.337 431.483L114.033 431.411L114.177 433.091L112.953 433.235C111.865 433.331 111.025 433.683 110.433 434.291C109.857 434.883 109.569 435.699 109.569 436.739V443.387H107.601ZM115.963 428.819V426.635H118.363V428.819H115.963ZM116.203 443.387V431.723H118.147V443.387H116.203Z"
    fill="#888888" />
  <path
    d="M91.6342 491.978C90.7542 491.978 89.9222 491.898 89.1382 491.738C88.3702 491.578 87.6582 491.354 87.0022 491.066C86.3622 490.762 85.7782 490.394 85.2502 489.962L85.9462 488.378C86.4902 488.778 87.0422 489.122 87.6022 489.41C88.1782 489.682 88.7942 489.89 89.4502 490.034C90.1222 490.162 90.8502 490.226 91.6342 490.226C93.0742 490.226 94.1382 489.962 94.8262 489.434C95.5302 488.89 95.8822 488.178 95.8822 487.298C95.8822 486.834 95.7702 486.434 95.5462 486.098C95.3382 485.762 94.9862 485.474 94.4902 485.234C94.0102 484.994 93.3782 484.794 92.5942 484.634L90.0982 484.13C88.5942 483.81 87.4662 483.29 86.7142 482.57C85.9782 481.834 85.6102 480.858 85.6102 479.642C85.6102 478.634 85.8662 477.754 86.3782 477.002C86.9062 476.25 87.6342 475.666 88.5622 475.25C89.5062 474.834 90.5782 474.626 91.7782 474.626C92.5462 474.626 93.2742 474.706 93.9622 474.866C94.6502 475.026 95.2822 475.266 95.8582 475.586C96.4502 475.89 96.9702 476.266 97.4182 476.714L96.7222 478.25C96.0022 477.594 95.2422 477.122 94.4422 476.834C93.6422 476.53 92.7462 476.378 91.7542 476.378C90.9062 476.378 90.1702 476.506 89.5462 476.762C88.9382 477.018 88.4582 477.394 88.1062 477.89C87.7702 478.37 87.6022 478.93 87.6022 479.57C87.6022 480.338 87.8342 480.946 88.2982 481.394C88.7782 481.842 89.5542 482.17 90.6262 482.378L93.1222 482.906C94.7382 483.242 95.9302 483.754 96.6982 484.442C97.4822 485.114 97.8742 486.034 97.8742 487.202C97.8742 488.13 97.6182 488.962 97.1062 489.698C96.6102 490.418 95.8902 490.978 94.9462 491.378C94.0182 491.778 92.9142 491.978 91.6342 491.978ZM104.336 491.978C103.536 491.978 102.816 491.826 102.176 491.522C101.552 491.202 101.056 490.77 100.688 490.226C100.32 489.682 100.136 489.074 100.136 488.402C100.136 487.538 100.352 486.858 100.784 486.362C101.232 485.866 101.96 485.514 102.968 485.306C103.992 485.098 105.384 484.994 107.144 484.994H108.224V486.266H107.168C106.192 486.266 105.376 486.298 104.72 486.362C104.064 486.426 103.544 486.538 103.16 486.698C102.776 486.858 102.504 487.066 102.344 487.322C102.184 487.578 102.104 487.898 102.104 488.282C102.104 488.938 102.328 489.474 102.776 489.89C103.24 490.306 103.864 490.514 104.648 490.514C105.288 490.514 105.848 490.362 106.328 490.058C106.824 489.754 107.208 489.338 107.48 488.81C107.768 488.282 107.912 487.674 107.912 486.986V484.25C107.912 483.258 107.712 482.546 107.312 482.114C106.912 481.666 106.256 481.442 105.344 481.442C104.64 481.442 103.96 481.546 103.304 481.754C102.648 481.946 101.976 482.266 101.288 482.714L100.616 481.298C101.032 481.01 101.504 480.762 102.032 480.554C102.56 480.33 103.112 480.162 103.688 480.05C104.264 479.938 104.816 479.882 105.344 479.882C106.352 479.882 107.184 480.05 107.84 480.386C108.496 480.706 108.984 481.202 109.304 481.874C109.624 482.53 109.784 483.378 109.784 484.418V491.762H107.96V489.05H108.176C108.048 489.658 107.8 490.178 107.432 490.61C107.08 491.042 106.64 491.378 106.112 491.618C105.584 491.858 104.992 491.978 104.336 491.978ZM118.07 491.978C116.694 491.978 115.662 491.61 114.974 490.874C114.286 490.138 113.942 489.09 113.942 487.73V481.61H111.662V480.098H113.942V476.522H115.886V480.098H119.582V481.61H115.886V487.538C115.886 488.45 116.078 489.146 116.462 489.626C116.846 490.09 117.47 490.322 118.334 490.322C118.59 490.322 118.846 490.29 119.102 490.226C119.358 490.162 119.59 490.098 119.798 490.034L120.134 491.522C119.926 491.634 119.622 491.738 119.222 491.834C118.822 491.93 118.438 491.978 118.07 491.978Z"
    fill="#888888" />
  <path
    d="M144.049 549.375L143.905 547.719L145.345 547.623C145.905 547.575 146.369 547.439 146.737 547.215C147.105 546.975 147.385 546.639 147.577 546.207C147.769 545.775 147.865 545.271 147.865 544.695V532.287H149.833V544.719C149.833 545.631 149.673 546.423 149.353 547.095C149.033 547.751 148.561 548.263 147.937 548.631C147.313 548.999 146.537 549.215 145.609 549.279L144.049 549.375ZM157.422 549.423C156.622 549.423 155.902 549.271 155.262 548.967C154.638 548.647 154.142 548.215 153.774 547.671C153.406 547.127 153.222 546.519 153.222 545.847C153.222 544.983 153.438 544.303 153.87 543.807C154.318 543.311 155.046 542.959 156.054 542.751C157.078 542.543 158.47 542.439 160.23 542.439H161.31V543.711H160.254C159.278 543.711 158.462 543.743 157.806 543.807C157.15 543.871 156.63 543.983 156.246 544.143C155.862 544.303 155.59 544.511 155.43 544.767C155.27 545.023 155.19 545.343 155.19 545.727C155.19 546.383 155.414 546.919 155.862 547.335C156.326 547.751 156.95 547.959 157.734 547.959C158.374 547.959 158.934 547.807 159.414 547.503C159.91 547.199 160.294 546.783 160.566 546.255C160.854 545.727 160.998 545.119 160.998 544.431V541.695C160.998 540.703 160.798 539.991 160.398 539.559C159.998 539.111 159.342 538.887 158.43 538.887C157.726 538.887 157.046 538.991 156.39 539.199C155.734 539.391 155.062 539.711 154.374 540.159L153.702 538.743C154.118 538.455 154.59 538.207 155.118 537.999C155.646 537.775 156.198 537.607 156.774 537.495C157.35 537.383 157.902 537.327 158.43 537.327C159.438 537.327 160.27 537.495 160.926 537.831C161.582 538.151 162.07 538.647 162.39 539.319C162.71 539.975 162.87 540.823 162.87 541.863V549.207H161.046V546.495H161.262C161.134 547.103 160.886 547.623 160.518 548.055C160.166 548.487 159.726 548.823 159.198 549.063C158.67 549.303 158.078 549.423 157.422 549.423ZM166.476 549.207V537.543H168.372V540.135H168.108C168.444 539.207 168.988 538.511 169.74 538.047C170.508 537.567 171.388 537.327 172.38 537.327C173.308 537.327 174.076 537.495 174.684 537.831C175.308 538.151 175.772 538.655 176.076 539.343C176.38 540.031 176.532 540.895 176.532 541.935V549.207H174.588V542.055C174.588 541.335 174.492 540.743 174.3 540.279C174.124 539.815 173.836 539.471 173.436 539.247C173.052 539.023 172.548 538.911 171.924 538.911C171.22 538.911 170.604 539.063 170.076 539.367C169.548 539.671 169.14 540.095 168.852 540.639C168.564 541.183 168.42 541.823 168.42 542.559V549.207H166.476Z"
    fill="#888888" />
  <path
    d="M351.826 549.207V532.287H362.29V533.943H353.794V539.847H361.81V541.503H353.794V549.207H351.826ZM369.521 549.423C368.289 549.423 367.225 549.183 366.329 548.703C365.449 548.207 364.761 547.511 364.265 546.615C363.785 545.719 363.545 544.647 363.545 543.399C363.545 542.183 363.785 541.127 364.265 540.231C364.745 539.319 365.401 538.607 366.233 538.095C367.081 537.583 368.057 537.327 369.161 537.327C370.217 537.327 371.121 537.559 371.873 538.023C372.625 538.487 373.201 539.143 373.601 539.991C374.017 540.839 374.225 541.855 374.225 543.039V543.783H365.033V542.511H372.929L372.545 542.823C372.545 541.543 372.257 540.551 371.681 539.847C371.121 539.127 370.297 538.767 369.209 538.767C368.393 538.767 367.697 538.959 367.121 539.343C366.561 539.711 366.137 540.231 365.849 540.903C365.561 541.559 365.417 542.327 365.417 543.207V543.351C365.417 544.327 365.569 545.151 365.873 545.823C366.193 546.495 366.665 547.007 367.289 547.359C367.913 547.695 368.657 547.863 369.521 547.863C370.209 547.863 370.873 547.759 371.513 547.551C372.169 547.327 372.785 546.967 373.361 546.471L374.033 547.839C373.505 548.319 372.833 548.703 372.017 548.991C371.201 549.279 370.369 549.423 369.521 549.423ZM382.943 549.423C381.887 549.423 380.975 549.151 380.207 548.607C379.455 548.063 378.951 547.335 378.695 546.423H378.935V549.207H377.039V532.287H378.983V540.255H378.695C378.967 539.359 379.479 538.647 380.231 538.119C380.983 537.591 381.887 537.327 382.943 537.327C383.999 537.327 384.911 537.575 385.679 538.071C386.447 538.551 387.039 539.247 387.455 540.159C387.887 541.055 388.103 542.127 388.103 543.375C388.103 544.607 387.887 545.679 387.455 546.591C387.039 547.487 386.439 548.183 385.655 548.679C384.887 549.175 383.983 549.423 382.943 549.423ZM382.535 547.863C383.639 547.863 384.511 547.479 385.151 546.711C385.807 545.927 386.135 544.815 386.135 543.375C386.135 541.919 385.807 540.807 385.151 540.039C384.511 539.271 383.639 538.887 382.535 538.887C381.447 538.887 380.575 539.271 379.919 540.039C379.263 540.807 378.935 541.919 378.935 543.375C378.935 544.815 379.263 545.927 379.919 546.711C380.575 547.479 381.447 547.863 382.535 547.863Z"
    fill="#888888" />
  <path
    d="M557.468 549.207V532.287H559.124L565.988 545.175H565.268L572.084 532.287H573.74V549.207H571.916V534.927H572.492L566.276 546.591H564.98L558.692 534.903H559.268V549.207H557.468ZM581.359 549.423C580.559 549.423 579.839 549.271 579.199 548.967C578.575 548.647 578.079 548.215 577.711 547.671C577.343 547.127 577.159 546.519 577.159 545.847C577.159 544.983 577.375 544.303 577.807 543.807C578.255 543.311 578.983 542.959 579.991 542.751C581.015 542.543 582.407 542.439 584.167 542.439H585.247V543.711H584.191C583.215 543.711 582.399 543.743 581.743 543.807C581.087 543.871 580.567 543.983 580.183 544.143C579.799 544.303 579.527 544.511 579.367 544.767C579.207 545.023 579.127 545.343 579.127 545.727C579.127 546.383 579.351 546.919 579.799 547.335C580.263 547.751 580.887 547.959 581.671 547.959C582.311 547.959 582.871 547.807 583.351 547.503C583.847 547.199 584.231 546.783 584.503 546.255C584.791 545.727 584.935 545.119 584.935 544.431V541.695C584.935 540.703 584.735 539.991 584.335 539.559C583.935 539.111 583.279 538.887 582.367 538.887C581.663 538.887 580.983 538.991 580.327 539.199C579.671 539.391 578.999 539.711 578.311 540.159L577.639 538.743C578.055 538.455 578.527 538.207 579.055 537.999C579.583 537.775 580.135 537.607 580.711 537.495C581.287 537.383 581.839 537.327 582.367 537.327C583.375 537.327 584.207 537.495 584.863 537.831C585.519 538.151 586.007 538.647 586.327 539.319C586.647 539.975 586.807 540.823 586.807 541.863V549.207H584.983V546.495H585.199C585.071 547.103 584.823 547.623 584.455 548.055C584.103 548.487 583.663 548.823 583.135 549.063C582.607 549.303 582.015 549.423 581.359 549.423ZM590.414 549.207V537.543H592.31V540.303H592.07C592.342 539.359 592.814 538.647 593.486 538.167C594.158 537.671 595.046 537.383 596.15 537.303L596.846 537.231L596.99 538.911L595.766 539.055C594.678 539.151 593.838 539.503 593.246 540.111C592.67 540.703 592.382 541.519 592.382 542.559V549.207H590.414Z"
    fill="#888888" />
  <path
    d="M762.894 549.207L770.358 532.287H772.038L779.502 549.207H777.462L775.374 544.383L776.334 544.887H766.014L766.998 544.383L764.934 549.207H762.894ZM771.174 534.591L767.31 543.687L766.734 543.231H775.614L775.086 543.687L771.222 534.591H771.174ZM781.746 553.527V537.543H783.642V540.303H783.402C783.658 539.391 784.162 538.671 784.914 538.143C785.682 537.599 786.594 537.327 787.65 537.327C788.69 537.327 789.594 537.575 790.362 538.071C791.146 538.551 791.746 539.247 792.162 540.159C792.594 541.055 792.81 542.127 792.81 543.375C792.81 544.607 792.594 545.679 792.162 546.591C791.746 547.487 791.154 548.183 790.386 548.679C789.618 549.175 788.706 549.423 787.65 549.423C786.594 549.423 785.69 549.159 784.938 548.631C784.186 548.087 783.674 547.367 783.402 546.471H783.69V553.527H781.746ZM787.242 547.863C788.346 547.863 789.218 547.479 789.858 546.711C790.514 545.927 790.842 544.815 790.842 543.375C790.842 541.919 790.514 540.807 789.858 540.039C789.218 539.271 788.346 538.887 787.242 538.887C786.154 538.887 785.282 539.271 784.626 540.039C783.97 540.807 783.642 541.919 783.642 543.375C783.642 544.815 783.97 545.927 784.626 546.711C785.282 547.479 786.154 547.863 787.242 547.863ZM795.738 549.207V537.543H797.634V540.303H797.394C797.666 539.359 798.138 538.647 798.81 538.167C799.482 537.671 800.37 537.383 801.474 537.303L802.17 537.231L802.314 538.911L801.09 539.055C800.002 539.151 799.162 539.503 798.57 540.111C797.994 540.703 797.706 541.519 797.706 542.559V549.207H795.738Z"
    fill="#888888" />
  <path
    d="M968.136 549.207V532.287H969.792L976.656 545.175H975.936L982.752 532.287H984.408V549.207H982.584V534.927H983.16L976.944 546.591H975.648L969.36 534.903H969.936V549.207H968.136ZM992.027 549.423C991.227 549.423 990.507 549.271 989.867 548.967C989.243 548.647 988.747 548.215 988.379 547.671C988.011 547.127 987.827 546.519 987.827 545.847C987.827 544.983 988.043 544.303 988.475 543.807C988.923 543.311 989.651 542.959 990.659 542.751C991.683 542.543 993.075 542.439 994.835 542.439H995.915V543.711H994.859C993.883 543.711 993.067 543.743 992.411 543.807C991.755 543.871 991.235 543.983 990.851 544.143C990.467 544.303 990.195 544.511 990.035 544.767C989.875 545.023 989.795 545.343 989.795 545.727C989.795 546.383 990.019 546.919 990.467 547.335C990.931 547.751 991.555 547.959 992.339 547.959C992.979 547.959 993.539 547.807 994.019 547.503C994.515 547.199 994.899 546.783 995.171 546.255C995.459 545.727 995.603 545.119 995.603 544.431V541.695C995.603 540.703 995.403 539.991 995.003 539.559C994.603 539.111 993.947 538.887 993.035 538.887C992.331 538.887 991.651 538.991 990.995 539.199C990.339 539.391 989.667 539.711 988.979 540.159L988.307 538.743C988.723 538.455 989.195 538.207 989.723 537.999C990.251 537.775 990.803 537.607 991.379 537.495C991.955 537.383 992.507 537.327 993.035 537.327C994.043 537.327 994.875 537.495 995.531 537.831C996.187 538.151 996.675 538.647 996.995 539.319C997.315 539.975 997.475 540.823 997.475 541.863V549.207H995.651V546.495H995.867C995.739 547.103 995.491 547.623 995.123 548.055C994.771 548.487 994.331 548.823 993.803 549.063C993.275 549.303 992.683 549.423 992.027 549.423ZM1000.84 534.639V532.455H1003.24V534.639H1000.84ZM1001.08 549.207V537.543H1003.03V549.207H1001.08Z"
    fill="#888888" />
  <rect x="144.145" y="176" width="44.0058" height="39.5165" rx="5" fill="#3E3E3E" />
  <rect x="196.281" y="176" width="43.0491" height="39.5165" rx="5" fill="#3E3E3E" />
  <rect x="247.462" y="176" width="44.0058" height="39.5165" rx="5" fill="#3D6D49" />
  <rect x="299.599" y="176" width="42.0925" height="39.5165" rx="5" fill="#3E3E3E" />
  <rect x="349.822" y="176" width="44.0058" height="39.5165" rx="5" fill="#27DE54" />
  <rect x="144.145" y="224.587" width="44.0058" height="39.5165" rx="5" fill="#27DE55" />
  <rect x="196.281" y="224.587" width="43.0491" height="39.5165" rx="5" fill="#27DE55" />
  <rect x="247.462" y="224.587" width="44.0058" height="39.5165" rx="5" fill="#3D6D49" />
  <rect x="299.599" y="224.587" width="42.0925" height="39.5165" rx="5" fill="#3D6D49" />
  <rect x="349.822" y="224.587" width="44.0058" height="39.5165" rx="5" fill="#3D6D49" />
  <rect x="144.145" y="273.174" width="44.0058" height="38.6574" rx="5" fill="#3E3E3E" />
  <rect x="196.281" y="273.174" width="43.0491" height="38.6574" rx="5" fill="#27DE55" />
  <rect x="247.462" y="273.174" width="44.0058" height="38.6574" rx="5" fill="#3D6D49" />
  <rect x="299.599" y="273.174" width="42.0925" height="38.6574" rx="5" fill="#3E3E3E" />
  <rect x="349.822" y="273.174" width="44.0058" height="38.6574" rx="5" fill="#3D6D49" />
  <rect x="144.145" y="320.902" width="44.0058" height="39.5165" rx="5" fill="#27DE55" />
  <rect x="144.145" y="418.076" width="44.0058" height="39.5165" rx="5" fill="#27DE55" />
  <rect x="196.281" y="320.902" width="43.0491" height="39.5165" rx="5" fill="#27DE55" />
  <rect x="196.281" y="418.076" width="43.0491" height="39.5165" rx="5" fill="#27DE55" />
  <rect x="247.462" y="320.902" width="44.0058" height="39.5165" rx="5" fill="#3E3E3E" />
  <rect x="247.462" y="418.075" width="44.0058" height="39.5165" rx="5" fill="#3E3E3E" />
  <rect x="299.599" y="320.902" width="42.0925" height="39.5165" rx="5" fill="#3D6D49" />
  <rect x="299.598" y="418.075" width="42.0925" height="39.5165" rx="5" fill="#3D6D49" />
  <rect x="349.822" y="320.901" width="44.0058" height="39.5165" rx="5" fill="#3E3E3E" />
  <rect x="349.822" y="418.075" width="44.0058" height="39.5165" rx="5" fill="#3E3E3E" />
  <rect x="144.145" y="369.489" width="44.0058" height="39.5165" rx="5" fill="#27DE55" />
  <rect x="144.145" y="466.663" width="44.0058" height="39.5165" rx="5" fill="#27DE55" />
  <rect x="196.281" y="369.489" width="43.0491" height="39.5165" rx="5" fill="#3E3E3E" />
  <rect x="196.281" y="466.663" width="43.0491" height="39.5165" rx="5" fill="#3E3E3E" />
  <rect x="247.462" y="369.489" width="44.0058" height="39.5165" rx="5" fill="#3E3E3E" />
  <rect x="247.462" y="466.662" width="44.0058" height="39.5165" rx="5" fill="#3E3E3E" />
  <rect x="299.599" y="369.489" width="42.0925" height="39.5165" rx="5" fill="#27DE55" />
  <rect x="299.599" y="466.662" width="42.0925" height="39.5165" rx="5" fill="#27DE55" />
  <rect x="349.822" y="369.488" width="44.0058" height="39.5165" rx="5" fill="#3E3E3E" />
  <rect x="349.822" y="466.662" width="44.0058" height="39.5165" rx="5" fill="#3E3E3E" />
  <rect x="400.283" y="176" width="44.0058" height="39.5165" rx="5" fill="#3E3E3E" />
  <rect x="452.42" y="176" width="43.0491" height="39.5165" rx="5" fill="#3E3E3E" />
  <rect x="503.6" y="176" width="44.0058" height="39.5165" rx="5" fill="#3D6D49" />
  <rect x="555.737" y="176" width="42.0925" height="39.5165" rx="5" fill="#3E3E3E" />
  <rect x="605.961" y="176" width="44.0058" height="39.5165" rx="5" fill="#27DE54" />
  <rect x="400.283" y="224.587" width="44.0058" height="39.5165" rx="5" fill="#27DE55" />
  <rect x="452.42" y="224.587" width="43.0491" height="39.5165" rx="5" fill="#27DE55" />
  <rect x="503.6" y="224.587" width="44.0058" height="39.5165" rx="5" fill="#3D6D49" />
  <rect x="555.737" y="224.587" width="42.0925" height="39.5165" rx="5" fill="#3D6D49" />
  <rect x="605.961" y="224.587" width="44.0058" height="39.5165" rx="5" fill="#3D6D49" />
  <rect x="400.283" y="273.174" width="44.0058" height="38.6574" rx="5" fill="#3E3E3E" />
  <rect x="452.42" y="273.174" width="43.0491" height="38.6574" rx="5" fill="#27DE55" />
  <rect x="503.6" y="273.174" width="44.0058" height="38.6574" rx="5" fill="#3D6D49" />
  <rect x="555.737" y="273.174" width="42.0925" height="38.6574" rx="5" fill="#3E3E3E" />
  <rect x="605.961" y="273.174" width="44.0058" height="38.6574" rx="5" fill="#3D6D49" />
  <rect x="400.283" y="320.902" width="44.0058" height="39.5165" rx="5" fill="#27DE55" />
  <rect x="400.283" y="418.076" width="44.0058" height="39.5165" rx="5" fill="#27DE55" />
  <rect x="452.42" y="320.902" width="43.0491" height="39.5165" rx="5" fill="#27DE55" />
  <rect x="452.42" y="418.076" width="43.0491" height="39.5165" rx="5" fill="#27DE55" />
  <rect x="503.6" y="320.902" width="44.0058" height="39.5165" rx="5" fill="#3E3E3E" />
  <rect x="503.6" y="418.075" width="44.0058" height="39.5165" rx="5" fill="#3E3E3E" />
  <rect x="555.737" y="320.902" width="42.0925" height="39.5165" rx="5" fill="#3D6D49" />
  <rect x="555.737" y="418.075" width="42.0925" height="39.5165" rx="5" fill="#3D6D49" />
  <rect x="605.961" y="320.901" width="44.0058" height="39.5165" rx="5" fill="#3E3E3E" />
  <rect x="605.961" y="418.075" width="44.0058" height="39.5165" rx="5" fill="#3E3E3E" />
  <rect x="400.283" y="369.489" width="44.0058" height="39.5165" rx="5" fill="#27DE55" />
  <rect x="400.283" y="466.663" width="44.0058" height="39.5165" rx="5" fill="#27DE55" />
  <rect x="452.42" y="369.489" width="43.0491" height="39.5165" rx="5" fill="#3E3E3E" />
  <rect x="452.42" y="466.663" width="43.0491" height="39.5165" rx="5" fill="#3E3E3E" />
  <rect x="503.6" y="369.489" width="44.0058" height="39.5165" rx="5" fill="#3E3E3E" />
  <rect x="503.6" y="466.662" width="44.0058" height="39.5165" rx="5" fill="#3E3E3E" />
  <rect x="555.737" y="369.489" width="42.0925" height="39.5165" rx="5" fill="#27DE55" />
  <rect x="555.737" y="466.662" width="42.0925" height="39.5165" rx="5" fill="#27DE55" />
  <rect x="605.961" y="369.488" width="44.0058" height="39.5165" rx="5" fill="#3E3E3E" />
  <rect x="605.961" y="466.662" width="44.0058" height="39.5165" rx="5" fill="#3E3E3E" />
  <rect x="659.391" y="176" width="44.0058" height="39.5165" rx="5" fill="#3E3E3E" />
  <rect x="711.528" y="176" width="43.0491" height="39.5165" rx="5" fill="#3E3E3E" />
  <rect x="762.708" y="176" width="44.0058" height="39.5165" rx="5" fill="#3D6D49" />
  <rect x="814.845" y="176" width="42.0925" height="39.5165" rx="5" fill="#3E3E3E" />
  <rect x="865.068" y="176" width="44.0058" height="39.5165" rx="5" fill="#27DE54" />
  <rect x="659.391" y="224.587" width="44.0058" height="39.5165" rx="5" fill="#27DE55" />
  <rect x="711.528" y="224.587" width="43.0491" height="39.5165" rx="5" fill="#27DE55" />
  <rect x="762.708" y="224.587" width="44.0058" height="39.5165" rx="5" fill="#3D6D49" />
  <rect x="814.845" y="224.587" width="42.0925" height="39.5165" rx="5" fill="#3D6D49" />
  <rect x="865.068" y="224.587" width="44.0058" height="39.5165" rx="5" fill="#3D6D49" />
  <rect x="659.391" y="273.174" width="44.0058" height="38.6574" rx="5" fill="#3E3E3E" />
  <rect x="711.528" y="273.174" width="43.0491" height="38.6574" rx="5" fill="#27DE55" />
  <rect x="762.708" y="273.174" width="44.0058" height="38.6574" rx="5" fill="#3D6D49" />
  <rect x="814.845" y="273.174" width="42.0925" height="38.6574" rx="5" fill="#3E3E3E" />
  <rect x="865.068" y="273.174" width="44.0058" height="38.6574" rx="5" fill="#3D6D49" />
  <rect x="659.391" y="320.902" width="44.0058" height="39.5165" rx="5" fill="#27DE55" />
  <rect x="659.391" y="418.076" width="44.0058" height="39.5165" rx="5" fill="#27DE55" />
  <rect x="711.528" y="320.902" width="43.0491" height="39.5165" rx="5" fill="#27DE55" />
  <rect x="711.528" y="418.076" width="43.0491" height="39.5165" rx="5" fill="#27DE55" />
  <rect x="762.708" y="320.902" width="44.0058" height="39.5165" rx="5" fill="#3E3E3E" />
  <rect x="762.708" y="418.075" width="44.0058" height="39.5165" rx="5" fill="#3E3E3E" />
  <rect x="814.845" y="320.902" width="42.0925" height="39.5165" rx="5" fill="#3D6D49" />
  <rect x="814.844" y="418.075" width="42.0925" height="39.5165" rx="5" fill="#3D6D49" />
  <rect x="865.068" y="320.901" width="44.0058" height="39.5165" rx="5" fill="#3E3E3E" />
  <rect x="865.068" y="418.075" width="44.0058" height="39.5165" rx="5" fill="#3E3E3E" />
  <rect x="659.391" y="369.489" width="44.0058" height="39.5165" rx="5" fill="#27DE55" />
  <rect x="659.391" y="466.663" width="44.0058" height="39.5165" rx="5" fill="#27DE55" />
  <rect x="711.528" y="369.489" width="43.0491" height="39.5165" rx="5" fill="#3E3E3E" />
  <rect x="711.528" y="466.663" width="43.0491" height="39.5165" rx="5" fill="#3E3E3E" />
  <rect x="762.708" y="369.489" width="44.0058" height="39.5165" rx="5" fill="#3E3E3E" />
  <rect x="762.708" y="466.662" width="44.0058" height="39.5165" rx="5" fill="#3E3E3E" />
  <rect x="814.845" y="369.489" width="42.0925" height="39.5165" rx="5" fill="#27DE55" />
  <rect x="814.845" y="466.662" width="42.0925" height="39.5165" rx="5" fill="#27DE55" />
  <rect x="865.068" y="369.488" width="44.0058" height="39.5165" rx="5" fill="#3E3E3E" />
  <rect x="865.068" y="466.662" width="44.0058" height="39.5165" rx="5" fill="#3E3E3E" />
  <rect x="915.121" y="176" width="44.0058" height="39.5165" rx="5" fill="#3E3E3E" />
  <rect x="967.258" y="176" width="43.0491" height="39.5165" rx="5" fill="#3E3E3E" />
  <rect x="1018.44" y="176" width="44.0058" height="39.5165" rx="5" fill="#3D6D49" />
  <rect x="1070.58" y="176" width="42.0925" height="39.5165" rx="5" fill="#3E3E3E" />
  <rect x="1120.8" y="176" width="44.0058" height="39.5165" rx="5" fill="#27DE54" />
  <rect x="915.121" y="224.587" width="44.0058" height="39.5165" rx="5" fill="#27DE55" />
  <rect x="967.258" y="224.587" width="43.0491" height="39.5165" rx="5" fill="#27DE55" />
  <rect x="1018.44" y="224.587" width="44.0058" height="39.5165" rx="5" fill="#3D6D49" />
  <rect x="1070.58" y="224.587" width="42.0925" height="39.5165" rx="5" fill="#3D6D49" />
  <rect x="1120.8" y="224.587" width="44.0058" height="39.5165" rx="5" fill="#3D6D49" />
  <rect x="915.121" y="273.174" width="44.0058" height="38.6574" rx="5" fill="#3E3E3E" />
  <rect x="967.258" y="273.174" width="43.0491" height="38.6574" rx="5" fill="#27DE55" />
  <rect x="1018.44" y="273.174" width="44.0058" height="38.6574" rx="5" fill="#3D6D49" />
  <rect x="1070.58" y="273.174" width="42.0925" height="38.6574" rx="5" fill="#3E3E3E" />
  <rect x="1120.8" y="273.174" width="44.0058" height="38.6574" rx="5" fill="#3D6D49" />
  <rect x="915.121" y="320.902" width="44.0058" height="39.5165" rx="5" fill="#27DE55" />
  <rect x="915.121" y="418.076" width="44.0058" height="39.5165" rx="5" fill="#27DE55" />
  <rect x="967.258" y="320.902" width="43.0491" height="39.5165" rx="5" fill="#27DE55" />
  <rect x="967.258" y="418.076" width="43.0491" height="39.5165" rx="5" fill="#27DE55" />
  <rect x="1018.44" y="320.902" width="44.0058" height="39.5165" rx="5" fill="#3E3E3E" />
  <rect x="1018.44" y="418.075" width="44.0058" height="39.5165" rx="5" fill="#3E3E3E" />
  <rect x="1070.58" y="320.902" width="42.0925" height="39.5165" rx="5" fill="#3D6D49" />
  <rect x="1070.57" y="418.075" width="42.0925" height="39.5165" rx="5" fill="#3D6D49" />
  <rect x="1120.8" y="320.901" width="44.0058" height="39.5165" rx="5" fill="#3E3E3E" />
  <rect x="1120.8" y="418.075" width="44.0058" height="39.5165" rx="5" fill="#3E3E3E" />
  <rect x="915.121" y="369.489" width="44.0058" height="39.5165" rx="5" fill="#27DE55" />
  <rect x="915.121" y="466.663" width="44.0058" height="39.5165" rx="5" fill="#27DE55" />
  <rect x="967.258" y="369.489" width="43.0491" height="39.5165" rx="5" fill="#3E3E3E" />
  <rect x="967.258" y="466.663" width="43.0491" height="39.5165" rx="5" fill="#3E3E3E" />
  <rect x="1018.44" y="369.489" width="44.0058" height="39.5165" rx="5" fill="#3E3E3E" />
  <rect x="1018.44" y="466.662" width="44.0058" height="39.5165" rx="5" fill="#3E3E3E" />
  <rect x="1070.58" y="369.489" width="42.0925" height="39.5165" rx="5" fill="#27DE55" />
  <rect x="1070.58" y="466.662" width="42.0925" height="39.5165" rx="5" fill="#27DE55" />
  <rect x="1120.8" y="369.488" width="44.0058" height="39.5165" rx="5" fill="#3E3E3E" />
  <rect x="1120.8" y="466.662" width="44.0058" height="39.5165" rx="5" fill="#3E3E3E" />
</svg>
  